AllBirdsCombinations-Lean.ufo
<glyph name="exclamation" format="2">
  <advance width="222.45"/>
  <unicode hex="0021"/>
  <outline>
    <contour>
      <point x="41.224998474121094" y="200" type="line"/>
      <point x="181.2249984741211" y="200" type="line"/>
      <point x="181.2249984741211" y="800" type="line"/>
      <point x="41.224998474121094" y="800" type="line"/>
    </contour>
    <contour>
      <point x="186.225" y="63.75" type="curve" smooth="yes"/>
      <point x="186.225" y="105.14363"/>
      <point x="152.61863" y="138.75"/>
      <point x="111.225" y="138.75" type="curve" smooth="yes"/>
      <point x="69.83136999999999" y="138.75"/>
      <point x="36.225" y="105.14363"/>
      <point x="36.225" y="63.75" type="curve" smooth="yes"/>
      <point x="36.225" y="22.35637"/>
      <point x="69.83136999999999" y="-11.25"/>
      <point x="111.225" y="-11.25" type="curve" smooth="yes"/>
      <point x="152.61863" y="-11.25"/>
      <point x="186.225" y="22.35637"/>
    </contour>
  </outline>
</glyph>
<glyph name="quotedouble" format="2">
  <advance width="404.95"/>
  <unicode hex="0022"/>
  <outline>
    <contour>
      <point x="41.224998474121094" y="700" type="line"/>
      <point x="77.93761443425008" y="700.0"/>
      <point x="181.22500324105908" y="712.5563713406547"/>
      <point x="181.22499909236313" y="875.6897338918488" type="curve"/>
      <point x="181.2249984741211" y="900" type="line"/>
      <point x="41.224998474121094" y="900" type="line"/>
    </contour>
    <contour>
      <point x="223.7249984741211" y="700" type="line"/>
      <point x="260.43761443425007" y="700.0"/>
      <point x="363.72500324105914" y="712.5563713406547"/>
      <point x="363.72499909236313" y="875.6897338918488" type="curve"/>
      <point x="363.7249984741211" y="900" type="line"/>
      <point x="223.7249984741211" y="900" type="line"/>
    </contour>
  </outline>
</glyph>
<glyph name="numbersign" format="2">
  <advance width="745.1834301327654"/>
  <unicode hex="0023"/>
  <outline>
    <contour>
      <point x="123.68367004394531" y="-5" type="line"/>
      <point x="157.04404322648713" y="-5.0"/>
      <point x="265.6885394103165" y="4.262923359081583"/>
      <point x="302.0717588954396" y="172.3616577963478" type="curve"/>
      <point x="303.7249984741211" y="180" type="line"/>
      <point x="346.2249984741211" y="180" type="line"/>
      <point x="306.1836700439453" y="-5" type="line"/>
      <point x="339.54404322648713" y="-5.0"/>
      <point x="448.1885399686867" y="4.262923238228268"/>
      <point x="484.57175873587033" y="172.36165783088498" type="curve"/>
      <point x="486.4647674560547" y="181.1077880859375" type="line"/>
      <point x="557.3507473457" y="189.71063142778857"/>
      <point x="623.5856572218246" y="248.65959955960003"/>
      <point x="639.0265459513345" y="320.0" type="curve"/>
      <point x="516.5265426635742" y="320" type="line"/>
      <point x="551.3966522216797" y="481.1077880859375" type="line"/>
      <point x="622.282631527131" y="489.71063142778854"/>
      <point x="688.5175414032556" y="548.6595995596"/>
      <point x="703.9584301327653" y="620.0" type="curve"/>
      <point x="581.4584274291992" y="620" type="line"/>
      <point x="621.499755859375" y="805" type="line"/>
      <point x="588.1393826768332" y="805.0"/>
      <point x="479.49490246025096" y="795.7370741003929"/>
      <point x="443.11166788293104" y="627.6383429296761" type="curve"/>
      <point x="441.4584274291992" y="620" type="line"/>
      <point x="398.9584274291992" y="620" type="line"/>
      <point x="438.999755859375" y="805" type="line"/>
      <point x="405.6393826768332" y="805.0"/>
      <point x="296.9949016198678" y="795.7370742822852"/>
      <point x="260.6116681230932" y="627.6383428776955" type="curve"/>
      <point x="258.7186584472656" y="618.8922119140625" type="line"/>
      <point x="187.83268278706527" y="610.2893685722114"/>
      <point x="121.59777291094075" y="551.3404004403999"/>
      <point x="106.15688418143091" y="479.9999999999999" type="curve"/>
      <point x="228.6568832397461" y="480" type="line"/>
      <point x="193.78677368164062" y="318.8922119140625" type="line"/>
      <point x="122.90079860563436" y="310.28936857221146"/>
      <point x="56.665888729509845" y="251.3404004404"/>
      <point x="41.22499999999999" y="180.00000000000003" type="curve"/>
      <point x="163.7249984741211" y="180" type="line"/>
    </contour>
    <contour>
      <point x="411.1568832397461" y="480" type="line"/>
      <point x="376.5265426635742" y="320" type="line"/>
      <point x="334.0265426635742" y="320" type="line"/>
      <point x="368.6568832397461" y="480" type="line"/>
    </contour>
  </outline>
</glyph>
<glyph name="dollar" format="2">
  <advance width="404.95"/>
  <unicode hex="0024"/>
  <outline>
    <contour>
      <point x="41.22499907921232" y="505.6897331870534" type="line"/>
      <point x="41.22499631341507" y="342.5563704530987"/>
      <point x="144.51238403987105" y="330.0"/>
      <point x="181.225" y="330.0" type="curve"/>
      <point x="181.2249984741211" y="800" type="line"/>
      <point x="111.2249984741211" y="800" type="line"/>
      <point x="111.2249984741211" y="681.2212753295898" type="line"/>
      <point x="43.11874146575427" y="641.8276175754379"/>
      <point x="41.22500030984023" y="578.2751223644317"/>
      <point x="41.22499939490876" y="524.3102675654915" type="curve"/>
    </contour>
    <contour>
      <point x="219.3499984741211" y="735.6897331870533" type="line"/>
      <point x="219.3499984741211" y="572.5563704530986"/>
      <point x="322.63738403987105" y="560.0"/>
      <point x="359.35" y="560.0" type="curve"/>
      <point x="359.3499984741211" y="700" type="line"/>
      <point x="289.3499984741211" y="700" type="line"/>
      <point x="289.3499984741211" y="800" type="line"/>
      <point x="219.3499984741211" y="800" type="line"/>
    </contour>
    <contour>
      <point x="223.7249984741211" y="0" type="line"/>
      <point x="293.7249984741211" y="0" type="line"/>
      <point x="293.7249984741211" y="118.77871704101562" type="line"/>
      <point x="361.8312513446265" y="158.1723819489643"/>
      <point x="363.7250003098403" y="221.7248776355682"/>
      <point x="363.7249993949088" y="275.6897324442889" type="curve"/>
      <point x="363.72499907921235" y="294.31026733498175" type="line"/>
      <point x="363.7249963134149" y="457.44363006893644"/>
      <point x="260.43761596012894" y="470.0"/>
      <point x="223.725" y="470.0" type="curve"/>
    </contour>
    <contour>
      <point x="111.2249984741211" y="0" type="line"/>
      <point x="181.2249984741211" y="0" type="line"/>
      <point x="181.2249984741211" y="64.31026733498179" type="line"/>
      <point x="181.2249984741211" y="227.4436300689365"/>
      <point x="77.93761596012897" y="240.0"/>
      <point x="41.225" y="240.0" type="curve"/>
      <point x="41.224998474121094" y="100" type="line"/>
      <point x="111.2249984741211" y="100" type="line"/>
    </contour>
  </outline>
</glyph>
<glyph name="percent" format="2">
  <advance width="682.45"/>
  <unicode hex="0025"/>
  <outline>
    <contour>
      <point x="116.225" y="805.0" type="line"/>
      <point x="74.83136999999999" y="805.0"/>
      <point x="41.225" y="771.39363"/>
      <point x="41.225" y="730.0" type="curve" smooth="yes"/>
      <point x="41.225" y="688.60637"/>
      <point x="74.83136999999999" y="655.0"/>
      <point x="116.225" y="655.0" type="curve"/>
    </contour>
    <contour>
      <point x="158.725" y="655.0" type="line"/>
      <point x="200.11862999999997" y="655.0"/>
      <point x="233.725" y="688.60637"/>
      <point x="233.725" y="730.0" type="curve" smooth="yes"/>
      <point x="233.725" y="771.39363"/>
      <point x="200.11862999999997" y="805.0"/>
      <point x="158.725" y="805.0" type="curve"/>
    </contour>
    <contour>
      <point x="271.2249984741211" y="0" type="line"/>
      <point x="307.93761443425007" y="0.0"/>
      <point x="411.22500029464175" y="12.556371340654607"/>
      <point x="411.2249999174876" y="175.68973389184887" type="curve"/>
      <point x="411.2249984741211" y="800" type="line"/>
      <point x="374.5123825139921" y="800.0"/>
      <point x="271.22500029464175" y="787.4436300689365"/>
      <point x="271.2249999174876" y="624.3102675177422" type="curve"/>
    </contour>
    <contour>
      <point x="523.725" y="145.0" type="line"/>
      <point x="482.33137" y="145.0"/>
      <point x="448.725" y="111.39363"/>
      <point x="448.725" y="70.0" type="curve" smooth="yes"/>
      <point x="448.725" y="28.60637"/>
      <point x="482.33137" y="-5.0"/>
      <point x="523.725" y="-5.0" type="curve"/>
    </contour>
    <contour>
      <point x="566.225" y="-5.0" type="line"/>
      <point x="607.61863" y="-5.0"/>
      <point x="641.225" y="28.60637"/>
      <point x="641.225" y="70.0" type="curve" smooth="yes"/>
      <point x="641.225" y="111.39363"/>
      <point x="607.61863" y="145.0"/>
      <point x="566.225" y="145.0" type="curve"/>
    </contour>
  </outline>
</glyph>
<glyph name="ampersand" format="2">
  <advance width="544.95"/>
  <unicode hex="0026"/>
  <outline>
    <contour>
      <point x="41.22499892793952" y="575.6897331870533" type="line"/>
      <point x="41.224996853591534" y="412.5563704530986"/>
      <point x="144.51238403987105" y="400.0"/>
      <point x="181.225" y="400.0" type="curve"/>
      <point x="181.2249984741211" y="800" type="line"/>
      <point x="144.51238251399212" y="800.0"/>
      <point x="41.22500162052955" y="787.4436300689365"/>
      <point x="41.224999546181586" y="624.3102675177422" type="curve"/>
    </contour>
    <contour>
      <point x="214.975" y="800.0" type="line"/>
      <point x="214.975" y="722.7319"/>
      <point x="277.7069" y="660.0"/>
      <point x="354.975" y="660.0" type="curve"/>
      <point x="354.975" y="800.0" type="line"/>
    </contour>
    <contour>
      <point x="223.7249984741211" y="-5" type="line"/>
      <point x="260.43761443425007" y="-5.0"/>
      <point x="363.7250008642825" y="7.556371340654607"/>
      <point x="363.72499975796353" y="170.68973389184887" type="curve"/>
      <point x="363.7249984741211" y="360" type="line"/>
      <point x="440.9931" y="360.0"/>
      <point x="503.725" y="422.7319"/>
      <point x="503.725" y="500.0" type="curve"/>
      <point x="403.7249984741211" y="500.0" type="line"/>
      <point x="253.99753068597764" y="500.0"/>
      <point x="223.7250004446893" y="466.37252610278244"/>
      <point x="223.7249998507994" y="324.31026751774215" type="curve"/>
    </contour>
    <contour>
      <point x="41.224998909786784" y="170.68973318705338" type="line"/>
      <point x="41.224996918412714" y="7.55637045309868"/>
      <point x="144.51238403987105" y="-4.999999999999996"/>
      <point x="181.225" y="-5.0" type="curve"/>
      <point x="181.2249984741211" y="400" type="line"/>
      <point x="144.51238251399212" y="400.0"/>
      <point x="41.225001555708374" y="387.4436300689364"/>
      <point x="41.224999564334325" y="224.31026751774215" type="curve"/>
    </contour>
  </outline>
</glyph>
<glyph name="quotesingle" format="2">
  <advance width="222.45"/>
  <unicode hex="0027"/>
  <outline>
    <contour>
      <point x="41.224998474121094" y="700" type="line"/>
      <point x="77.93761443425008" y="700.0"/>
      <point x="181.22500324105908" y="712.5563713406547"/>
      <point x="181.22499909236313" y="875.6897338918488" type="curve"/>
      <point x="181.2249984741211" y="900" type="line"/>
      <point x="41.224998474121094" y="900" type="line"/>
    </contour>
  </outline>
</glyph>
<glyph name="parenleft" format="2">
  <advance width="222.45"/>
  <unicode hex="0028"/>
  <outline>
    <contour>
      <point x="41.2249985497575" y="75.68973318705338" type="line"/>
      <point x="41.22499820403284" y="-87.44362954690135"/>
      <point x="144.51238403987105" y="-100.0"/>
      <point x="181.225" y="-100.0" type="curve"/>
      <point x="181.2249984741211" y="900" type="line"/>
      <point x="144.51238251399212" y="900.0"/>
      <point x="41.22500027008827" y="887.4436300689365"/>
      <point x="41.224999924363594" y="724.3102675177422" type="curve"/>
    </contour>
  </outline>
</glyph>
<glyph name="parenright" format="2">
  <advance width="222.45"/>
  <unicode hex="0029"/>
  <outline>
    <contour>
      <point x="41.224998474121094" y="-100" type="line"/>
      <point x="77.93761443425008" y="-100.0"/>
      <point x="181.22500027008826" y="-87.4436286593454"/>
      <point x="181.2249999243636" y="75.68973389184886" type="curve"/>
      <point x="181.2249985497575" y="724.3102673349817" type="line"/>
      <point x="181.22499820403283" y="887.4436300689365"/>
      <point x="77.93761596012897" y="900.0"/>
      <point x="41.225" y="900.0" type="curve"/>
    </contour>
  </outline>
</glyph>
<glyph name="period" format="2">
  <advance width="222.45"/>
  <unicode hex="002E"/>
  <outline>
    <contour>
      <point x="186.225" y="63.75" type="curve" smooth="yes"/>
      <point x="186.225" y="105.14363"/>
      <point x="152.61863" y="138.75"/>
      <point x="111.225" y="138.75" type="curve" smooth="yes"/>
      <point x="69.83136999999999" y="138.75"/>
      <point x="36.225" y="105.14363"/>
      <point x="36.225" y="63.75" type="curve" smooth="yes"/>
      <point x="36.225" y="22.35637"/>
      <point x="69.83136999999999" y="-11.25"/>
      <point x="111.225" y="-11.25" type="curve" smooth="yes"/>
      <point x="152.61863" y="-11.25"/>
      <point x="186.225" y="22.35637"/>
    </contour>
  </outline>
</glyph>
<glyph name="slash" format="2">
  <advance width="435.57105493489354"/>
  <unicode hex="002F"/>
  <outline>
    <contour>
      <point x="41.224998474121094" y="-72.99723052978516" type="line"/>
      <point x="77.06737887541253" y="-80.94329482634336"/>
      <point x="180.62413724268657" y="-91.04004153417603"/>
      <point x="215.93265910079324" y="68.22640898650016" type="curve"/>
      <point x="394.34605407714844" y="872.9972305297852" type="line"/>
      <point x="358.503673728912" y="880.9432950656591"/>
      <point x="254.94691829499408" y="891.040042659856"/>
      <point x="219.63839600591933" y="731.7735922347232" type="curve"/>
    </contour>
  </outline>
</glyph>
<glyph name="two" format="2">
  <advance width="404.95"/>
  <unicode hex="0032"/>
  <outline>
    <contour>
      <point x="190.6" y="730.0" type="curve" smooth="yes"/>
      <point x="190.6" y="771.39363"/>
      <point x="156.99363" y="805.0"/>
      <point x="115.6" y="805.0" type="curve" smooth="yes"/>
      <point x="74.20636999999999" y="805.0"/>
      <point x="40.6" y="771.39363"/>
      <point x="40.6" y="730.0" type="curve" smooth="yes"/>
      <point x="40.6" y="688.60637"/>
      <point x="74.20636999999999" y="655.0"/>
      <point x="115.6" y="655.0" type="curve" smooth="yes"/>
      <point x="156.99363" y="655.0"/>
      <point x="190.6" y="688.60637"/>
    </contour>
    <contour>
      <point x="223.7249984741211" y="195" type="line"/>
      <point x="260.43761443425007" y="195.0"/>
      <point x="363.7250005892835" y="207.55637134065458"/>
      <point x="363.7249998349751" y="370.68973389184885" type="curve"/>
      <point x="363.72499863914595" y="629.3102673349817" type="line"/>
      <point x="363.72499788483765" y="792.4436300689365"/>
      <point x="260.43761596012894" y="805.0"/>
      <point x="223.725" y="805.0" type="curve"/>
    </contour>
    <contour>
      <point x="41.225" y="0.0" type="curve"/>
      <point x="363.7249984741211" y="0" type="line"/>
      <point x="363.7249984741211" y="140" type="line"/>
      <point x="216.91473095637892" y="140.0" type="line"/>
      <point x="53.78136822242419" y="140.00000000000003"/>
      <point x="41.225" y="36.71261596012896"/>
    </contour>
  </outline>
</glyph>
<glyph name="three" format="2">
  <advance width="404.95"/>
  <unicode hex="0033"/>
  <outline>
    <contour>
      <point x="186.225" y="730.0" type="curve" smooth="yes"/>
      <point x="186.225" y="771.39363"/>
      <point x="152.61863" y="805.0"/>
      <point x="111.225" y="805.0" type="curve" smooth="yes"/>
      <point x="69.83136999999999" y="805.0"/>
      <point x="36.225" y="771.39363"/>
      <point x="36.225" y="730.0" type="curve" smooth="yes"/>
      <point x="36.225" y="688.60637"/>
      <point x="69.83136999999999" y="655.0"/>
      <point x="111.225" y="655.0" type="curve" smooth="yes"/>
      <point x="152.61863" y="655.0"/>
      <point x="186.225" y="688.60637"/>
    </contour>
    <contour>
      <point x="223.7249984741211" y="400" type="line"/>
      <point x="260.43761443425007" y="400.0"/>
      <point x="363.7250015557084" y="412.5563713406546"/>
      <point x="363.7249995643343" y="575.6897338918488" type="curve"/>
      <point x="363.7249989097868" y="629.3102673349817" type="line"/>
      <point x="363.72499691841267" y="792.4436300689365"/>
      <point x="260.43761596012894" y="805.0"/>
      <point x="223.725" y="805.0" type="curve"/>
    </contour>
    <contour>
      <point x="223.7249984741211" y="-5" type="line"/>
      <point x="260.43761443425007" y="-5.0"/>
      <point x="363.7250015557084" y="7.556371340654636"/>
      <point x="363.7249995643343" y="170.68973389184887" type="curve"/>
      <point x="363.7249989097868" y="224.31026733498177" type="line"/>
      <point x="363.72499691841267" y="387.4436300689365"/>
      <point x="260.43761596012894" y="400.0"/>
      <point x="223.725" y="400.0" type="curve"/>
    </contour>
    <contour>
      <point x="186.225" y="70.0" type="curve" smooth="yes"/>
      <point x="186.225" y="111.39363"/>
      <point x="152.61863" y="145.0"/>
      <point x="111.225" y="145.0" type="curve" smooth="yes"/>
      <point x="69.83136999999999" y="145.0"/>
      <point x="36.225" y="111.39363"/>
      <point x="36.225" y="70.0" type="curve" smooth="yes"/>
      <point x="36.225" y="28.60637"/>
      <point x="69.83136999999999" y="-5.0"/>
      <point x="111.225" y="-5.0" type="curve" smooth="yes"/>
      <point x="152.61863" y="-5.0"/>
      <point x="186.225" y="28.60637"/>
    </contour>
  </outline>
</glyph>
<glyph name="four" format="2">
  <advance width="404.95"/>
  <unicode hex="0034"/>
  <outline>
    <contour>
      <point x="41.224998474121094" y="300" type="line"/>
      <point x="77.93761443425008" y="300.0"/>
      <point x="181.2250005401765" y="312.55637134065455"/>
      <point x="181.22499984872718" y="475.68973389184885" type="curve"/>
      <point x="181.2249984741211" y="800" type="line"/>
      <point x="41.224998474121094" y="800" type="line"/>
    </contour>
    <contour>
      <point x="223.7249984741211" y="0" type="line"/>
      <point x="363.7249984741211" y="0" type="line"/>
      <point x="363.7249984741211" y="500" type="line"/>
      <point x="223.7249984741211" y="500" type="line"/>
    </contour>
  </outline>
</glyph>
<glyph name="five" format="2">
  <advance width="404.95"/>
  <unicode hex="0035"/>
  <outline>
    <contour>
      <point x="45.599998474121094" y="505.6897331870534" type="line"/>
      <point x="45.5999984741211" y="342.5563704530987"/>
      <point x="148.88738403987105" y="330.0"/>
      <point x="185.6" y="330.0" type="curve"/>
      <point x="185.5999984741211" y="800" type="line"/>
      <point x="45.599998474121094" y="800" type="line"/>
    </contour>
    <contour>
      <point x="219.35" y="800.0" type="line"/>
      <point x="219.35" y="722.7319"/>
      <point x="282.0819" y="660.0"/>
      <point x="359.35" y="660.0" type="curve"/>
      <point x="359.35" y="800.0" type="line"/>
    </contour>
    <contour>
      <point x="223.7249984741211" y="-5" type="line"/>
      <point x="260.43761443425007" y="-5.0"/>
      <point x="363.725000997249" y="7.556371340654607"/>
      <point x="363.7249997207271" y="170.68973389184887" type="curve"/>
      <point x="363.72499875339395" y="294.31026733498175" type="line"/>
      <point x="363.72499747687215" y="457.4436300689365"/>
      <point x="260.43761596012894" y="470.0"/>
      <point x="223.725" y="470.0" type="curve"/>
    </contour>
    <contour>
      <point x="186.225" y="65.0" type="curve" smooth="yes"/>
      <point x="186.225" y="106.39363"/>
      <point x="152.61863" y="140.0"/>
      <point x="111.225" y="140.0" type="curve" smooth="yes"/>
      <point x="69.83136999999999" y="140.0"/>
      <point x="36.225" y="106.39363"/>
      <point x="36.225" y="65.0" type="curve" smooth="yes"/>
      <point x="36.225" y="23.60637"/>
      <point x="69.83136999999999" y="-10.0"/>
      <point x="111.225" y="-10.0" type="curve" smooth="yes"/>
      <point x="152.61863" y="-10.0"/>
      <point x="186.225" y="23.60637"/>
    </contour>
  </outline>
</glyph>
<glyph name="six" format="2">
  <advance width="404.95"/>
  <unicode hex="0036"/>
  <outline>
    <contour>
      <point x="41.22499857687243" y="170.68973318705338" type="line"/>
      <point x="41.22499810720875" y="7.556370453098651"/>
      <point x="144.51238403987105" y="-4.999999999999996"/>
      <point x="181.225" y="-5.0" type="curve"/>
      <point x="181.2249984741211" y="805" type="line"/>
      <point x="144.51238251399212" y="805.0"/>
      <point x="41.22500036691236" y="792.4436300689365"/>
      <point x="41.22499989724866" y="629.3102675177422" type="curve"/>
    </contour>
    <contour>
      <point x="359.35" y="735.0" type="curve" smooth="yes"/>
      <point x="359.35" y="773.63405"/>
      <point x="327.98405" y="805.0"/>
      <point x="289.35" y="805.0" type="curve" smooth="yes"/>
      <point x="250.71595" y="805.0"/>
      <point x="219.35" y="773.63405"/>
      <point x="219.35" y="735.0" type="curve" smooth="yes"/>
      <point x="219.35" y="696.36595"/>
      <point x="250.71595" y="665.0"/>
      <point x="289.35" y="665.0" type="curve" smooth="yes"/>
      <point x="327.98405" y="665.0"/>
      <point x="359.35" y="696.36595"/>
    </contour>
    <contour>
      <point x="223.7249984741211" y="-5" type="line"/>
      <point x="260.43761443425007" y="-5.0"/>
      <point x="363.7250008642825" y="7.556371340654607"/>
      <point x="363.72499975796353" y="170.68973389184887" type="curve"/>
      <point x="363.7249987161576" y="324.31026733498175" type="line"/>
      <point x="363.7249976098386" y="487.4436300689365"/>
      <point x="260.43761596012894" y="500.0"/>
      <point x="223.725" y="500.0" type="curve"/>
    </contour>
  </outline>
</glyph>
<glyph name="seven" format="2">
  <advance width="404.95"/>
  <unicode hex="0037"/>
  <outline>
    <contour>
      <point x="41.224998474121094" y="660" type="line"/>
      <point x="188.0352645822722" y="660.0" type="line"/>
      <point x="351.1686273162269" y="660.0"/>
      <point x="363.725" y="763.2873840398711"/>
      <point x="363.725" y="800.0" type="curve"/>
      <point x="41.224998474121094" y="800" type="line"/>
    </contour>
    <contour>
      <point x="223.7249984741211" y="0" type="line"/>
      <point x="363.7249984741211" y="0" type="line"/>
      <point x="363.7249984741211" y="645" type="line"/>
      <point x="327.0123825139921" y="645.0"/>
      <point x="223.72500038507633" y="632.4436300689364"/>
      <point x="223.72499989216195" y="469.31026751774215" type="curve"/>
    </contour>
  </outline>
</glyph>
<glyph name="eight" format="2">
  <advance width="404.95"/>
  <unicode hex="0038"/>
  <outline>
    <contour>
      <point x="41.224998909786784" y="575.6897331870533" type="line"/>
      <point x="41.224996918412714" y="412.5563704530986"/>
      <point x="144.51238403987105" y="400.0"/>
      <point x="181.225" y="400.0" type="curve"/>
      <point x="181.2249984741211" y="805" type="line"/>
      <point x="144.51238251399212" y="805.0"/>
      <point x="41.225001555708374" y="792.4436300689365"/>
      <point x="41.224999564334325" y="629.3102675177422" type="curve"/>
    </contour>
    <contour>
      <point x="223.7249984741211" y="400" type="line"/>
      <point x="260.43761443425007" y="400.0"/>
      <point x="363.7250015557084" y="412.5563713406546"/>
      <point x="363.7249995643343" y="575.6897338918488" type="curve"/>
      <point x="363.7249989097868" y="629.3102673349817" type="line"/>
      <point x="363.72499691841267" y="792.4436300689365"/>
      <point x="260.43761596012894" y="805.0"/>
      <point x="223.725" y="805.0" type="curve"/>
    </contour>
    <contour>
      <point x="41.224998909786784" y="170.68973318705338" type="line"/>
      <point x="41.224996918412714" y="7.55637045309868"/>
      <point x="144.51238403987105" y="-4.999999999999996"/>
      <point x="181.225" y="-5.0" type="curve"/>
      <point x="181.2249984741211" y="400" type="line"/>
      <point x="144.51238251399212" y="400.0"/>
      <point x="41.225001555708374" y="387.4436300689364"/>
      <point x="41.224999564334325" y="224.31026751774215" type="curve"/>
    </contour>
    <contour>
      <point x="223.7249984741211" y="-5" type="line"/>
      <point x="260.43761443425007" y="-5.0"/>
      <point x="363.7250015557084" y="7.556371340654636"/>
      <point x="363.7249995643343" y="170.68973389184887" type="curve"/>
      <point x="363.7249989097868" y="224.31026733498177" type="line"/>
      <point x="363.72499691841267" y="387.4436300689365"/>
      <point x="260.43761596012894" y="400.0"/>
      <point x="223.725" y="400.0" type="curve"/>
    </contour>
  </outline>
</glyph>
<glyph name="nine" format="2">
  <advance width="404.95"/>
  <unicode hex="0039"/>
  <outline>
    <contour>
      <point x="41.224998716157586" y="475.6897331870534" type="line"/>
      <point x="41.22499760983866" y="312.5563704530987"/>
      <point x="144.51238403987105" y="300.0"/>
      <point x="181.225" y="300.0" type="curve"/>
      <point x="181.2249984741211" y="805" type="line"/>
      <point x="144.51238251399212" y="805.0"/>
      <point x="41.22500086428242" y="792.4436300689365"/>
      <point x="41.224999757963516" y="629.3102675177422" type="curve"/>
    </contour>
    <contour>
      <point x="223.7249984741211" y="-5" type="line"/>
      <point x="260.43761443425007" y="-5.0"/>
      <point x="363.7250003669124" y="7.556371340654607"/>
      <point x="363.72499989724867" y="170.68973389184887" type="curve"/>
      <point x="363.72499857687245" y="629.3102673349817" type="line"/>
      <point x="363.72499810720876" y="792.4436300689365"/>
      <point x="260.43761596012894" y="805.0"/>
      <point x="223.725" y="805.0" type="curve"/>
    </contour>
    <contour>
      <point x="190.6" y="65.0" type="curve" smooth="yes"/>
      <point x="190.6" y="106.39363"/>
      <point x="156.99363" y="140.0"/>
      <point x="115.6" y="140.0" type="curve" smooth="yes"/>
      <point x="74.20636999999999" y="140.0"/>
      <point x="40.6" y="106.39363"/>
      <point x="40.6" y="65.0" type="curve" smooth="yes"/>
      <point x="40.6" y="23.60637"/>
      <point x="74.20636999999999" y="-10.0"/>
      <point x="115.6" y="-10.0" type="curve" smooth="yes"/>
      <point x="156.99363" y="-10.0"/>
      <point x="190.6" y="23.60637"/>
    </contour>
  </outline>
</glyph>
<glyph name="semicolon" format="2">
  <advance width="222.45"/>
  <unicode hex="003B"/>
  <outline>
    <contour>
      <point x="186.225" y="530.0" type="curve" smooth="yes"/>
      <point x="186.225" y="571.39363"/>
      <point x="152.61863" y="605.0"/>
      <point x="111.225" y="605.0" type="curve" smooth="yes"/>
      <point x="69.83136999999999" y="605.0"/>
      <point x="36.225" y="571.39363"/>
      <point x="36.225" y="530.0" type="curve" smooth="yes"/>
      <point x="36.225" y="488.60637"/>
      <point x="69.83136999999999" y="455.0"/>
      <point x="111.225" y="455.0" type="curve" smooth="yes"/>
      <point x="152.61863" y="455.0"/>
      <point x="186.225" y="488.60637"/>
    </contour>
    <contour>
      <point x="41.224998474121094" y="-100" type="line"/>
      <point x="77.93761443425008" y="-100.0"/>
      <point x="181.22500324105908" y="-87.44362865934536"/>
      <point x="181.22499909236313" y="75.68973389184885" type="curve"/>
      <point x="181.2249984741211" y="100" type="line"/>
      <point x="41.224998474121094" y="100" type="line"/>
    </contour>
  </outline>
</glyph>
<glyph name="less" format="2">
  <advance width="362.45"/>
  <unicode hex="003C"/>
  <outline>
    <contour>
      <point x="41.22499864430301" y="275.6897331870534" type="line"/>
      <point x="41.22499796689738" y="133.62747726798622"/>
      <point x="71.49753007207548" y="100.00000000000001"/>
      <point x="221.225" y="100.0" type="curve"/>
      <point x="321.2249984741211" y="100" type="line"/>
      <point x="321.225" y="177.2681"/>
      <point x="258.4931" y="240.0"/>
      <point x="181.225" y="240.0" type="curve"/>
      <point x="181.2249984741211" y="560" type="line"/>
      <point x="258.4931" y="560.0"/>
      <point x="321.225" y="622.7319"/>
      <point x="321.225" y="700.0" type="curve"/>
      <point x="221.2249984741211" y="700.0" type="line"/>
      <point x="71.49753068597764" y="700.0"/>
      <point x="41.225000507223726" y="666.3725261027824"/>
      <point x="41.224999829818096" y="524.3102675177422" type="curve"/>
    </contour>
  </outline>
</glyph>
<glyph name="greater" format="2">
  <advance width="362.45"/>
  <unicode hex="003E"/>
  <outline>
    <contour>
      <point x="145.5352645822722" y="100.0" type="line"/>
      <point x="287.5975205013393" y="100.0"/>
      <point x="321.2250005232214" y="130.27253007207548"/>
      <point x="321.22499980926517" y="280.0" type="curve"/>
      <point x="321.224998644303" y="524.3102673349817" type="line"/>
      <point x="321.2249979668973" y="666.3725232540489"/>
      <point x="290.95246992792454" y="700.0"/>
      <point x="141.225" y="700.0" type="curve"/>
      <point x="41.224998474121094" y="700" type="line"/>
      <point x="41.225" y="622.7319"/>
      <point x="103.95689999999999" y="560.0"/>
      <point x="181.225" y="560.0" type="curve"/>
      <point x="181.2249984741211" y="240" type="line"/>
      <point x="103.95689999999999" y="240.0"/>
      <point x="41.225" y="177.2681"/>
      <point x="41.225" y="100.0" type="curve"/>
    </contour>
  </outline>
</glyph>
<glyph name="question" format="2">
  <advance width="404.95"/>
  <unicode hex="003F"/>
  <outline>
    <contour>
      <point x="186.225" y="742.5" type="curve" smooth="yes"/>
      <point x="186.225" y="783.89363"/>
      <point x="152.61863" y="817.5"/>
      <point x="111.225" y="817.5" type="curve" smooth="yes"/>
      <point x="69.83136999999999" y="817.5"/>
      <point x="36.225" y="783.89363"/>
      <point x="36.225" y="742.5" type="curve" smooth="yes"/>
      <point x="36.225" y="701.10637"/>
      <point x="69.83136999999999" y="667.5"/>
      <point x="111.225" y="667.5" type="curve" smooth="yes"/>
      <point x="152.61863" y="667.5"/>
      <point x="186.225" y="701.10637"/>
    </contour>
    <contour>
      <point x="223.7249984741211" y="405" type="line"/>
      <point x="260.43761443425007" y="405.0"/>
      <point x="363.7250016205296" y="417.5563713406546"/>
      <point x="363.7249995461816" y="580.6897338918488" type="curve"/>
      <point x="363.7249989279395" y="629.3102673349817" type="line"/>
      <point x="363.72499685359145" y="792.4436300689365"/>
      <point x="260.43761596012894" y="805.0"/>
      <point x="223.725" y="805.0" type="curve"/>
    </contour>
    <contour>
      <point x="41.224998474121094" y="200" type="line"/>
      <point x="181.2249984741211" y="200" type="line"/>
      <point x="181.2249984741211" y="540" type="line"/>
      <point x="144.51238251399212" y="540.0"/>
      <point x="41.22500097231774" y="527.4436300689364"/>
      <point x="41.224999727708955" y="364.31026751774215" type="curve"/>
    </contour>
    <contour>
      <point x="186.225" y="63.75" type="curve" smooth="yes"/>
      <point x="186.225" y="105.14363"/>
      <point x="152.61863" y="138.75"/>
      <point x="111.225" y="138.75" type="curve" smooth="yes"/>
      <point x="69.83136999999999" y="138.75"/>
      <point x="36.225" y="105.14363"/>
      <point x="36.225" y="63.75" type="curve" smooth="yes"/>
      <point x="36.225" y="22.35637"/>
      <point x="69.83136999999999" y="-11.25"/>
      <point x="111.225" y="-11.25" type="curve" smooth="yes"/>
      <point x="152.61863" y="-11.25"/>
      <point x="186.225" y="22.35637"/>
    </contour>
  </outline>
</glyph>
<glyph name="at" format="2">
  <advance width="954.8433400000001"/>
  <unicode hex="0040"/>
  <outline>
    <contour>
      <point x="843.6183400000001" y="400.0" type="curve" smooth="yes"/>
      <point x="843.6183400000001" y="602.10944"/>
      <point x="679.53111" y="766.19667"/>
      <point x="477.42167000000006" y="766.19667" type="curve" smooth="yes"/>
      <point x="275.31223" y="766.19667"/>
      <point x="111.225" y="602.10944"/>
      <point x="111.225" y="400.0" type="curve" smooth="yes"/>
      <point x="111.225" y="197.89056"/>
      <point x="275.31223" y="33.80333"/>
      <point x="477.42167000000006" y="33.80333" type="curve" smooth="yes"/>
      <point x="679.53111" y="33.80333"/>
      <point x="843.6183400000001" y="197.89056"/>
    </contour>
    <contour>
      <point x="307.42166970447346" y="375.6897324822578" type="curve"/>
      <point x="307.4216693018742" y="424.31026705877935" type="line"/>
      <point x="307.4216679510588" y="587.4436297927341"/>
      <point x="410.7090540398711" y="600.0"/>
      <point x="447.42167000000006" y="600.0" type="curve"/>
      <point x="447.42166900634766" y="200" type="line"/>
      <point x="410.7090530462187" y="200.0"/>
      <point x="307.42167105528887" y="212.55636993106353"/>
    </contour>
    <contour>
      <point x="489.9216698636032" y="375.68973248225785" type="curve"/>
      <point x="489.92166900634766" y="600" type="line"/>
      <point x="629.9216690063477" y="600" type="line"/>
      <point x="629.9216690063477" y="200" type="line"/>
      <point x="593.2090530462186" y="200.0"/>
      <point x="489.9216704870565" y="212.55636993106359"/>
    </contour>
  </outline>
</glyph>
<glyph name="A" format="2">
  <advance width="404.95"/>
  <unicode hex="0041"/>
  <outline>
    <contour>
      <point x="41.224998474121094" y="0" type="line"/>
      <point x="181.2249984741211" y="0" type="line"/>
      <point x="181.2249984741211" y="805" type="line"/>
      <point x="144.51238251399212" y="805.0"/>
      <point x="41.2250002924264" y="792.4436300689365"/>
      <point x="41.224999918107954" y="629.3102675177422" type="curve"/>
    </contour>
    <contour>
      <point x="223.7249984741211" y="0" type="line"/>
      <point x="363.7249984741211" y="0" type="line"/>
      <point x="363.7249984741211" y="629.3102673349817" type="line"/>
      <point x="363.7249984741211" y="792.4436300689365"/>
      <point x="260.43761596012894" y="805.0"/>
      <point x="223.725" y="805.0" type="curve"/>
    </contour>
  </outline>
</glyph>
<glyph name="C" format="2">
  <advance width="404.95"/>
  <unicode hex="0043"/>
  <outline>
    <contour>
      <point x="41.22499857884842" y="175.68973318705338" type="line"/>
      <point x="41.224998100152746" y="12.556370453098651"/>
      <point x="144.51238403987105" y="4.4959987623897964e-15"/>
      <point x="181.225" y="0.0" type="curve"/>
      <point x="181.2249984741211" y="800" type="line"/>
      <point x="144.51238251399212" y="800.0"/>
      <point x="41.22500037396837" y="787.4436300689365"/>
      <point x="41.224999895272674" y="624.3102675177422" type="curve"/>
    </contour>
    <contour>
      <point x="223.7249984741211" y="635.6897331870533" type="line"/>
      <point x="223.7249984741211" y="472.55637045309857"/>
      <point x="327.01238403987105" y="460.0"/>
      <point x="363.725" y="460.0" type="curve"/>
      <point x="363.7249984741211" y="800" type="line"/>
      <point x="223.7249984741211" y="800" type="line"/>
    </contour>
    <contour>
      <point x="363.725" y="140.0" type="line"/>
      <point x="286.4569" y="140.0"/>
      <point x="223.725" y="77.2681"/>
      <point x="223.725" y="0.0" type="curve"/>
      <point x="363.725" y="0.0" type="line"/>
    </contour>
  </outline>
</glyph>
<glyph name="F" format="2">
  <advance width="404.95"/>
  <unicode hex="0046"/>
  <outline>
    <contour>
      <point x="41.224998474121094" y="0" type="line"/>
      <point x="181.2249984741211" y="0" type="line"/>
      <point x="181.2249984741211" y="800" type="line"/>
      <point x="41.224998474121094" y="800" type="line"/>
    </contour>
    <contour>
      <point x="223.725" y="800.0" type="line"/>
      <point x="223.725" y="722.7319"/>
      <point x="286.4569" y="660.0"/>
      <point x="363.725" y="660.0" type="curve"/>
      <point x="363.725" y="800.0" type="line"/>
    </contour>
    <contour>
      <point x="223.725" y="470.0" type="line"/>
      <point x="223.725" y="392.7319"/>
      <point x="286.4569" y="330.0"/>
      <point x="363.725" y="330.0" type="curve"/>
      <point x="363.725" y="470.0" type="line"/>
    </contour>
  </outline>
</glyph>
<glyph name="G" format="2">
  <advance width="404.95"/>
  <unicode hex="0047"/>
  <outline>
    <contour>
      <point x="41.22499857884842" y="175.68973318705338" type="line"/>
      <point x="41.224998100152746" y="12.556370453098651"/>
      <point x="144.51238403987105" y="4.4959987623897964e-15"/>
      <point x="181.225" y="0.0" type="curve"/>
      <point x="181.2249984741211" y="800" type="line"/>
      <point x="144.51238251399212" y="800.0"/>
      <point x="41.22500037396837" y="787.4436300689365"/>
      <point x="41.224999895272674" y="624.3102675177422" type="curve"/>
    </contour>
    <contour>
      <point x="223.725" y="800.0" type="line"/>
      <point x="223.725" y="722.7319"/>
      <point x="286.4569" y="660.0"/>
      <point x="363.725" y="660.0" type="curve"/>
      <point x="363.725" y="800.0" type="line"/>
    </contour>
    <contour>
      <point x="223.7249984741211" y="175.68973318705335" type="line"/>
      <point x="223.7249984741211" y="12.556370453098623"/>
      <point x="327.01238403987105" y="4.4959987623897964e-15"/>
      <point x="363.725" y="0.0" type="curve"/>
      <point x="363.7249984741211" y="400" type="line"/>
      <point x="223.7249984741211" y="400" type="line"/>
    </contour>
  </outline>
</glyph>
<glyph name="H" format="2">
  <advance width="587.45"/>
  <unicode hex="0048"/>
  <outline>
    <contour>
      <point x="41.224998474121094" y="0" type="line"/>
      <point x="181.2249984741211" y="0" type="line"/>
      <point x="181.2249984741211" y="800" type="line"/>
      <point x="41.224998474121094" y="800" type="line"/>
    </contour>
    <contour>
      <point x="406.2249984741211" y="0" type="line"/>
      <point x="546.2249984741211" y="0" type="line"/>
      <point x="546.2249984741211" y="800" type="line"/>
      <point x="406.2249984741211" y="800" type="line"/>
    </contour>
    <contour>
      <point x="223.725" y="470.0" type="line"/>
      <point x="223.725" y="392.7319"/>
      <point x="286.4569" y="330.0"/>
      <point x="363.725" y="330.0" type="curve"/>
      <point x="363.725" y="470.0" type="line"/>
    </contour>
  </outline>
</glyph>
<glyph name="J" format="2">
  <advance width="404.95"/>
  <unicode hex="004A"/>
  <outline>
    <contour>
      <point x="223.7249984741211" y="-5" type="line"/>
      <point x="260.43761443425007" y="-5.0"/>
      <point x="363.72500029242644" y="7.556371340654607"/>
      <point x="363.724999918108" y="170.68973389184887" type="curve"/>
      <point x="363.7249984741211" y="800" type="line"/>
      <point x="223.7249984741211" y="800" type="line"/>
    </contour>
    <contour>
      <point x="186.225" y="65.0" type="curve" smooth="yes"/>
      <point x="186.225" y="106.39363"/>
      <point x="152.61863" y="140.0"/>
      <point x="111.225" y="140.0" type="curve" smooth="yes"/>
      <point x="69.83136999999999" y="140.0"/>
      <point x="36.225" y="106.39363"/>
      <point x="36.225" y="65.0" type="curve" smooth="yes"/>
      <point x="36.225" y="23.60637"/>
      <point x="69.83136999999999" y="-10.0"/>
      <point x="111.225" y="-10.0" type="curve" smooth="yes"/>
      <point x="152.61863" y="-10.0"/>
      <point x="186.225" y="23.60637"/>
    </contour>
  </outline>
</glyph>
<glyph name="K" format="2">
  <advance width="404.95"/>
  <unicode hex="004B"/>
  <outline>
    <contour>
      <point x="41.224998474121094" y="0" type="line"/>
      <point x="181.2249984741211" y="0" type="line"/>
      <point x="181.2249984741211" y="800" type="line"/>
      <point x="41.224998474121094" y="800" type="line"/>
    </contour>
    <contour>
      <point x="223.7249984741211" y="400" type="line"/>
      <point x="260.43761443425007" y="400.0"/>
      <point x="363.72500074793675" y="412.55637134065455"/>
      <point x="363.7249997905454" y="575.6897338918488" type="curve"/>
      <point x="363.7249984741211" y="800" type="line"/>
      <point x="223.7249984741211" y="800" type="line"/>
    </contour>
    <contour>
      <point x="223.7249984741211" y="0" type="line"/>
      <point x="363.7249984741211" y="0" type="line"/>
      <point x="363.7249984741211" y="224.31026733498177" type="line"/>
      <point x="363.7249984741211" y="387.4436300689365"/>
      <point x="260.43761596012894" y="400.0"/>
      <point x="223.725" y="400.0" type="curve"/>
    </contour>
  </outline>
</glyph>
<glyph name="L" format="2">
  <advance width="404.95"/>
  <unicode hex="004C"/>
  <outline>
    <contour>
      <point x="41.224998474121094" y="0" type="line"/>
      <point x="181.2249984741211" y="0" type="line"/>
      <point x="181.2249984741211" y="800" type="line"/>
      <point x="41.224998474121094" y="800" type="line"/>
    </contour>
    <contour>
      <point x="363.725" y="140.0" type="line"/>
      <point x="286.4569" y="140.0"/>
      <point x="223.725" y="77.2681"/>
      <point x="223.725" y="0.0" type="curve"/>
      <point x="363.725" y="0.0" type="line"/>
    </contour>
  </outline>
</glyph>
<glyph name="M" format="2">
  <advance width="587.45"/>
  <unicode hex="004D"/>
  <outline>
    <contour>
      <point x="41.224998474121094" y="0" type="line"/>
      <point x="181.2249984741211" y="0" type="line"/>
      <point x="181.2249984741211" y="800" type="line"/>
      <point x="41.224998474121094" y="800" type="line"/>
    </contour>
    <contour>
      <point x="223.7249984741211" y="0" type="line"/>
      <point x="363.7249984741211" y="0" type="line"/>
      <point x="363.7249984741211" y="800" type="line"/>
      <point x="223.7249984741211" y="800" type="line"/>
    </contour>
    <contour>
      <point x="406.2249984741211" y="0" type="line"/>
      <point x="546.2249984741211" y="0" type="line"/>
      <point x="546.2249984741211" y="624.3102673349817" type="line"/>
      <point x="546.2249984741211" y="787.4436300689365"/>
      <point x="442.937615960129" y="800.0"/>
      <point x="406.225" y="800.0" type="curve"/>
    </contour>
  </outline>
</glyph>
<glyph name="N" format="2">
  <advance width="404.95"/>
  <unicode hex="004E"/>
  <outline>
    <contour>
      <point x="41.224998474121094" y="0" type="line"/>
      <point x="181.2249984741211" y="0" type="line"/>
      <point x="181.2249984741211" y="800" type="line"/>
      <point x="41.224998474121094" y="800" type="line"/>
    </contour>
    <contour>
      <point x="223.7249984741211" y="0" type="line"/>
      <point x="363.7249984741211" y="0" type="line"/>
      <point x="363.7249984741211" y="624.3102673349817" type="line"/>
      <point x="363.7249984741211" y="787.4436300689365"/>
      <point x="260.43761596012894" y="800.0"/>
      <point x="223.725" y="800.0" type="curve"/>
    </contour>
  </outline>
</glyph>
<glyph name="Q" format="2">
  <advance width="404.95"/>
  <unicode hex="0051"/>
  <outline>
    <contour>
      <point x="41.22499857687243" y="170.68973318705338" type="line"/>
      <point x="41.22499810720875" y="7.556370453098651"/>
      <point x="144.51238403987105" y="-4.999999999999996"/>
      <point x="181.225" y="-5.0" type="curve"/>
      <point x="181.2249984741211" y="805" type="line"/>
      <point x="144.51238251399212" y="805.0"/>
      <point x="41.22500036691236" y="792.4436300689365"/>
      <point x="41.22499989724866" y="629.3102675177422" type="curve"/>
    </contour>
    <contour>
      <point x="223.7717189877863" y="30.690689353336758" type="line"/>
      <point x="223.78148025854554" y="-131.09027360745247"/>
      <point x="333.042356703224" y="-140.0"/>
      <point x="363.725" y="-140.0" type="curve"/>
      <point x="363.7249984741211" y="0" type="line"/>
      <point x="260.8729553222656" y="0" type="line"/>
      <point x="360.0698278498144" y="27.255059411169224"/>
      <point x="363.7250000393679" y="121.32595747758262"/>
      <point x="363.7249998972487" y="170.68973236893902" type="curve"/>
      <point x="363.72499857687245" y="629.3102673349817" type="line"/>
      <point x="363.7249981072087" y="792.4436300689365"/>
      <point x="260.43761596012894" y="805.0"/>
      <point x="223.725" y="805.0" type="curve"/>
    </contour>
  </outline>
</glyph>
<glyph name="S" format="2">
  <advance width="404.95"/>
  <unicode hex="0053"/>
  <outline>
    <contour>
      <point x="41.224998760743254" y="505.6897331870534" type="line"/>
      <point x="41.22499745062874" y="342.5563704530987"/>
      <point x="144.51238403987105" y="330.0"/>
      <point x="181.225" y="330.0" type="curve"/>
      <point x="181.2249984741211" y="800" type="line"/>
      <point x="144.51238251399212" y="800.0"/>
      <point x="41.22500102349235" y="787.4436300689365"/>
      <point x="41.22499971337785" y="624.3102675177422" type="curve"/>
    </contour>
    <contour>
      <point x="219.35" y="800.0" type="line"/>
      <point x="219.35" y="722.7319"/>
      <point x="282.0819" y="660.0"/>
      <point x="359.35" y="660.0" type="curve"/>
      <point x="359.35" y="800.0" type="line"/>
    </contour>
    <contour>
      <point x="223.7249984741211" y="0" type="line"/>
      <point x="260.43761443425007" y="0.0"/>
      <point x="363.7250010234924" y="12.556371340654607"/>
      <point x="363.7249997133778" y="175.68973389184887" type="curve"/>
      <point x="363.72499876074323" y="294.31026733498175" type="line"/>
      <point x="363.72499745062873" y="457.4436300689365"/>
      <point x="260.43761596012894" y="470.0"/>
      <point x="223.725" y="470.0" type="curve"/>
    </contour>
    <contour>
      <point x="183.4125" y="0" type="line"/>
      <point x="183.4125" y="77.2681"/>
      <point x="120.6806" y="140.0"/>
      <point x="43.4125" y="140.0" type="curve"/>
      <point x="43.4125" y="0" type="line"/>
    </contour>
  </outline>
</glyph>
<glyph name="V" format="2">
  <advance width="404.95"/>
  <unicode hex="0056"/>
  <outline>
    <contour>
      <point x="41.22499855601314" y="170.68973318705338" type="line"/>
      <point x="41.224998181694716" y="7.556370453098651"/>
      <point x="144.51238403987105" y="-4.999999999999996"/>
      <point x="181.225" y="-5.0" type="curve"/>
      <point x="181.22499855601313" y="624.3102673349817" type="line"/>
      <point x="181.2249981816947" y="787.4436300689365"/>
      <point x="77.93761596012897" y="800.0"/>
      <point x="41.225" y="800.0" type="curve"/>
    </contour>
    <contour>
      <point x="223.7249984741211" y="-5" type="line"/>
      <point x="260.43761443425007" y="-5.0"/>
      <point x="363.72500029242644" y="7.556371340654607"/>
      <point x="363.724999918108" y="170.68973389184887" type="curve"/>
      <point x="363.7249984741211" y="800" type="line"/>
      <point x="223.7249984741211" y="800" type="line"/>
    </contour>
  </outline>
</glyph>
<glyph name="X" format="2">
  <advance width="404.95"/>
  <unicode hex="0058"/>
  <outline>
    <contour>
      <point x="41.224998474121094" y="575.6897331870534" type="line"/>
      <point x="41.2249984741211" y="412.5563704530987"/>
      <point x="144.51238403987105" y="400.0"/>
      <point x="181.225" y="400.0" type="curve"/>
      <point x="181.2249984741211" y="800" type="line"/>
      <point x="41.224998474121094" y="800" type="line"/>
    </contour>
    <contour>
      <point x="223.7249984741211" y="400" type="line"/>
      <point x="260.43761443425007" y="400.0"/>
      <point x="363.72500074793675" y="412.55637134065455"/>
      <point x="363.7249997905454" y="575.6897338918488" type="curve"/>
      <point x="363.7249984741211" y="800" type="line"/>
      <point x="223.7249984741211" y="800" type="line"/>
    </contour>
    <contour>
      <point x="41.224998474121094" y="0" type="line"/>
      <point x="181.2249984741211" y="0" type="line"/>
      <point x="181.2249984741211" y="400" type="line"/>
      <point x="144.51238251399212" y="400.0"/>
      <point x="41.22500074793673" y="387.4436300689364"/>
      <point x="41.22499979054535" y="224.31026751774215" type="curve"/>
    </contour>
    <contour>
      <point x="223.7249984741211" y="0" type="line"/>
      <point x="363.7249984741211" y="0" type="line"/>
      <point x="363.7249984741211" y="224.31026733498177" type="line"/>
      <point x="363.7249984741211" y="387.4436300689365"/>
      <point x="260.43761596012894" y="400.0"/>
      <point x="223.725" y="400.0" type="curve"/>
    </contour>
  </outline>
</glyph>
<glyph name="Z" format="2">
  <advance width="404.95"/>
  <unicode hex="005A"/>
  <outline>
    <contour>
      <point x="41.225" y="660.0" type="line"/>
      <point x="118.4931" y="660.0"/>
      <point x="181.225" y="722.7319"/>
      <point x="181.225" y="800.0" type="curve"/>
      <point x="41.225" y="800.0" type="line"/>
    </contour>
    <contour>
      <point x="223.7249984741211" y="330" type="line"/>
      <point x="260.43761443425007" y="330.0"/>
      <point x="363.7250005892835" y="342.55637134065455"/>
      <point x="363.7249998349751" y="505.68973389184885" type="curve"/>
      <point x="363.7249984741211" y="800" type="line"/>
      <point x="223.7249984741211" y="800" type="line"/>
    </contour>
    <contour>
      <point x="41.224998474121094" y="0" type="line"/>
      <point x="181.2249984741211" y="0" type="line"/>
      <point x="181.2249984741211" y="470" type="line"/>
      <point x="144.51238251399212" y="470.0"/>
      <point x="41.22500058928349" y="457.4436300689364"/>
      <point x="41.22499983497512" y="294.31026751774215" type="curve"/>
    </contour>
    <contour>
      <point x="363.725" y="140.0" type="line"/>
      <point x="286.4569" y="140.0"/>
      <point x="223.725" y="77.2681"/>
      <point x="223.725" y="0.0" type="curve"/>
      <point x="363.725" y="0.0" type="line"/>
    </contour>
  </outline>
</glyph>
<glyph name="bracketleft" format="2">
  <advance width="362.45"/>
  <unicode hex="005B"/>
  <outline>
    <contour>
      <point x="41.224998474121094" y="-100" type="line"/>
      <point x="321.2249984741211" y="-100" type="line"/>
      <point x="321.225" y="-22.7319"/>
      <point x="258.4931" y="40.0"/>
      <point x="181.225" y="40.0" type="curve"/>
      <point x="181.2249984741211" y="760" type="line"/>
      <point x="258.4931" y="760.0"/>
      <point x="321.225" y="822.7319"/>
      <point x="321.225" y="900.0" type="curve"/>
      <point x="41.224998474121094" y="900" type="line"/>
    </contour>
  </outline>
</glyph>
<glyph name="backslash" format="2">
  <advance width="435.57105493489354"/>
  <unicode hex="005C"/>
  <outline>
    <contour>
      <point x="219.63839510882192" y="68.22641349656439" type="line"/>
      <point x="254.94691721779787" y="-91.0400371556932"/>
      <point x="358.50367456209216" y="-80.94329500936765"/>
      <point x="394.3460549348936" y="-72.99723058429947" type="curve"/>
      <point x="215.93265720093183" y="731.7735880390406" type="line"/>
      <point x="180.6241346609878" y="891.0400385957549"/>
      <point x="77.06738037280144" y="880.9432950093676"/>
      <point x="41.225" y="872.9972305842995" type="curve"/>
    </contour>
  </outline>
</glyph>
<glyph name="bracketright" format="2">
  <advance width="362.45"/>
  <unicode hex="005D"/>
  <outline>
    <contour>
      <point x="181.2249984741211" y="40" type="line"/>
      <point x="103.95689999999999" y="40.0"/>
      <point x="41.225" y="-22.7319"/>
      <point x="41.225" y="-100.0" type="curve"/>
      <point x="321.2249984741211" y="-100" type="line"/>
      <point x="321.2249984741211" y="900" type="line"/>
      <point x="41.224998474121094" y="900" type="line"/>
      <point x="41.225" y="822.7319"/>
      <point x="103.95689999999999" y="760.0"/>
      <point x="181.225" y="760.0" type="curve"/>
    </contour>
  </outline>
</glyph>
<glyph name="grave" format="2">
  <advance width="222.45"/>
  <unicode hex="0060"/>
  <outline>
    <contour>
      <point x="-20.025" y="940.0" type="line"/>
      <point x="-20.025" y="862.7319"/>
      <point x="42.706900000000005" y="800.0"/>
      <point x="119.975" y="800.0" type="curve"/>
      <point x="119.975" y="940.0" type="line"/>
    </contour>
  </outline>
</glyph>
<glyph name="a" format="2">
  <advance width="404.95"/>
  <unicode hex="0061"/>
  <outline>
    <contour>
      <point x="188.4125" y="530.0" type="curve" smooth="yes"/>
      <point x="188.4125" y="571.39363"/>
      <point x="154.80613" y="605.0"/>
      <point x="113.4125" y="605.0" type="curve" smooth="yes"/>
      <point x="72.01886999999999" y="605.0"/>
      <point x="38.4125" y="571.39363"/>
      <point x="38.4125" y="530.0" type="curve" smooth="yes"/>
      <point x="38.4125" y="488.60637"/>
      <point x="72.01886999999999" y="455.0"/>
      <point x="113.4125" y="455.0" type="curve" smooth="yes"/>
      <point x="154.80613" y="455.0"/>
      <point x="188.4125" y="488.60637"/>
    </contour>
    <contour>
      <point x="223.72499859060926" y="170.68973318705335" type="line"/>
      <point x="223.7249980581563" y="7.556370453098623"/>
      <point x="327.01238403987105" y="-4.999999999999996"/>
      <point x="363.725" y="-5.0" type="curve"/>
      <point x="363.72499859060923" y="426.81026733498175" type="line"/>
      <point x="363.7249980581563" y="589.9436300689365"/>
      <point x="260.43761596012894" y="602.5"/>
      <point x="223.725" y="602.5" type="curve"/>
    </contour>
    <contour>
      <point x="41.22499891867792" y="173.18973318705338" type="line"/>
      <point x="41.22499688666359" y="10.05637045309868"/>
      <point x="144.51238403987105" y="-2.4999999999999956"/>
      <point x="181.225" y="-2.5" type="curve"/>
      <point x="181.2249984741211" y="400" type="line"/>
      <point x="144.51238251399212" y="400.0"/>
      <point x="41.225001587457534" y="387.4436300689364"/>
      <point x="41.22499955544318" y="224.31026751774215" type="curve"/>
    </contour>
  </outline>
</glyph>
<glyph name="d" format="2">
  <advance width="404.95"/>
  <unicode hex="0064"/>
  <outline>
    <contour>
      <point x="223.7249984741211" y="0" type="line"/>
      <point x="363.7249984741211" y="0" type="line"/>
      <point x="363.7249984741211" y="800" type="line"/>
      <point x="223.7249984741211" y="800" type="line"/>
    </contour>
    <contour>
      <point x="41.22499864168482" y="175.68973318705338" type="line"/>
      <point x="41.224997875771706" y="12.556370453098651"/>
      <point x="144.51238403987105" y="4.4959987623897964e-15"/>
      <point x="181.225" y="0.0" type="curve"/>
      <point x="181.2249984741211" y="605" type="line"/>
      <point x="144.51238251399212" y="605.0"/>
      <point x="41.225000598349375" y="592.4436300689364"/>
      <point x="41.22499983243628" y="429.31026751774215" type="curve"/>
    </contour>
  </outline>
</glyph>
<glyph name="f" format="2">
  <advance width="404.95"/>
  <unicode hex="0066"/>
  <outline>
    <contour>
      <point x="41.224998474121094" y="0" type="line"/>
      <point x="181.2249984741211" y="0" type="line"/>
      <point x="181.2249984741211" y="800" type="line"/>
      <point x="144.51238251399212" y="800.0"/>
      <point x="41.225000294641745" y="787.4436300689365"/>
      <point x="41.22499991748756" y="624.3102675177422" type="curve"/>
    </contour>
    <contour>
      <point x="223.725" y="800.0" type="line"/>
      <point x="223.725" y="722.7319"/>
      <point x="286.4569" y="660.0"/>
      <point x="363.725" y="660.0" type="curve"/>
      <point x="363.725" y="800.0" type="line"/>
    </contour>
    <contour>
      <point x="223.725" y="587.5" type="line"/>
      <point x="223.725" y="510.2319"/>
      <point x="286.4569" y="447.5"/>
      <point x="363.725" y="447.5" type="curve"/>
      <point x="363.725" y="587.5" type="line"/>
    </contour>
  </outline>
</glyph>
<glyph name="g" format="2">
  <advance width="404.95"/>
  <unicode hex="0067"/>
  <outline>
    <contour>
      <point x="41.22499864430301" y="175.68973318705338" type="line"/>
      <point x="41.224997866422505" y="12.556370453098651"/>
      <point x="144.51238403987105" y="4.4959987623897964e-15"/>
      <point x="181.225" y="0.0" type="curve"/>
      <point x="181.2249984741211" y="600" type="line"/>
      <point x="144.51238251399212" y="600.0"/>
      <point x="41.225000607698576" y="587.4436300689364"/>
      <point x="41.224999829818096" y="424.31026751774215" type="curve"/>
    </contour>
    <contour>
      <point x="223.7249984741211" y="-210" type="line"/>
      <point x="260.43761443425007" y="-210.0"/>
      <point x="363.7250002902441" y="-197.4436286593454"/>
      <point x="363.7249999187191" y="-34.310266108151126" type="curve"/>
      <point x="363.7249984741211" y="600" type="line"/>
      <point x="223.7249984741211" y="600" type="line"/>
    </contour>
    <contour>
      <point x="185.6" y="-140.0" type="curve" smooth="yes"/>
      <point x="185.6" y="-101.36595"/>
      <point x="154.23405" y="-70.0"/>
      <point x="115.6" y="-70.0" type="curve" smooth="yes"/>
      <point x="76.96594999999999" y="-70.0"/>
      <point x="45.6" y="-101.36595"/>
      <point x="45.6" y="-140.0" type="curve" smooth="yes"/>
      <point x="45.6" y="-178.63405"/>
      <point x="76.96594999999999" y="-210.0"/>
      <point x="115.6" y="-210.0" type="curve" smooth="yes"/>
      <point x="154.23405" y="-210.0"/>
      <point x="185.6" y="-178.63405"/>
    </contour>
  </outline>
</glyph>
<glyph name="h" format="2">
  <advance width="404.95"/>
  <unicode hex="0068"/>
  <outline>
    <contour>
      <point x="41.224998474121094" y="0" type="line"/>
      <point x="181.2249984741211" y="0" type="line"/>
      <point x="181.2249984741211" y="800" type="line"/>
      <point x="41.224998474121094" y="800" type="line"/>
    </contour>
    <contour>
      <point x="223.7249984741211" y="0" type="line"/>
      <point x="363.7249984741211" y="0" type="line"/>
      <point x="363.7249984741211" y="429.31026733498175" type="line"/>
      <point x="363.7249984741211" y="592.4436300689365"/>
      <point x="260.43761596012894" y="605.0"/>
      <point x="223.725" y="605.0" type="curve"/>
    </contour>
  </outline>
</glyph>
<glyph name="j" format="2">
  <advance width="404.95"/>
  <unicode hex="006A"/>
  <outline>
    <contour>
      <point x="368.725" y="711.66667" type="curve" smooth="yes"/>
      <point x="368.725" y="753.0603"/>
      <point x="335.11863" y="786.66667"/>
      <point x="293.725" y="786.66667" type="curve" smooth="yes"/>
      <point x="252.33137" y="786.66667"/>
      <point x="218.725" y="753.0603"/>
      <point x="218.725" y="711.66667" type="curve" smooth="yes"/>
      <point x="218.725" y="670.27304"/>
      <point x="252.33137" y="636.66667"/>
      <point x="293.725" y="636.66667" type="curve" smooth="yes"/>
      <point x="335.11863" y="636.66667"/>
      <point x="368.725" y="670.27304"/>
    </contour>
    <contour>
      <point x="223.7249984741211" y="-210" type="line"/>
      <point x="260.43761443425007" y="-210.0"/>
      <point x="363.7250002902441" y="-197.4436286593454"/>
      <point x="363.7249999187191" y="-34.310266108151126" type="curve"/>
      <point x="363.7249984741211" y="600" type="line"/>
      <point x="223.7249984741211" y="600" type="line"/>
    </contour>
    <contour>
      <point x="185.6" y="-140.0" type="curve" smooth="yes"/>
      <point x="185.6" y="-101.36595"/>
      <point x="154.23405" y="-70.0"/>
      <point x="115.6" y="-70.0" type="curve" smooth="yes"/>
      <point x="76.96594999999999" y="-70.0"/>
      <point x="45.6" y="-101.36595"/>
      <point x="45.6" y="-140.0" type="curve" smooth="yes"/>
      <point x="45.6" y="-178.63405"/>
      <point x="76.96594999999999" y="-210.0"/>
      <point x="115.6" y="-210.0" type="curve" smooth="yes"/>
      <point x="154.23405" y="-210.0"/>
      <point x="185.6" y="-178.63405"/>
    </contour>
  </outline>
</glyph>
<glyph name="m" format="2">
  <advance width="587.45"/>
  <unicode hex="006D"/>
  <outline>
    <contour>
      <point x="41.224998474121094" y="0" type="line"/>
      <point x="181.2249984741211" y="0" type="line"/>
      <point x="181.2249984741211" y="600" type="line"/>
      <point x="41.224998474121094" y="600" type="line"/>
    </contour>
    <contour>
      <point x="223.7249984741211" y="0" type="line"/>
      <point x="363.7249984741211" y="0" type="line"/>
      <point x="363.7249984741211" y="600" type="line"/>
      <point x="223.7249984741211" y="600" type="line"/>
    </contour>
    <contour>
      <point x="406.2249984741211" y="0" type="line"/>
      <point x="546.2249984741211" y="0" type="line"/>
      <point x="546.2249984741211" y="424.3102673349818" type="line"/>
      <point x="546.2249984741211" y="587.4436300689365"/>
      <point x="442.937615960129" y="600.0"/>
      <point x="406.225" y="600.0" type="curve"/>
    </contour>
  </outline>
</glyph>
<glyph name="n" format="2">
  <advance width="404.95"/>
  <unicode hex="006E"/>
  <outline>
    <contour>
      <point x="41.224998474121094" y="0" type="line"/>
      <point x="181.2249984741211" y="0" type="line"/>
      <point x="181.2249984741211" y="600" type="line"/>
      <point x="41.224998474121094" y="600" type="line"/>
    </contour>
    <contour>
      <point x="223.7249984741211" y="0" type="line"/>
      <point x="363.7249984741211" y="0" type="line"/>
      <point x="363.7249984741211" y="424.31026733498175" type="line"/>
      <point x="363.7249984741211" y="587.4436300689365"/>
      <point x="260.43761596012894" y="600.0"/>
      <point x="223.725" y="600.0" type="curve"/>
    </contour>
  </outline>
</glyph>
<glyph name="p" format="2">
  <advance width="404.95"/>
  <unicode hex="0070"/>
  <outline>
    <contour>
      <point x="41.224998474121094" y="-200" type="line"/>
      <point x="181.2249984741211" y="-200" type="line"/>
      <point x="181.2249984741211" y="600" type="line"/>
      <point x="41.224998474121094" y="600" type="line"/>
    </contour>
    <contour>
      <point x="223.7249984741211" y="0" type="line"/>
      <point x="260.43761443425007" y="0.0"/>
      <point x="363.72500060769863" y="12.556371340654607"/>
      <point x="363.7249998298181" y="175.68973389184887" type="curve"/>
      <point x="363.724998644303" y="424.31026733498175" type="line"/>
      <point x="363.7249978664225" y="587.4436300689365"/>
      <point x="260.43761596012894" y="600.0"/>
      <point x="223.725" y="600.0" type="curve"/>
    </contour>
  </outline>
</glyph>
<glyph name="t" format="2">
  <advance width="404.95"/>
  <unicode hex="0074"/>
  <outline>
    <contour>
      <point x="41.224998474121094" y="0" type="line"/>
      <point x="181.2249984741211" y="0" type="line"/>
      <point x="181.2249984741211" y="800" type="line"/>
      <point x="144.51238251399212" y="800.0"/>
      <point x="41.225000294641745" y="787.4436300689365"/>
      <point x="41.22499991748756" y="624.3102675177422" type="curve"/>
    </contour>
    <contour>
      <point x="223.725" y="460.0" type="line"/>
      <point x="300.9931" y="460.0"/>
      <point x="363.725" y="522.7319"/>
      <point x="363.725" y="600.0" type="curve"/>
      <point x="223.725" y="600.0" type="line"/>
    </contour>
  </outline>
</glyph>
<glyph name="u" format="2">
  <advance width="404.95"/>
  <unicode hex="0075"/>
  <outline>
    <contour>
      <point x="41.224998474121094" y="170.68973318705338" type="line"/>
      <point x="41.2249984741211" y="7.556370453098651"/>
      <point x="144.51238403987105" y="-4.999999999999996"/>
      <point x="181.225" y="-5.0" type="curve"/>
      <point x="181.2249984741211" y="600" type="line"/>
      <point x="41.224998474121094" y="600" type="line"/>
    </contour>
    <contour>
      <point x="223.7249984741211" y="-5" type="line"/>
      <point x="260.43761443425007" y="-5.0"/>
      <point x="363.7250004182012" y="7.556371340654607"/>
      <point x="363.7249998828856" y="170.68973389184887" type="curve"/>
      <point x="363.7249984741211" y="600" type="line"/>
      <point x="223.7249984741211" y="600" type="line"/>
    </contour>
  </outline>
</glyph>
<glyph name="v" format="2">
  <advance width="404.95"/>
  <unicode hex="0076"/>
  <outline>
    <contour>
      <point x="41.22499858998963" y="170.68973318705338" type="line"/>
      <point x="41.224998060368854" y="7.556370453098651"/>
      <point x="144.51238403987105" y="-4.999999999999996"/>
      <point x="181.225" y="-5.0" type="curve"/>
      <point x="181.2249985899896" y="429.3102673349818" type="line"/>
      <point x="181.22499806036888" y="592.4436300689365"/>
      <point x="77.93761596012897" y="605.0"/>
      <point x="41.225" y="605.0" type="curve"/>
    </contour>
    <contour>
      <point x="223.7249984741211" y="-5" type="line"/>
      <point x="260.43761443425007" y="-5.0"/>
      <point x="363.7250004182012" y="7.556371340654607"/>
      <point x="363.7249998828856" y="170.68973389184887" type="curve"/>
      <point x="363.7249984741211" y="600" type="line"/>
      <point x="223.7249984741211" y="600" type="line"/>
    </contour>
  </outline>
</glyph>
<glyph name="x" format="2">
  <advance width="404.95"/>
  <unicode hex="0078"/>
  <outline>
    <contour>
      <point x="41.224998474121094" y="475.6897331870534" type="line"/>
      <point x="41.2249984741211" y="312.5563704530987"/>
      <point x="144.51238403987105" y="300.0"/>
      <point x="181.225" y="300.0" type="curve"/>
      <point x="181.2249984741211" y="600" type="line"/>
      <point x="41.224998474121094" y="600" type="line"/>
    </contour>
    <contour>
      <point x="223.7249984741211" y="300" type="line"/>
      <point x="260.43761443425007" y="300.0"/>
      <point x="363.7250012153972" y="312.55637134065455"/>
      <point x="363.7249996596362" y="475.68973389184885" type="curve"/>
      <point x="363.7249984741211" y="600" type="line"/>
      <point x="223.7249984741211" y="600" type="line"/>
    </contour>
    <contour>
      <point x="41.224998474121094" y="0" type="line"/>
      <point x="181.2249984741211" y="0" type="line"/>
      <point x="181.2249984741211" y="300" type="line"/>
      <point x="144.51238251399212" y="300.0"/>
      <point x="41.22500121539718" y="287.4436300689364"/>
      <point x="41.22499965963619" y="124.31026751774215" type="curve"/>
    </contour>
    <contour>
      <point x="223.7249984741211" y="0" type="line"/>
      <point x="363.7249984741211" y="0" type="line"/>
      <point x="363.7249984741211" y="124.31026733498177" type="line"/>
      <point x="363.7249984741211" y="287.4436300689365"/>
      <point x="260.43761596012894" y="300.0"/>
      <point x="223.725" y="300.0" type="curve"/>
    </contour>
  </outline>
</glyph>
<glyph name="z" format="2">
  <advance width="404.95"/>
  <unicode hex="007A"/>
  <outline>
    <contour>
      <point x="41.225" y="460.0" type="line"/>
      <point x="118.4931" y="460.0"/>
      <point x="181.225" y="522.7319"/>
      <point x="181.225" y="600.0" type="curve"/>
      <point x="41.225" y="600.0" type="line"/>
    </contour>
    <contour>
      <point x="223.7249984741211" y="230" type="line"/>
      <point x="260.43761443425007" y="230.0"/>
      <point x="363.72500084549375" y="242.55637134065458"/>
      <point x="363.7249997632252" y="405.68973389184885" type="curve"/>
      <point x="363.7249984741211" y="600" type="line"/>
      <point x="223.7249984741211" y="600" type="line"/>
    </contour>
    <contour>
      <point x="41.224998474121094" y="0" type="line"/>
      <point x="181.2249984741211" y="0" type="line"/>
      <point x="181.2249984741211" y="370" type="line"/>
      <point x="144.51238251399212" y="370.0"/>
      <point x="41.22500084549368" y="357.4436300689364"/>
      <point x="41.22499976322518" y="194.31026751774215" type="curve"/>
    </contour>
    <contour>
      <point x="363.725" y="140.0" type="line"/>
      <point x="286.4569" y="140.0"/>
      <point x="223.725" y="77.2681"/>
      <point x="223.725" y="0.0" type="curve"/>
      <point x="363.725" y="0.0" type="line"/>
    </contour>
  </outline>
</glyph>
<glyph name="braceright" format="2">
  <advance width="222.45"/>
  <unicode hex="007D"/>
  <outline>
    <contour>
      <point x="41.2249986253939" y="575.6897331870534" type="line"/>
      <point x="41.22499793394457" y="412.5563704530987"/>
      <point x="144.51238403987105" y="400.0"/>
      <point x="181.225" y="400.0" type="curve"/>
      <point x="181.2249986253939" y="724.3102673349817" type="line"/>
      <point x="181.22499793394456" y="887.4436300689365"/>
      <point x="77.93761596012897" y="900.0"/>
      <point x="41.225" y="900.0" type="curve"/>
    </contour>
    <contour>
      <point x="41.224998474121094" y="-100" type="line"/>
      <point x="77.93761443425008" y="-100.0"/>
      <point x="181.2250005401765" y="-87.4436286593454"/>
      <point x="181.22499984872718" y="75.68973389184886" type="curve"/>
      <point x="181.2249984741211" y="400" type="line"/>
      <point x="144.51238251399212" y="400.0"/>
      <point x="41.22500054017652" y="387.4436300689364"/>
      <point x="41.2249998487272" y="224.31026751774215" type="curve"/>
    </contour>
  </outline>
</glyph>
<glyph name="tilde" format="2">
  <advance width="404.95"/>
  <unicode hex="007E"/>
  <outline>
    <contour>
      <point x="188.0352645822722" y="330.0" type="line"/>
      <point x="351.1686273162269" y="330.0"/>
      <point x="363.725" y="433.28738403987103"/>
      <point x="363.725" y="470.0" type="curve"/>
      <point x="216.91473095637892" y="470.0" type="line"/>
      <point x="53.78136822242419" y="470.0"/>
      <point x="41.225" y="366.71261596012897"/>
      <point x="41.225" y="330.0" type="curve"/>
    </contour>
  </outline>
</glyph>
<glyph name="invexclamation" format="2">
  <advance width="222.45"/>
  <unicode hex="00A1"/>
  <outline>
    <contour>
      <point x="186.225" y="536.25" type="curve" smooth="yes"/>
      <point x="186.225" y="577.64363"/>
      <point x="152.61863" y="611.25"/>
      <point x="111.225" y="611.25" type="curve" smooth="yes"/>
      <point x="69.83136999999999" y="611.25"/>
      <point x="36.225" y="577.64363"/>
      <point x="36.225" y="536.25" type="curve" smooth="yes"/>
      <point x="36.225" y="494.85637"/>
      <point x="69.83136999999999" y="461.25"/>
      <point x="111.225" y="461.25" type="curve" smooth="yes"/>
      <point x="152.61863" y="461.25"/>
      <point x="186.225" y="494.85637"/>
    </contour>
    <contour>
      <point x="41.224998474121094" y="-200" type="line"/>
      <point x="181.2249984741211" y="-200" type="line"/>
      <point x="181.2249984741211" y="400" type="line"/>
      <point x="41.224998474121094" y="400" type="line"/>
    </contour>
  </outline>
</glyph>
<glyph name="cent" format="2">
  <advance width="404.95"/>
  <unicode hex="00A2"/>
  <outline>
    <contour>
      <point x="111.2249984741211" y="0" type="line"/>
      <point x="181.2249984741211" y="0" type="line"/>
      <point x="181.2249984741211" y="600" type="line"/>
      <point x="111.2249984741211" y="600" type="line"/>
      <point x="111.2249984741211" y="481.22127532958984" type="line"/>
      <point x="43.1187414657543" y="441.8276175754379"/>
      <point x="41.22500023238017" y="378.27512236443175"/>
      <point x="41.224999546181564" y="324.31026756549164" type="curve"/>
      <point x="41.224998927939524" y="275.6897342246476" type="line"/>
      <point x="41.22499824172119" y="221.7233273449358"/>
      <point x="43.11816220086624" y="158.17579375275"/>
      <point x="111.2249984741211" y="118.7738265991211" type="curve"/>
    </contour>
    <contour>
      <point x="223.7249984741211" y="535.6897331870533" type="line"/>
      <point x="223.7249984741211" y="372.55637045309857"/>
      <point x="327.01238403987105" y="360.0"/>
      <point x="363.725" y="360.0" type="curve"/>
      <point x="363.7249984741211" y="500" type="line"/>
      <point x="293.7249984741211" y="500" type="line"/>
      <point x="293.7249984741211" y="600" type="line"/>
      <point x="223.7249984741211" y="600" type="line"/>
    </contour>
    <contour>
      <point x="223.7249984741211" y="0" type="line"/>
      <point x="293.7249984741211" y="0" type="line"/>
      <point x="293.7249984741211" y="100" type="line"/>
      <point x="363.7249984741211" y="100" type="line"/>
      <point x="363.7249984741211" y="240" type="line"/>
      <point x="327.0123825139921" y="240.0"/>
      <point x="223.72500194463547" y="227.44363006893641"/>
      <point x="223.7249994554179" y="64.31026751774218" type="curve"/>
    </contour>
  </outline>
</glyph>
<glyph name="pound" format="2">
  <advance width="522.45"/>
  <unicode hex="00A3"/>
  <outline>
    <contour>
      <point x="153.7249984741211" y="0" type="line"/>
      <point x="293.7249984741211" y="0" type="line"/>
      <point x="293.7249984741211" y="805" type="line"/>
      <point x="257.0123825139921" y="805.0"/>
      <point x="153.7250002924264" y="792.4436300689365"/>
      <point x="153.72499991810795" y="629.3102675177422" type="curve"/>
    </contour>
    <contour>
      <point x="481.225" y="730.0" type="curve" smooth="yes"/>
      <point x="481.225" y="771.39363"/>
      <point x="447.61863" y="805.0"/>
      <point x="406.225" y="805.0" type="curve" smooth="yes"/>
      <point x="364.83137000000005" y="805.0"/>
      <point x="331.225" y="771.39363"/>
      <point x="331.225" y="730.0" type="curve" smooth="yes"/>
      <point x="331.225" y="688.60637"/>
      <point x="364.83137000000005" y="655.0"/>
      <point x="406.225" y="655.0" type="curve" smooth="yes"/>
      <point x="447.61863" y="655.0"/>
      <point x="481.225" y="688.60637"/>
    </contour>
    <contour>
      <point x="41.225" y="365.0" type="line"/>
      <point x="111.225" y="365.0" type="line"/>
      <point x="111.225" y="435.0" type="line"/>
      <point x="41.225" y="435.0" type="line"/>
    </contour>
    <contour>
      <point x="336.2249984741211" y="365" type="line"/>
      <point x="441.2249984741211" y="365" type="line"/>
      <point x="441.2249984741211" y="435" type="line"/>
      <point x="336.2249984741211" y="435" type="line"/>
    </contour>
    <contour>
      <point x="476.225" y="140.0" type="line"/>
      <point x="398.9569" y="140.0"/>
      <point x="336.225" y="77.2681"/>
      <point x="336.225" y="0.0" type="curve"/>
      <point x="476.225" y="0.0" type="line"/>
    </contour>
    <contour>
      <point x="41.225" y="0" type="line"/>
      <point x="111.225" y="0" type="line"/>
      <point x="111.225" y="70.0" type="line"/>
      <point x="41.225" y="70.0" type="line"/>
    </contour>
  </outline>
</glyph>
<glyph name="currency" format="2">
  <advance width="404.95"/>
  <unicode hex="00A4"/>
  <outline>
    <contour>
      <point x="41.224998474121094" y="215" type="line"/>
      <point x="111.2249984741211" y="215" type="line"/>
      <point x="111.2249984741211" y="248.7738265991211" type="line"/>
      <point x="131.82220682390113" y="236.82831624677945"/>
      <point x="155.73247664369998" y="230.00000000000003"/>
      <point x="181.225" y="230.00000000000003" type="curve"/>
      <point x="181.2249984741211" y="570" type="line"/>
      <point x="155.7324766437" y="570.0"/>
      <point x="131.82220682390113" y="563.1716837532206"/>
      <point x="111.2249984741211" y="551.2212753295898" type="curve"/>
      <point x="111.2249984741211" y="585" type="line"/>
      <point x="41.224998474121094" y="585" type="line"/>
      <point x="41.224998474121094" y="515" type="line"/>
      <point x="70.03099060058594" y="515" type="line"/>
      <point x="41.22499981962173" y="477.45571783110165"/>
      <point x="41.22500014945693" y="435.87688587734755"/>
      <point x="41.22499909236317" y="394.31026789598184" type="curve"/>
      <point x="41.224998965206595" y="389.31026789598184" type="line"/>
      <point x="41.224998110147396" y="355.6879715511133"/>
      <point x="41.80910808226029" y="321.80025937800383"/>
      <point x="70.02033996582031" y="285" type="curve"/>
      <point x="41.224998474121094" y="285" type="line"/>
    </contour>
    <contour>
      <point x="223.7249984741211" y="230" type="line"/>
      <point x="249.2175233563" y="230.0"/>
      <point x="273.12779317609886" y="236.82831624677942"/>
      <point x="293.7249984741211" y="248.77871704101562" type="curve"/>
      <point x="293.7249984741211" y="215" type="line"/>
      <point x="363.7249984741211" y="215" type="line"/>
      <point x="363.7249984741211" y="285" type="line"/>
      <point x="334.91900634765625" y="285" type="line"/>
      <point x="363.72500019154563" y="322.5442798188573"/>
      <point x="363.7250001494569" y="364.12311412265234"/>
      <point x="363.72499909236313" y="405.68973254882576" type="curve"/>
      <point x="363.72499896520657" y="410.68973254882576" type="line"/>
      <point x="363.7249981101474" y="444.3120284488867"/>
      <point x="363.1408919914175" y="478.19973716924295"/>
      <point x="334.9296646118164" y="515" type="curve"/>
      <point x="363.7249984741211" y="515" type="line"/>
      <point x="363.7249984741211" y="585" type="line"/>
      <point x="293.7249984741211" y="585" type="line"/>
      <point x="293.7249984741211" y="551.2261734008789" type="line"/>
      <point x="273.12779317609886" y="563.1716837532206"/>
      <point x="249.21752335629998" y="570.0"/>
      <point x="223.725" y="569.9999999999999" type="curve"/>
    </contour>
  </outline>
</glyph>
<glyph name="yen" format="2">
  <advance width="629.95"/>
  <unicode hex="00A5"/>
  <outline>
    <contour>
      <point x="153.72499859123553" y="375.6897331870534" type="line"/>
      <point x="153.72499805591994" y="212.55637045309865"/>
      <point x="257.01238403987105" y="200.0"/>
      <point x="293.725" y="200.0" type="curve"/>
      <point x="293.72499859123553" y="629.3102673349817" type="line"/>
      <point x="293.7249980559199" y="792.4436300689365"/>
      <point x="190.43761596012894" y="805.0"/>
      <point x="153.725" y="805.0" type="curve"/>
    </contour>
    <contour>
      <point x="336.2249984741211" y="-5" type="line"/>
      <point x="372.93761443425007" y="-5.0"/>
      <point x="476.22500029242644" y="7.556371340654607"/>
      <point x="476.224999918108" y="170.68973389184887" type="curve"/>
      <point x="476.2249984741211" y="800" type="line"/>
      <point x="336.2249984741211" y="800" type="line"/>
    </contour>
    <contour>
      <point x="41.225" y="540.0" type="line"/>
      <point x="111.225" y="540.0" type="line"/>
      <point x="111.225" y="610.0" type="line"/>
      <point x="41.225" y="610.0" type="line"/>
    </contour>
    <contour>
      <point x="518.725" y="540.0" type="line"/>
      <point x="588.725" y="540.0" type="line"/>
      <point x="588.725" y="610.0" type="line"/>
      <point x="518.725" y="610.0" type="line"/>
    </contour>
    <contour>
      <point x="41.225" y="390.0" type="line"/>
      <point x="111.225" y="390.0" type="line"/>
      <point x="111.225" y="460.0" type="line"/>
      <point x="41.225" y="460.0" type="line"/>
    </contour>
    <contour>
      <point x="518.725" y="390.0" type="line"/>
      <point x="588.725" y="390.0" type="line"/>
      <point x="588.725" y="460.0" type="line"/>
      <point x="518.725" y="460.0" type="line"/>
    </contour>
  </outline>
</glyph>
<glyph name="section" format="2">
  <advance width="404.95"/>
  <unicode hex="00A7"/>
  <outline>
    <contour>
      <point x="41.22499892793952" y="275.6897331870534" type="line"/>
      <point x="41.224996853591534" y="112.55637045309868"/>
      <point x="144.51238403987105" y="100.0"/>
      <point x="181.225" y="100.0" type="curve"/>
      <point x="181.2249984741211" y="800" type="line"/>
      <point x="144.51238251399212" y="800.0"/>
      <point x="41.22500216070608" y="787.4436300689365"/>
      <point x="41.22499939490878" y="624.3102675177422" type="curve"/>
      <point x="41.22499907921235" y="605.6897348356849" type="line"/>
      <point x="41.22499825893366" y="557.3077286286746"/>
      <point x="41.22500051942803" y="506.8225432751873"/>
      <point x="88.68144989013672" y="465.0139923095703" type="curve"/>
      <point x="41.225000038971174" y="423.15979292968416"/>
      <point x="41.2250001614355" y="372.6958049322087"/>
      <point x="41.22499954618158" y="324.310267471733" type="curve"/>
    </contour>
    <contour>
      <point x="223.725" y="800.0" type="line"/>
      <point x="223.725" y="722.7319"/>
      <point x="286.4569" y="660.0"/>
      <point x="363.725" y="660.0" type="curve"/>
      <point x="363.725" y="800.0" type="line"/>
    </contour>
    <contour>
      <point x="223.7249984741211" y="-200" type="line"/>
      <point x="260.43761443425007" y="-200.0"/>
      <point x="363.7250021607061" y="-187.44362865934536"/>
      <point x="363.72499939490876" y="-24.310266108151133" type="curve"/>
      <point x="363.7249990792123" y="-5.689730235301049" type="line"/>
      <point x="363.7249982589337" y="42.69227137132542"/>
      <point x="363.72499860409323" y="93.1774591939494"/>
      <point x="316.26854705810547" y="134.9860076904297" type="curve"/>
      <point x="363.72499908722347" y="176.84020460084088"/>
      <point x="363.7250001614356" y="227.30419506779123"/>
      <point x="363.72499954618166" y="275.6897325443859" type="curve"/>
      <point x="363.72499892793957" y="324.31026733498175" type="line"/>
      <point x="363.7249968535914" y="487.44363006893644"/>
      <point x="260.43761596012894" y="500.0"/>
      <point x="223.725" y="500.0" type="curve"/>
    </contour>
    <contour>
      <point x="181.225" y="-200" type="line"/>
      <point x="181.225" y="-122.7319"/>
      <point x="118.4931" y="-60.0"/>
      <point x="41.225" y="-60.0" type="curve"/>
      <point x="41.225" y="-200" type="line"/>
    </contour>
  </outline>
</glyph>
<glyph name="diaeresis" format="2">
  <advance width="404.95"/>
  <unicode hex="00A8"/>
  <outline>
    <contour>
      <point x="186.225" y="870.0" type="curve" smooth="yes"/>
      <point x="186.225" y="911.39363"/>
      <point x="152.61863" y="945.0"/>
      <point x="111.225" y="945.0" type="curve" smooth="yes"/>
      <point x="69.83136999999999" y="945.0"/>
      <point x="36.225" y="911.39363"/>
      <point x="36.225" y="870.0" type="curve" smooth="yes"/>
      <point x="36.225" y="828.60637"/>
      <point x="69.83136999999999" y="795.0"/>
      <point x="111.225" y="795.0" type="curve" smooth="yes"/>
      <point x="152.61863" y="795.0"/>
      <point x="186.225" y="828.60637"/>
    </contour>
    <contour>
      <point x="368.725" y="870.0" type="curve" smooth="yes"/>
      <point x="368.725" y="911.39363"/>
      <point x="335.11863" y="945.0"/>
      <point x="293.725" y="945.0" type="curve" smooth="yes"/>
      <point x="252.33137" y="945.0"/>
      <point x="218.725" y="911.39363"/>
      <point x="218.725" y="870.0" type="curve" smooth="yes"/>
      <point x="218.725" y="828.60637"/>
      <point x="252.33137" y="795.0"/>
      <point x="293.725" y="795.0" type="curve" smooth="yes"/>
      <point x="335.11863" y="795.0"/>
      <point x="368.725" y="828.60637"/>
    </contour>
  </outline>
</glyph>
<glyph name="copyright" format="2">
  <advance width="954.8433400000001"/>
  <unicode hex="00A9"/>
  <outline>
    <contour>
      <point x="843.6183400000001" y="405.0" type="curve" smooth="yes"/>
      <point x="843.6183400000001" y="607.10944"/>
      <point x="679.53111" y="771.19667"/>
      <point x="477.42167000000006" y="771.19667" type="curve" smooth="yes"/>
      <point x="275.31223" y="771.19667"/>
      <point x="111.225" y="607.10944"/>
      <point x="111.225" y="405.0" type="curve" smooth="yes"/>
      <point x="111.225" y="202.89056"/>
      <point x="275.31223" y="38.80333"/>
      <point x="477.42167000000006" y="38.80333" type="curve" smooth="yes"/>
      <point x="679.53111" y="38.80333"/>
      <point x="843.6183400000001" y="202.89056"/>
    </contour>
    <contour>
      <point x="629.9216700000001" y="540.0" type="curve" smooth="yes"/>
      <point x="629.9216700000001" y="501.36595"/>
      <point x="598.5557200000001" y="470.0"/>
      <point x="559.9216700000001" y="470.0" type="curve" smooth="yes"/>
      <point x="521.2876200000001" y="470.0"/>
      <point x="489.92167000000006" y="501.36595"/>
      <point x="489.92167000000006" y="540.0" type="curve" smooth="yes"/>
      <point x="489.92167000000006" y="578.63405"/>
      <point x="521.2876200000001" y="610.0"/>
      <point x="559.9216700000001" y="610.0" type="curve" smooth="yes"/>
      <point x="598.5557200000001" y="610.0"/>
      <point x="629.9216700000001" y="578.63405"/>
    </contour>
    <contour>
      <point x="307.4216697162945" y="375.6897324822578" type="curve"/>
      <point x="307.42166929005316" y="429.31026705877935" type="line"/>
      <point x="307.4216679932704" y="592.4436297927341"/>
      <point x="410.7090540398711" y="605.0"/>
      <point x="447.42167000000006" y="605.0" type="curve"/>
      <point x="447.42166900634766" y="200" type="line"/>
      <point x="410.7090530462187" y="200.0"/>
      <point x="307.42167101307734" y="212.55636993106353"/>
    </contour>
    <contour>
      <point x="627.7341700000001" y="340.0" type="curve"/>
      <point x="627.7341700000001" y="200.0" type="line"/>
      <point x="487.73417000000006" y="200.0" type="line"/>
      <point x="487.73417000000006" y="277.2681"/>
      <point x="550.4660700000001" y="340.0"/>
    </contour>
  </outline>
</glyph>
<glyph name="ordinalfeminine" format="2">
  <advance width="404.95"/>
  <unicode hex="00AA"/>
  <outline>
    <contour>
      <point x="41.22499892793952" y="575.6897331870533" type="line"/>
      <point x="41.224996853591534" y="412.5563704530986"/>
      <point x="144.51238403987105" y="400.0"/>
      <point x="181.225" y="400.0" type="curve"/>
      <point x="181.2249984741211" y="800" type="line"/>
      <point x="144.51238251399212" y="800.0"/>
      <point x="41.22500162052955" y="787.4436300689365"/>
      <point x="41.224999546181586" y="624.3102675177422" type="curve"/>
    </contour>
    <contour>
      <point x="223.7249984741211" y="575.6897331870533" type="line"/>
      <point x="223.7249984741211" y="412.55637045309857"/>
      <point x="327.01238403987105" y="400.0"/>
      <point x="363.725" y="400.0" type="curve"/>
      <point x="363.7249984741211" y="800" type="line"/>
      <point x="223.7249984741211" y="800" type="line"/>
    </contour>
  </outline>
</glyph>
<glyph name="registered" format="2">
  <advance width="954.8433399999999"/>
  <unicode hex="00AE"/>
  <outline>
    <contour>
      <point x="843.61834" y="400.0" type="curve" smooth="yes"/>
      <point x="843.61834" y="602.10944"/>
      <point x="679.53111" y="766.19667"/>
      <point x="477.42167000000006" y="766.19667" type="curve" smooth="yes"/>
      <point x="275.31223" y="766.19667"/>
      <point x="111.225" y="602.10944"/>
      <point x="111.225" y="400.0" type="curve" smooth="yes"/>
      <point x="111.225" y="197.89056"/>
      <point x="275.31223" y="33.80333"/>
      <point x="477.42167000000006" y="33.80333" type="curve" smooth="yes"/>
      <point x="679.53111" y="33.80333"/>
      <point x="843.61834" y="197.89056"/>
    </contour>
    <contour>
      <point x="333.67166900634766" y="200" type="line"/>
      <point x="333.67166900634766" y="600" type="line"/>
      <point x="473.67166900634766" y="600" type="line"/>
      <point x="473.67166900634766" y="200" type="line"/>
    </contour>
    <contour>
      <point x="656.1716700000001" y="530.0" type="curve" smooth="yes"/>
      <point x="656.1716700000001" y="491.36595"/>
      <point x="624.8057200000001" y="460.0"/>
      <point x="586.1716700000001" y="460.0" type="curve" smooth="yes"/>
      <point x="547.5376200000001" y="460.0"/>
      <point x="516.1716700000001" y="491.36595"/>
      <point x="516.1716700000001" y="530.0" type="curve" smooth="yes"/>
      <point x="516.1716700000001" y="568.63405"/>
      <point x="547.5376200000001" y="600.0"/>
      <point x="586.1716700000001" y="600.0" type="curve" smooth="yes"/>
      <point x="624.8057200000001" y="600.0"/>
      <point x="656.1716700000001" y="568.63405"/>
    </contour>
  </outline>
</glyph>
<glyph name="degree" format="2">
  <advance width="274.95"/>
  <unicode hex="00B0"/>
  <outline>
    <contour>
      <point x="116.225" y="805.0" type="line"/>
      <point x="74.83136999999999" y="805.0"/>
      <point x="41.225" y="771.39363"/>
      <point x="41.225" y="730.0" type="curve" smooth="yes"/>
      <point x="41.225" y="688.60637"/>
      <point x="74.83136999999999" y="655.0"/>
      <point x="116.225" y="655.0" type="curve"/>
    </contour>
    <contour>
      <point x="158.725" y="655.0" type="line"/>
      <point x="200.11863" y="655.0"/>
      <point x="233.725" y="688.60637"/>
      <point x="233.725" y="730.0" type="curve" smooth="yes"/>
      <point x="233.725" y="771.39363"/>
      <point x="200.11863" y="805.0"/>
      <point x="158.725" y="805.0" type="curve"/>
    </contour>
  </outline>
</glyph>
<glyph name="sup_two" format="2">
  <advance width="404.95"/>
  <unicode hex="00B2"/>
  <outline>
    <contour>
      <point x="190.6" y="730.0" type="curve" smooth="yes"/>
      <point x="190.6" y="771.39363"/>
      <point x="156.99363" y="805.0"/>
      <point x="115.6" y="805.0" type="curve" smooth="yes"/>
      <point x="74.20636999999999" y="805.0"/>
      <point x="40.6" y="771.39363"/>
      <point x="40.6" y="730.0" type="curve" smooth="yes"/>
      <point x="40.6" y="688.60637"/>
      <point x="74.20636999999999" y="655.0"/>
      <point x="115.6" y="655.0" type="curve" smooth="yes"/>
      <point x="156.99363" y="655.0"/>
      <point x="190.6" y="688.60637"/>
    </contour>
    <contour>
      <point x="223.7249984741211" y="369" type="line"/>
      <point x="260.43761443425007" y="369.0"/>
      <point x="363.72500124656125" y="381.55637134065455"/>
      <point x="363.7249996509089" y="544.6897338918488" type="curve"/>
      <point x="363.72499882321216" y="629.3102673349817" type="line"/>
      <point x="363.72499722755987" y="792.4436300689365"/>
      <point x="260.43761596012894" y="805.0"/>
      <point x="223.725" y="805.0" type="curve"/>
    </contour>
    <contour>
      <point x="41.225" y="200.0" type="curve"/>
      <point x="363.7249984741211" y="200" type="line"/>
      <point x="363.7249984741211" y="340" type="line"/>
      <point x="216.91473095637892" y="340.0" type="line"/>
      <point x="53.78136822242419" y="340.0"/>
      <point x="41.225" y="236.71261596012897"/>
    </contour>
  </outline>
</glyph>
<glyph name="sup_three" format="2">
  <advance width="404.95"/>
  <unicode hex="00B3"/>
  <outline>
    <contour>
      <point x="186.225" y="730.0" type="curve" smooth="yes"/>
      <point x="186.225" y="771.39363"/>
      <point x="152.61863" y="805.0"/>
      <point x="111.225" y="805.0" type="curve" smooth="yes"/>
      <point x="69.83136999999999" y="805.0"/>
      <point x="36.225" y="771.39363"/>
      <point x="36.225" y="730.0" type="curve" smooth="yes"/>
      <point x="36.225" y="688.60637"/>
      <point x="69.83136999999999" y="655.0"/>
      <point x="111.225" y="655.0" type="curve" smooth="yes"/>
      <point x="152.61863" y="655.0"/>
      <point x="186.225" y="688.60637"/>
    </contour>
    <contour>
      <point x="223.7249984741211" y="600" type="line"/>
      <point x="260.43761443425007" y="600.0"/>
      <point x="363.72500324105914" y="612.5563713406547"/>
      <point x="363.72499909236313" y="775.6897338918488" type="curve"/>
      <point x="363.7249984741211" y="800" type="line"/>
      <point x="223.7249984741211" y="800" type="line"/>
    </contour>
    <contour>
      <point x="223.7249984741211" y="195" type="line"/>
      <point x="260.43761443425007" y="195.0"/>
      <point x="363.7250015557084" y="207.5563713406546"/>
      <point x="363.7249995643343" y="370.68973389184885" type="curve"/>
      <point x="363.7249989097868" y="424.31026733498175" type="line"/>
      <point x="363.72499691841267" y="587.4436300689365"/>
      <point x="260.43761596012894" y="600.0"/>
      <point x="223.725" y="600.0" type="curve"/>
    </contour>
    <contour>
      <point x="186.225" y="270.0" type="curve" smooth="yes"/>
      <point x="186.225" y="311.39363"/>
      <point x="152.61863" y="345.0"/>
      <point x="111.225" y="345.0" type="curve" smooth="yes"/>
      <point x="69.83136999999999" y="345.0"/>
      <point x="36.225" y="311.39363"/>
      <point x="36.225" y="270.0" type="curve" smooth="yes"/>
      <point x="36.225" y="228.60637"/>
      <point x="69.83136999999999" y="195.0"/>
      <point x="111.225" y="195.0" type="curve" smooth="yes"/>
      <point x="152.61863" y="195.0"/>
      <point x="186.225" y="228.60637"/>
    </contour>
  </outline>
</glyph>
<glyph name="mu" format="2">
  <advance width="447.45"/>
  <unicode hex="00B5"/>
  <outline>
    <contour>
      <point x="41.224998474121094" y="-200" type="line"/>
      <point x="181.2249984741211" y="-200" type="line"/>
      <point x="181.2249984741211" y="600" type="line"/>
      <point x="41.224998474121094" y="600" type="line"/>
    </contour>
    <contour>
      <point x="223.7249984741211" y="175.68973318705335" type="line"/>
      <point x="223.7249984741211" y="32.254764956706055"/>
      <point x="254.58538364143308" y="1.3365748183368909e-14"/>
      <point x="401.2249984741211" y="-4.5924253099363e-15" type="curve"/>
      <point x="406.2249984741211" y="0" type="line"/>
      <point x="406.2249984741211" y="140" type="line"/>
      <point x="363.7249984741211" y="140" type="line"/>
      <point x="363.7249984741211" y="600" type="line"/>
      <point x="223.7249984741211" y="600" type="line"/>
    </contour>
  </outline>
</glyph>
<glyph name="cedilla" format="2">
  <advance width="222.45"/>
  <unicode hex="00B8"/>
  <outline>
    <contour>
      <point x="242.475" y="-140.0" type="line"/>
      <point x="242.475" y="-62.731899999999996"/>
      <point x="179.7431" y="0.0"/>
      <point x="102.475" y="0.0" type="curve"/>
      <point x="102.475" y="-140.0" type="line"/>
    </contour>
  </outline>
</glyph>
<glyph name="ordinalmasculine" format="2">
  <advance width="404.95"/>
  <unicode hex="00BA"/>
  <outline>
    <contour>
      <point x="41.22499892793952" y="575.6897331870533" type="line"/>
      <point x="41.224996853591534" y="412.5563704530986"/>
      <point x="144.51238403987105" y="400.0"/>
      <point x="181.225" y="400.0" type="curve"/>
      <point x="181.2249984741211" y="800" type="line"/>
      <point x="144.51238251399212" y="800.0"/>
      <point x="41.22500162052955" y="787.4436300689365"/>
      <point x="41.224999546181586" y="624.3102675177422" type="curve"/>
    </contour>
    <contour>
      <point x="223.7249984741211" y="400" type="line"/>
      <point x="260.43761443425007" y="400.0"/>
      <point x="363.7250016205296" y="412.5563713406546"/>
      <point x="363.7249995461816" y="575.6897338918488" type="curve"/>
      <point x="363.7249989279395" y="624.3102673349817" type="line"/>
      <point x="363.72499685359145" y="787.4436300689365"/>
      <point x="260.43761596012894" y="800.0"/>
      <point x="223.725" y="800.0" type="curve"/>
    </contour>
  </outline>
</glyph>
<glyph name="angledblright" format="2">
  <advance width="404.95"/>
  <unicode hex="00BB"/>
  <outline>
    <contour>
      <point x="41.224998474121094" y="260" type="line"/>
      <point x="118.4931" y="260.0"/>
      <point x="181.225" y="322.7319"/>
      <point x="181.225" y="400.0" type="curve"/>
      <point x="181.225" y="477.2681"/>
      <point x="118.4931" y="540.0"/>
      <point x="41.225" y="540.0" type="curve"/>
    </contour>
    <contour>
      <point x="223.7249984741211" y="260" type="line"/>
      <point x="300.9931" y="260.0"/>
      <point x="363.725" y="322.7319"/>
      <point x="363.725" y="400.0" type="curve"/>
      <point x="363.725" y="477.2681"/>
      <point x="300.9931" y="540.0"/>
      <point x="223.725" y="540.0" type="curve"/>
    </contour>
  </outline>
</glyph>
<glyph name="one_over_four" format="2">
  <advance width="769.95"/>
  <unicode hex="00BC"/>
  <outline>
    <contour>
      <point x="19.974998474121094" y="200" type="line"/>
      <point x="159.9749984741211" y="200" type="line"/>
      <point x="159.9749984741211" y="800" type="line"/>
      <point x="19.974998474121094" y="800" type="line"/>
    </contour>
    <contour>
      <point x="223.7249984741211" y="-200" type="line"/>
      <point x="260.43761443425007" y="-200.0"/>
      <point x="363.7250002261204" y="-187.4436286593454"/>
      <point x="363.7249999366765" y="-24.310266108151126" type="curve"/>
      <point x="363.7249984741211" y="800" type="line"/>
      <point x="327.0123825139921" y="800.0"/>
      <point x="223.72500022612041" y="787.4436300689365"/>
      <point x="223.72499993667648" y="624.3102675177422" type="curve"/>
    </contour>
    <contour>
      <point x="427.4749984741211" y="0" type="line"/>
      <point x="464.18761443425007" y="0.0"/>
      <point x="567.4750007479367" y="12.556371340654607"/>
      <point x="567.4749997905453" y="175.68973389184887" type="curve"/>
      <point x="567.4749984741211" y="400" type="line"/>
      <point x="427.4749984741211" y="400" type="line"/>
    </contour>
    <contour>
      <point x="609.9749984741211" y="-200" type="line"/>
      <point x="749.9749984741211" y="-200" type="line"/>
      <point x="749.9749984741211" y="200" type="line"/>
      <point x="609.9749984741211" y="200" type="line"/>
    </contour>
  </outline>
</glyph>
<glyph name="one_over_two" format="2">
  <advance width="769.95"/>
  <unicode hex="00BD"/>
  <outline>
    <contour>
      <point x="19.974998474121094" y="200" type="line"/>
      <point x="159.9749984741211" y="200" type="line"/>
      <point x="159.9749984741211" y="800" type="line"/>
      <point x="19.974998474121094" y="800" type="line"/>
    </contour>
    <contour>
      <point x="223.7249984741211" y="-200" type="line"/>
      <point x="260.43761443425007" y="-200.0"/>
      <point x="363.7250002261204" y="-187.4436286593454"/>
      <point x="363.7249999366765" y="-24.310266108151126" type="curve"/>
      <point x="363.7249984741211" y="800" type="line"/>
      <point x="327.0123825139921" y="800.0"/>
      <point x="223.72500022612041" y="787.4436300689365"/>
      <point x="223.72499993667648" y="624.3102675177422" type="curve"/>
    </contour>
    <contour>
      <point x="576.85" y="330.0" type="curve" smooth="yes"/>
      <point x="576.85" y="371.39363"/>
      <point x="543.2436299999999" y="405.0"/>
      <point x="501.85" y="405.0" type="curve" smooth="yes"/>
      <point x="460.45637000000005" y="405.0"/>
      <point x="426.85" y="371.39363"/>
      <point x="426.85" y="330.0" type="curve" smooth="yes"/>
      <point x="426.85" y="288.60637"/>
      <point x="460.45637000000005" y="255.0"/>
      <point x="501.85" y="255.0" type="curve" smooth="yes"/>
      <point x="543.2436299999999" y="255.0"/>
      <point x="576.85" y="288.60637"/>
    </contour>
    <contour>
      <point x="609.9749984741211" y="-31" type="line"/>
      <point x="646.6876144342501" y="-31.0"/>
      <point x="749.9750012465612" y="-18.443628659345393"/>
      <point x="749.9749996509089" y="144.68973389184887" type="curve"/>
      <point x="749.9749988232122" y="229.3102673349818" type="line"/>
      <point x="749.9749972275599" y="392.4436300689365"/>
      <point x="646.6876159601289" y="405.0"/>
      <point x="609.975" y="405.0" type="curve"/>
    </contour>
    <contour>
      <point x="427.475" y="-200.0" type="curve"/>
      <point x="749.9749984741211" y="-200" type="line"/>
      <point x="749.9749984741211" y="-60" type="line"/>
      <point x="603.1647309563789" y="-60.00000000000001" type="line"/>
      <point x="440.03136822242413" y="-59.999999999999986"/>
      <point x="427.475" y="-163.28738403987103"/>
    </contour>
  </outline>
</glyph>
<glyph name="three_over_four" format="2">
  <advance width="952.45"/>
  <unicode hex="00BE"/>
  <outline>
    <contour>
      <point x="164.975" y="730.0" type="curve" smooth="yes"/>
      <point x="164.975" y="771.39363"/>
      <point x="131.36863" y="805.0"/>
      <point x="89.975" y="805.0" type="curve" smooth="yes"/>
      <point x="48.58137" y="805.0"/>
      <point x="14.975000000000001" y="771.39363"/>
      <point x="14.975000000000001" y="730.0" type="curve" smooth="yes"/>
      <point x="14.975000000000001" y="688.60637"/>
      <point x="48.58137" y="655.0"/>
      <point x="89.975" y="655.0" type="curve" smooth="yes"/>
      <point x="131.36863" y="655.0"/>
      <point x="164.975" y="688.60637"/>
    </contour>
    <contour>
      <point x="202.4749984741211" y="600" type="line"/>
      <point x="239.18761443425007" y="600.0"/>
      <point x="342.47500324105914" y="612.5563713406547"/>
      <point x="342.47499909236313" y="775.6897338918488" type="curve"/>
      <point x="342.4749984741211" y="800" type="line"/>
      <point x="202.4749984741211" y="800" type="line"/>
    </contour>
    <contour>
      <point x="406.2249984741211" y="-200" type="line"/>
      <point x="442.93761443425007" y="-200.0"/>
      <point x="546.2250002261204" y="-187.4436286593454"/>
      <point x="546.2249999366766" y="-24.310266108151126" type="curve"/>
      <point x="546.2249984741211" y="800" type="line"/>
      <point x="509.5123825139921" y="800.0"/>
      <point x="406.2250002261204" y="787.4436300689365"/>
      <point x="406.2249999366765" y="624.3102675177422" type="curve"/>
    </contour>
    <contour>
      <point x="202.4749984741211" y="195" type="line"/>
      <point x="239.18761443425007" y="195.0"/>
      <point x="342.4750015557084" y="207.5563713406546"/>
      <point x="342.4749995643343" y="370.68973389184885" type="curve"/>
      <point x="342.4749989097868" y="424.31026733498175" type="line"/>
      <point x="342.47499691841267" y="587.4436300689365"/>
      <point x="239.18761596012894" y="600.0"/>
      <point x="202.475" y="600.0" type="curve"/>
    </contour>
    <contour>
      <point x="609.9749984741211" y="0" type="line"/>
      <point x="646.6876144342501" y="0.0"/>
      <point x="749.9750007479367" y="12.556371340654607"/>
      <point x="749.9749997905453" y="175.68973389184887" type="curve"/>
      <point x="749.9749984741211" y="400" type="line"/>
      <point x="609.9749984741211" y="400" type="line"/>
    </contour>
    <contour>
      <point x="164.975" y="270.0" type="curve" smooth="yes"/>
      <point x="164.975" y="311.39363"/>
      <point x="131.36863" y="345.0"/>
      <point x="89.975" y="345.0" type="curve" smooth="yes"/>
      <point x="48.58137" y="345.0"/>
      <point x="14.975000000000001" y="311.39363"/>
      <point x="14.975000000000001" y="270.0" type="curve" smooth="yes"/>
      <point x="14.975000000000001" y="228.60637"/>
      <point x="48.58137" y="195.0"/>
      <point x="89.975" y="195.0" type="curve" smooth="yes"/>
      <point x="131.36863" y="195.0"/>
      <point x="164.975" y="228.60637"/>
    </contour>
    <contour>
      <point x="792.4749984741211" y="-200" type="line"/>
      <point x="932.4749984741211" y="-200" type="line"/>
      <point x="932.4749984741211" y="200" type="line"/>
      <point x="792.4749984741211" y="200" type="line"/>
    </contour>
  </outline>
</glyph>
<glyph name="invquestion" format="2">
  <advance width="404.95"/>
  <unicode hex="00BF"/>
  <outline>
    <contour>
      <point x="368.725" y="536.25" type="curve" smooth="yes"/>
      <point x="368.725" y="577.64363"/>
      <point x="335.11863" y="611.25"/>
      <point x="293.725" y="611.25" type="curve" smooth="yes"/>
      <point x="252.33137" y="611.25"/>
      <point x="218.725" y="577.64363"/>
      <point x="218.725" y="536.25" type="curve" smooth="yes"/>
      <point x="218.725" y="494.85637"/>
      <point x="252.33137" y="461.25"/>
      <point x="293.725" y="461.25" type="curve" smooth="yes"/>
      <point x="335.11863" y="461.25"/>
      <point x="368.725" y="494.85637"/>
    </contour>
    <contour>
      <point x="223.7249984741211" y="60" type="line"/>
      <point x="260.43761443425007" y="60.0"/>
      <point x="363.7250009723178" y="72.55637134065461"/>
      <point x="363.72499972770896" y="235.68973389184887" type="curve"/>
      <point x="363.7249984741211" y="400" type="line"/>
      <point x="223.7249984741211" y="400" type="line"/>
    </contour>
    <contour>
      <point x="41.22499892793952" y="-29.31026681294663" type="line"/>
      <point x="41.224996853591534" y="-192.44362954690132"/>
      <point x="144.51238403987105" y="-205.0"/>
      <point x="181.225" y="-205.0" type="curve"/>
      <point x="181.2249984741211" y="195" type="line"/>
      <point x="144.51238251399212" y="195.0"/>
      <point x="41.22500162052955" y="182.4436300689364"/>
      <point x="41.224999546181586" y="19.31026751774216" type="curve"/>
    </contour>
    <contour>
      <point x="368.725" y="-142.5" type="curve" smooth="yes"/>
      <point x="368.725" y="-101.10637"/>
      <point x="335.11863" y="-67.5"/>
      <point x="293.725" y="-67.5" type="curve" smooth="yes"/>
      <point x="252.33137" y="-67.5"/>
      <point x="218.725" y="-101.10637"/>
      <point x="218.725" y="-142.5" type="curve" smooth="yes"/>
      <point x="218.725" y="-183.89363"/>
      <point x="252.33137" y="-217.5"/>
      <point x="293.725" y="-217.5" type="curve" smooth="yes"/>
      <point x="335.11863" y="-217.5"/>
      <point x="368.725" y="-183.89363"/>
    </contour>
  </outline>
</glyph>
<glyph name="A_with_grave" format="2">
  <advance width="404.95"/>
  <unicode hex="00C0"/>
  <outline>
    <contour>
      <point x="71.225" y="981.6666666666666" type="line"/>
      <point x="71.225" y="904.3985666666666"/>
      <point x="133.9569" y="841.6666666666666"/>
      <point x="211.225" y="841.6666666666666" type="curve"/>
      <point x="211.225" y="981.6666666666666" type="line"/>
    </contour>
    <contour>
      <point x="41.224998474121094" y="0" type="line"/>
      <point x="181.2249984741211" y="0" type="line"/>
      <point x="181.2249984741211" y="805" type="line"/>
      <point x="144.51238251399212" y="805.0"/>
      <point x="41.2250002924264" y="792.4436300689365"/>
      <point x="41.224999918107954" y="629.3102675177422" type="curve"/>
    </contour>
    <contour>
      <point x="223.7249984741211" y="0" type="line"/>
      <point x="363.7249984741211" y="0" type="line"/>
      <point x="363.7249984741211" y="629.3102673349817" type="line"/>
      <point x="363.7249984741211" y="792.4436300689365"/>
      <point x="260.43761596012894" y="805.0"/>
      <point x="223.725" y="805.0" type="curve"/>
    </contour>
  </outline>
</glyph>
<glyph name="A_with_circumflex" format="2">
  <advance width="404.95"/>
  <unicode hex="00C2"/>
  <outline>
    <contour>
      <point x="58.099999999999994" y="841.6666666666666" type="line"/>
      <point x="135.3681" y="841.6666666666666"/>
      <point x="198.1" y="904.3985666666666"/>
      <point x="198.1" y="981.6666666666666" type="curve"/>
      <point x="58.099999999999994" y="981.6666666666666" type="line"/>
    </contour>
    <contour>
      <point x="206.85" y="981.6666666666666" type="line"/>
      <point x="206.85" y="904.3985666666666"/>
      <point x="269.5819" y="841.6666666666666"/>
      <point x="346.85" y="841.6666666666666" type="curve"/>
      <point x="346.85" y="981.6666666666666" type="line"/>
    </contour>
    <contour>
      <point x="41.224998474121094" y="0" type="line"/>
      <point x="181.2249984741211" y="0" type="line"/>
      <point x="181.2249984741211" y="805" type="line"/>
      <point x="144.51238251399212" y="805.0"/>
      <point x="41.2250002924264" y="792.4436300689365"/>
      <point x="41.224999918107954" y="629.3102675177422" type="curve"/>
    </contour>
    <contour>
      <point x="223.7249984741211" y="0" type="line"/>
      <point x="363.7249984741211" y="0" type="line"/>
      <point x="363.7249984741211" y="629.3102673349817" type="line"/>
      <point x="363.7249984741211" y="792.4436300689365"/>
      <point x="260.43761596012894" y="805.0"/>
      <point x="223.725" y="805.0" type="curve"/>
    </contour>
  </outline>
</glyph>
<glyph name="A_with_smalltilde" format="2">
  <advance width="404.95"/>
  <unicode hex="00C3"/>
  <outline>
    <contour>
      <point x="166.78526340761294" y="841.6666647718472" type="line"/>
      <point x="329.91862614156764" y="841.6666618084929"/>
      <point x="342.475" y="944.9540507065377"/>
      <point x="342.475" y="981.6666666666666" type="curve"/>
      <point x="238.1647307975977" y="981.6666647718472" type="line"/>
      <point x="75.03136806364301" y="981.666661808493"/>
      <point x="62.474999999999994" y="878.3792826267955"/>
      <point x="62.474999999999994" y="841.6666666666666" type="curve"/>
    </contour>
    <contour>
      <point x="41.224998474121094" y="0" type="line"/>
      <point x="181.2249984741211" y="0" type="line"/>
      <point x="181.2249984741211" y="805" type="line"/>
      <point x="144.51238251399212" y="805.0"/>
      <point x="41.2250002924264" y="792.4436300689365"/>
      <point x="41.224999918107954" y="629.3102675177422" type="curve"/>
    </contour>
    <contour>
      <point x="223.7249984741211" y="0" type="line"/>
      <point x="363.7249984741211" y="0" type="line"/>
      <point x="363.7249984741211" y="629.3102673349817" type="line"/>
      <point x="363.7249984741211" y="792.4436300689365"/>
      <point x="260.43761596012894" y="805.0"/>
      <point x="223.725" y="805.0" type="curve"/>
    </contour>
  </outline>
</glyph>
<glyph name="A_with_diaeresis" format="2">
  <advance width="404.95"/>
  <unicode hex="00C4"/>
  <outline>
    <contour>
      <point x="186.225" y="911.6666666666666" type="curve" smooth="yes"/>
      <point x="186.225" y="953.0602966666667"/>
      <point x="152.61863" y="986.6666666666666"/>
      <point x="111.225" y="986.6666666666666" type="curve" smooth="yes"/>
      <point x="69.83136999999999" y="986.6666666666666"/>
      <point x="36.224999999999994" y="953.0602966666667"/>
      <point x="36.224999999999994" y="911.6666666666666" type="curve" smooth="yes"/>
      <point x="36.224999999999994" y="870.2730366666666"/>
      <point x="69.83136999999999" y="836.6666666666666"/>
      <point x="111.225" y="836.6666666666666" type="curve" smooth="yes"/>
      <point x="152.61863" y="836.6666666666666"/>
      <point x="186.225" y="870.2730366666666"/>
    </contour>
    <contour>
      <point x="368.725" y="911.6666666666666" type="curve" smooth="yes"/>
      <point x="368.725" y="953.0602966666667"/>
      <point x="335.11862999999994" y="986.6666666666666"/>
      <point x="293.725" y="986.6666666666666" type="curve" smooth="yes"/>
      <point x="252.33137" y="986.6666666666666"/>
      <point x="218.725" y="953.0602966666667"/>
      <point x="218.725" y="911.6666666666666" type="curve" smooth="yes"/>
      <point x="218.725" y="870.2730366666666"/>
      <point x="252.33137" y="836.6666666666666"/>
      <point x="293.725" y="836.6666666666666" type="curve" smooth="yes"/>
      <point x="335.11862999999994" y="836.6666666666666"/>
      <point x="368.725" y="870.2730366666666"/>
    </contour>
    <contour>
      <point x="41.224998474121094" y="0" type="line"/>
      <point x="181.2249984741211" y="0" type="line"/>
      <point x="181.2249984741211" y="805" type="line"/>
      <point x="144.51238251399212" y="805.0"/>
      <point x="41.2250002924264" y="792.4436300689365"/>
      <point x="41.224999918107954" y="629.3102675177422" type="curve"/>
    </contour>
    <contour>
      <point x="223.7249984741211" y="0" type="line"/>
      <point x="363.7249984741211" y="0" type="line"/>
      <point x="363.7249984741211" y="629.3102673349817" type="line"/>
      <point x="363.7249984741211" y="792.4436300689365"/>
      <point x="260.43761596012894" y="805.0"/>
      <point x="223.725" y="805.0" type="curve"/>
    </contour>
  </outline>
</glyph>
<glyph name="A_with_ring" format="2">
  <advance width="404.95"/>
  <unicode hex="00C5"/>
  <outline>
    <contour>
      <point x="181.225" y="986.6666666666666" type="line"/>
      <point x="139.83137" y="986.6666666666666"/>
      <point x="106.225" y="953.0602966666667"/>
      <point x="106.225" y="911.6666666666666" type="curve" smooth="yes"/>
      <point x="106.225" y="870.2730366666666"/>
      <point x="139.83137" y="836.6666666666666"/>
      <point x="181.225" y="836.6666666666666" type="curve"/>
    </contour>
    <contour>
      <point x="223.725" y="836.6666666666666" type="line"/>
      <point x="265.11863" y="836.6666666666666"/>
      <point x="298.725" y="870.2730366666666"/>
      <point x="298.725" y="911.6666666666666" type="curve" smooth="yes"/>
      <point x="298.725" y="953.0602966666667"/>
      <point x="265.11863" y="986.6666666666666"/>
      <point x="223.725" y="986.6666666666666" type="curve"/>
    </contour>
    <contour>
      <point x="41.224998474121094" y="0" type="line"/>
      <point x="181.2249984741211" y="0" type="line"/>
      <point x="181.2249984741211" y="805" type="line"/>
      <point x="144.51238251399212" y="805.0"/>
      <point x="41.2250002924264" y="792.4436300689365"/>
      <point x="41.224999918107954" y="629.3102675177422" type="curve"/>
    </contour>
    <contour>
      <point x="223.7249984741211" y="0" type="line"/>
      <point x="363.7249984741211" y="0" type="line"/>
      <point x="363.7249984741211" y="629.3102673349817" type="line"/>
      <point x="363.7249984741211" y="792.4436300689365"/>
      <point x="260.43761596012894" y="805.0"/>
      <point x="223.725" y="805.0" type="curve"/>
    </contour>
  </outline>
</glyph>
<glyph name="AE" format="2">
  <advance width="769.95"/>
  <unicode hex="00C6"/>
  <outline>
    <contour>
      <point x="41.224998474121094" y="0" type="line"/>
      <point x="181.2249984741211" y="0" type="line"/>
      <point x="181.2249984741211" y="805" type="line"/>
      <point x="144.51238251399212" y="805.0"/>
      <point x="41.2250002924264" y="792.4436300689365"/>
      <point x="41.224999918107954" y="629.3102675177422" type="curve"/>
    </contour>
    <contour>
      <point x="223.7249984741211" y="0" type="line"/>
      <point x="363.7249984741211" y="0" type="line"/>
      <point x="363.7249984741211" y="629.3102673349817" type="line"/>
      <point x="363.7249984741211" y="792.4436300689365"/>
      <point x="260.43761596012894" y="805.0"/>
      <point x="223.725" y="805.0" type="curve"/>
    </contour>
    <contour>
      <point x="406.2249984741211" y="0" type="line"/>
      <point x="546.2249984741211" y="0" type="line"/>
      <point x="546.2249984741211" y="800" type="line"/>
      <point x="406.2249984741211" y="800" type="line"/>
    </contour>
    <contour>
      <point x="588.725" y="800.0" type="line"/>
      <point x="588.725" y="722.7319"/>
      <point x="651.4569" y="660.0"/>
      <point x="728.725" y="660.0" type="curve"/>
      <point x="728.725" y="800.0" type="line"/>
    </contour>
    <contour>
      <point x="588.725" y="500.0" type="line"/>
      <point x="588.725" y="422.7319"/>
      <point x="651.4569" y="360.0"/>
      <point x="728.725" y="360.0" type="curve"/>
      <point x="728.725" y="500.0" type="line"/>
    </contour>
    <contour>
      <point x="728.725" y="140.0" type="line"/>
      <point x="651.4569" y="140.0"/>
      <point x="588.725" y="77.2681"/>
      <point x="588.725" y="0.0" type="curve"/>
      <point x="728.725" y="0.0" type="line"/>
    </contour>
  </outline>
</glyph>
<glyph name="E_with_circumflex" format="2">
  <advance width="404.95"/>
  <unicode hex="00CA"/>
  <outline>
    <contour>
      <point x="58.099999999999994" y="841.6666666666666" type="line"/>
      <point x="135.3681" y="841.6666666666666"/>
      <point x="198.1" y="904.3985666666666"/>
      <point x="198.1" y="981.6666666666666" type="curve"/>
      <point x="58.099999999999994" y="981.6666666666666" type="line"/>
    </contour>
    <contour>
      <point x="206.85" y="981.6666666666666" type="line"/>
      <point x="206.85" y="904.3985666666666"/>
      <point x="269.5819" y="841.6666666666666"/>
      <point x="346.85" y="841.6666666666666" type="curve"/>
      <point x="346.85" y="981.6666666666666" type="line"/>
    </contour>
    <contour>
      <point x="41.224998474121094" y="0" type="line"/>
      <point x="181.2249984741211" y="0" type="line"/>
      <point x="181.2249984741211" y="800" type="line"/>
      <point x="41.224998474121094" y="800" type="line"/>
    </contour>
    <contour>
      <point x="223.725" y="800.0" type="line"/>
      <point x="223.725" y="722.7319"/>
      <point x="286.4569" y="660.0"/>
      <point x="363.725" y="660.0" type="curve"/>
      <point x="363.725" y="800.0" type="line"/>
    </contour>
    <contour>
      <point x="223.725" y="470.0" type="line"/>
      <point x="223.725" y="392.7319"/>
      <point x="286.4569" y="330.0"/>
      <point x="363.725" y="330.0" type="curve"/>
      <point x="363.725" y="470.0" type="line"/>
    </contour>
    <contour>
      <point x="363.725" y="140.0" type="line"/>
      <point x="286.4569" y="140.0"/>
      <point x="223.725" y="77.2681"/>
      <point x="223.725" y="0.0" type="curve"/>
      <point x="363.725" y="0.0" type="line"/>
    </contour>
  </outline>
</glyph>
<glyph name="E_with_diaeresis" format="2">
  <advance width="404.95"/>
  <unicode hex="00CB"/>
  <outline>
    <contour>
      <point x="186.225" y="911.6666666666666" type="curve" smooth="yes"/>
      <point x="186.225" y="953.0602966666667"/>
      <point x="152.61863" y="986.6666666666666"/>
      <point x="111.225" y="986.6666666666666" type="curve" smooth="yes"/>
      <point x="69.83136999999999" y="986.6666666666666"/>
      <point x="36.224999999999994" y="953.0602966666667"/>
      <point x="36.224999999999994" y="911.6666666666666" type="curve" smooth="yes"/>
      <point x="36.224999999999994" y="870.2730366666666"/>
      <point x="69.83136999999999" y="836.6666666666666"/>
      <point x="111.225" y="836.6666666666666" type="curve" smooth="yes"/>
      <point x="152.61863" y="836.6666666666666"/>
      <point x="186.225" y="870.2730366666666"/>
    </contour>
    <contour>
      <point x="368.725" y="911.6666666666666" type="curve" smooth="yes"/>
      <point x="368.725" y="953.0602966666667"/>
      <point x="335.11862999999994" y="986.6666666666666"/>
      <point x="293.725" y="986.6666666666666" type="curve" smooth="yes"/>
      <point x="252.33137" y="986.6666666666666"/>
      <point x="218.725" y="953.0602966666667"/>
      <point x="218.725" y="911.6666666666666" type="curve" smooth="yes"/>
      <point x="218.725" y="870.2730366666666"/>
      <point x="252.33137" y="836.6666666666666"/>
      <point x="293.725" y="836.6666666666666" type="curve" smooth="yes"/>
      <point x="335.11862999999994" y="836.6666666666666"/>
      <point x="368.725" y="870.2730366666666"/>
    </contour>
    <contour>
      <point x="41.224998474121094" y="0" type="line"/>
      <point x="181.2249984741211" y="0" type="line"/>
      <point x="181.2249984741211" y="800" type="line"/>
      <point x="41.224998474121094" y="800" type="line"/>
    </contour>
    <contour>
      <point x="223.725" y="800.0" type="line"/>
      <point x="223.725" y="722.7319"/>
      <point x="286.4569" y="660.0"/>
      <point x="363.725" y="660.0" type="curve"/>
      <point x="363.725" y="800.0" type="line"/>
    </contour>
    <contour>
      <point x="223.725" y="470.0" type="line"/>
      <point x="223.725" y="392.7319"/>
      <point x="286.4569" y="330.0"/>
      <point x="363.725" y="330.0" type="curve"/>
      <point x="363.725" y="470.0" type="line"/>
    </contour>
    <contour>
      <point x="363.725" y="140.0" type="line"/>
      <point x="286.4569" y="140.0"/>
      <point x="223.725" y="77.2681"/>
      <point x="223.725" y="0.0" type="curve"/>
      <point x="363.725" y="0.0" type="line"/>
    </contour>
  </outline>
</glyph>
<glyph name="I_with_grave" format="2">
  <advance width="222.45"/>
  <unicode hex="00CC"/>
  <outline>
    <contour>
      <point x="-20.025000000000006" y="981.6666666666666" type="line"/>
      <point x="-20.025000000000006" y="904.3985666666666"/>
      <point x="42.7069" y="841.6666666666666"/>
      <point x="119.975" y="841.6666666666666" type="curve"/>
      <point x="119.975" y="981.6666666666666" type="line"/>
    </contour>
    <contour>
      <point x="41.224998474121094" y="0" type="line"/>
      <point x="181.2249984741211" y="0" type="line"/>
      <point x="181.2249984741211" y="800" type="line"/>
      <point x="41.224998474121094" y="800" type="line"/>
    </contour>
  </outline>
</glyph>
<glyph name="I_with_diaeresis" format="2">
  <advance width="222.45"/>
  <unicode hex="00CF"/>
  <outline>
    <contour>
      <point x="94.975" y="911.6666666666666" type="curve" smooth="yes"/>
      <point x="94.975" y="953.0602966666667"/>
      <point x="61.368629999999996" y="986.6666666666666"/>
      <point x="19.974999999999994" y="986.6666666666666" type="curve" smooth="yes"/>
      <point x="-21.418630000000007" y="986.6666666666666"/>
      <point x="-55.025000000000006" y="953.0602966666667"/>
      <point x="-55.025000000000006" y="911.6666666666666" type="curve" smooth="yes"/>
      <point x="-55.025000000000006" y="870.2730366666666"/>
      <point x="-21.418630000000007" y="836.6666666666666"/>
      <point x="19.974999999999994" y="836.6666666666666" type="curve" smooth="yes"/>
      <point x="61.368629999999996" y="836.6666666666666"/>
      <point x="94.975" y="870.2730366666666"/>
    </contour>
    <contour>
      <point x="277.475" y="911.6666666666666" type="curve" smooth="yes"/>
      <point x="277.475" y="953.0602966666667"/>
      <point x="243.86862999999997" y="986.6666666666666"/>
      <point x="202.475" y="986.6666666666666" type="curve" smooth="yes"/>
      <point x="161.08137" y="986.6666666666666"/>
      <point x="127.475" y="953.0602966666667"/>
      <point x="127.475" y="911.6666666666666" type="curve" smooth="yes"/>
      <point x="127.475" y="870.2730366666666"/>
      <point x="161.08137" y="836.6666666666666"/>
      <point x="202.475" y="836.6666666666666" type="curve" smooth="yes"/>
      <point x="243.86862999999997" y="836.6666666666666"/>
      <point x="277.475" y="870.2730366666666"/>
    </contour>
    <contour>
      <point x="41.224998474121094" y="0" type="line"/>
      <point x="181.2249984741211" y="0" type="line"/>
      <point x="181.2249984741211" y="800" type="line"/>
      <point x="41.224998474121094" y="800" type="line"/>
    </contour>
  </outline>
</glyph>
<glyph name="ETH" format="2">
  <advance width="587.45"/>
  <unicode hex="00D0"/>
  <outline>
    <contour>
      <point x="223.7249984741211" y="0" type="line"/>
      <point x="363.7249984741211" y="0" type="line"/>
      <point x="363.7249984741211" y="800" type="line"/>
      <point x="223.7249984741211" y="800" type="line"/>
      <point x="223.7249984741211" y="462.57262420654297" type="line"/>
      <point x="168.50370121031736" y="443.84091444927475"/>
      <point x="128.725" y="391.52920617480004"/>
      <point x="128.725" y="330.00000000000006" type="curve"/>
      <point x="223.7249984741211" y="330" type="line"/>
    </contour>
    <contour>
      <point x="406.2249984741211" y="0" type="line"/>
      <point x="442.93761443425007" y="0.0"/>
      <point x="546.2250003739684" y="12.556371340654607"/>
      <point x="546.2249998952727" y="175.68973389184887" type="curve"/>
      <point x="546.2249985788484" y="624.3102673349817" type="line"/>
      <point x="546.2249981001527" y="787.4436300689365"/>
      <point x="442.937615960129" y="800.0"/>
      <point x="406.225" y="800.0" type="curve"/>
    </contour>
  </outline>
</glyph>
<glyph name="O_with_acute" format="2">
  <advance width="404.95"/>
  <unicode hex="00D3"/>
  <outline>
    <contour>
      <point x="193.725" y="841.6666666666666" type="line"/>
      <point x="270.9931" y="841.6666666666666"/>
      <point x="333.725" y="904.3985666666666"/>
      <point x="333.725" y="981.6666666666666" type="curve"/>
      <point x="193.725" y="981.6666666666666" type="line"/>
    </contour>
    <contour>
      <point x="41.22499857687243" y="170.68973318705338" type="line"/>
      <point x="41.22499810720875" y="7.556370453098651"/>
      <point x="144.51238403987105" y="-4.999999999999996"/>
      <point x="181.225" y="-5.0" type="curve"/>
      <point x="181.2249984741211" y="805" type="line"/>
      <point x="144.51238251399212" y="805.0"/>
      <point x="41.22500036691236" y="792.4436300689365"/>
      <point x="41.22499989724866" y="629.3102675177422" type="curve"/>
    </contour>
    <contour>
      <point x="223.7249984741211" y="-5" type="line"/>
      <point x="260.43761443425007" y="-5.0"/>
      <point x="363.7250003669124" y="7.556371340654607"/>
      <point x="363.72499989724867" y="170.68973389184887" type="curve"/>
      <point x="363.72499857687245" y="629.3102673349817" type="line"/>
      <point x="363.72499810720876" y="792.4436300689365"/>
      <point x="260.43761596012894" y="805.0"/>
      <point x="223.725" y="805.0" type="curve"/>
    </contour>
  </outline>
</glyph>
<glyph name="O_with_smalltilde" format="2">
  <advance width="404.95"/>
  <unicode hex="00D5"/>
  <outline>
    <contour>
      <point x="166.78526340761294" y="841.6666647718472" type="line"/>
      <point x="329.91862614156764" y="841.6666618084929"/>
      <point x="342.475" y="944.9540507065377"/>
      <point x="342.475" y="981.6666666666666" type="curve"/>
      <point x="238.1647307975977" y="981.6666647718472" type="line"/>
      <point x="75.03136806364301" y="981.666661808493"/>
      <point x="62.474999999999994" y="878.3792826267955"/>
      <point x="62.474999999999994" y="841.6666666666666" type="curve"/>
    </contour>
    <contour>
      <point x="41.22499857687243" y="170.68973318705338" type="line"/>
      <point x="41.22499810720875" y="7.556370453098651"/>
      <point x="144.51238403987105" y="-4.999999999999996"/>
      <point x="181.225" y="-5.0" type="curve"/>
      <point x="181.2249984741211" y="805" type="line"/>
      <point x="144.51238251399212" y="805.0"/>
      <point x="41.22500036691236" y="792.4436300689365"/>
      <point x="41.22499989724866" y="629.3102675177422" type="curve"/>
    </contour>
    <contour>
      <point x="223.7249984741211" y="-5" type="line"/>
      <point x="260.43761443425007" y="-5.0"/>
      <point x="363.7250003669124" y="7.556371340654607"/>
      <point x="363.72499989724867" y="170.68973389184887" type="curve"/>
      <point x="363.72499857687245" y="629.3102673349817" type="line"/>
      <point x="363.72499810720876" y="792.4436300689365"/>
      <point x="260.43761596012894" y="805.0"/>
      <point x="223.725" y="805.0" type="curve"/>
    </contour>
  </outline>
</glyph>
<glyph name="O_with_diaeresis" format="2">
  <advance width="404.95"/>
  <unicode hex="00D6"/>
  <outline>
    <contour>
      <point x="186.225" y="911.6666666666666" type="curve" smooth="yes"/>
      <point x="186.225" y="953.0602966666667"/>
      <point x="152.61863" y="986.6666666666666"/>
      <point x="111.225" y="986.6666666666666" type="curve" smooth="yes"/>
      <point x="69.83136999999999" y="986.6666666666666"/>
      <point x="36.224999999999994" y="953.0602966666667"/>
      <point x="36.224999999999994" y="911.6666666666666" type="curve" smooth="yes"/>
      <point x="36.224999999999994" y="870.2730366666666"/>
      <point x="69.83136999999999" y="836.6666666666666"/>
      <point x="111.225" y="836.6666666666666" type="curve" smooth="yes"/>
      <point x="152.61863" y="836.6666666666666"/>
      <point x="186.225" y="870.2730366666666"/>
    </contour>
    <contour>
      <point x="368.725" y="911.6666666666666" type="curve" smooth="yes"/>
      <point x="368.725" y="953.0602966666667"/>
      <point x="335.11862999999994" y="986.6666666666666"/>
      <point x="293.725" y="986.6666666666666" type="curve" smooth="yes"/>
      <point x="252.33137" y="986.6666666666666"/>
      <point x="218.725" y="953.0602966666667"/>
      <point x="218.725" y="911.6666666666666" type="curve" smooth="yes"/>
      <point x="218.725" y="870.2730366666666"/>
      <point x="252.33137" y="836.6666666666666"/>
      <point x="293.725" y="836.6666666666666" type="curve" smooth="yes"/>
      <point x="335.11862999999994" y="836.6666666666666"/>
      <point x="368.725" y="870.2730366666666"/>
    </contour>
    <contour>
      <point x="41.22499857687243" y="170.68973318705338" type="line"/>
      <point x="41.22499810720875" y="7.556370453098651"/>
      <point x="144.51238403987105" y="-4.999999999999996"/>
      <point x="181.225" y="-5.0" type="curve"/>
      <point x="181.2249984741211" y="805" type="line"/>
      <point x="144.51238251399212" y="805.0"/>
      <point x="41.22500036691236" y="792.4436300689365"/>
      <point x="41.22499989724866" y="629.3102675177422" type="curve"/>
    </contour>
    <contour>
      <point x="223.7249984741211" y="-5" type="line"/>
      <point x="260.43761443425007" y="-5.0"/>
      <point x="363.7250003669124" y="7.556371340654607"/>
      <point x="363.72499989724867" y="170.68973389184887" type="curve"/>
      <point x="363.72499857687245" y="629.3102673349817" type="line"/>
      <point x="363.72499810720876" y="792.4436300689365"/>
      <point x="260.43761596012894" y="805.0"/>
      <point x="223.725" y="805.0" type="curve"/>
    </contour>
  </outline>
</glyph>
<glyph name="multiply" format="2">
  <advance width="404.95"/>
  <unicode hex="00D7"/>
  <outline>
    <contour>
      <point x="41.224998474121094" y="575.6897331870534" type="line"/>
      <point x="41.2249984741211" y="412.5563704530987"/>
      <point x="144.51238403987105" y="400.0"/>
      <point x="181.225" y="400.0" type="curve"/>
      <point x="181.2249984741211" y="600" type="line"/>
      <point x="41.224998474121094" y="600" type="line"/>
    </contour>
    <contour>
      <point x="223.7249984741211" y="400" type="line"/>
      <point x="260.43761443425007" y="400.0"/>
      <point x="363.72500324105914" y="412.55637134065466"/>
      <point x="363.72499909236313" y="575.6897338918488" type="curve"/>
      <point x="363.7249984741211" y="600" type="line"/>
      <point x="223.7249984741211" y="600" type="line"/>
    </contour>
    <contour>
      <point x="41.224998474121094" y="200" type="line"/>
      <point x="181.2249984741211" y="200" type="line"/>
      <point x="181.2249984741211" y="400" type="line"/>
      <point x="144.51238251399212" y="400.0"/>
      <point x="41.22500324105912" y="387.4436300689364"/>
      <point x="41.22499909236317" y="224.31026751774218" type="curve"/>
    </contour>
    <contour>
      <point x="223.7249984741211" y="200" type="line"/>
      <point x="363.7249984741211" y="200" type="line"/>
      <point x="363.7249984741211" y="224.31026733498177" type="line"/>
      <point x="363.7249984741211" y="387.4436300689365"/>
      <point x="260.43761596012894" y="400.0"/>
      <point x="223.725" y="400.0" type="curve"/>
    </contour>
  </outline>
</glyph>
<glyph name="O_with_stroke" format="2">
  <advance width="404.95"/>
  <unicode hex="00D8"/>
  <outline>
    <contour>
      <point x="223.7249984741211" y="-5" type="line"/>
      <point x="260.43761443425007" y="-5.0"/>
      <point x="363.7250003669124" y="7.556371340654607"/>
      <point x="363.72499989724867" y="170.68973389184887" type="curve"/>
      <point x="363.7249985768724" y="629.3102717316732" type="line"/>
      <point x="363.7249984565128" y="671.1160783404297"/>
      <point x="363.72500062531486" y="713.6694669077663"/>
      <point x="333.57825469970703" y="751.7176513671875" type="curve"/>
      <point x="372.72212212390673" y="776.5314121012734"/>
      <point x="398.725" y="820.2530200537"/>
      <point x="398.725" y="870.0" type="curve"/>
      <point x="258.7249984741211" y="870" type="line"/>
      <point x="258.7249984741211" y="800.5785522460938" type="line"/>
      <point x="247.53679242052596" y="803.465792206617"/>
      <point x="235.8086490866" y="805.0"/>
      <point x="223.72499999999997" y="805.0" type="curve"/>
    </contour>
    <contour>
      <point x="41.224998576872444" y="170.68973659935227" type="line"/>
      <point x="41.2249984565128" y="128.88392165957038"/>
      <point x="41.224999460540154" y="86.33052953325658"/>
      <point x="71.37174987792969" y="48.2823486328125" type="curve"/>
      <point x="32.227958652636154" y="23.468723717432272"/>
      <point x="6.225000000000019" y="-20.252942785599988"/>
      <point x="6.225000000000016" y="-69.99999999999999" type="curve"/>
      <point x="146.2249984741211" y="-70" type="line"/>
      <point x="146.2249984741211" y="-0.57855224609375" type="line"/>
      <point x="157.41320757947406" y="-3.4657922066170452"/>
      <point x="169.1413509134" y="-5.000000000000017"/>
      <point x="181.225" y="-5.000000000000015" type="curve"/>
      <point x="181.2249984741211" y="805" type="line"/>
      <point x="144.51238251399212" y="805.0"/>
      <point x="41.22500036691236" y="792.4436300689365"/>
      <point x="41.22499989724866" y="629.3102675177422" type="curve"/>
    </contour>
  </outline>
</glyph>
<glyph name="U_with_acute" format="2">
  <advance width="404.95"/>
  <unicode hex="00DA"/>
  <outline>
    <contour>
      <point x="193.725" y="841.6666666666666" type="line"/>
      <point x="270.9931" y="841.6666666666666"/>
      <point x="333.725" y="904.3985666666666"/>
      <point x="333.725" y="981.6666666666666" type="curve"/>
      <point x="193.725" y="981.6666666666666" type="line"/>
    </contour>
    <contour>
      <point x="41.224998474121094" y="170.68973318705338" type="line"/>
      <point x="41.2249984741211" y="7.556370453098651"/>
      <point x="144.51238403987105" y="-4.999999999999996"/>
      <point x="181.225" y="-5.0" type="curve"/>
      <point x="181.2249984741211" y="800" type="line"/>
      <point x="41.224998474121094" y="800" type="line"/>
    </contour>
    <contour>
      <point x="223.7249984741211" y="-5" type="line"/>
      <point x="260.43761443425007" y="-5.0"/>
      <point x="363.72500029242644" y="7.556371340654607"/>
      <point x="363.724999918108" y="170.68973389184887" type="curve"/>
      <point x="363.7249984741211" y="800" type="line"/>
      <point x="223.7249984741211" y="800" type="line"/>
    </contour>
  </outline>
</glyph>
<glyph name="U_with_diaeresis" format="2">
  <advance width="404.95"/>
  <unicode hex="00DC"/>
  <outline>
    <contour>
      <point x="186.225" y="911.6666666666666" type="curve" smooth="yes"/>
      <point x="186.225" y="953.0602966666667"/>
      <point x="152.61863" y="986.6666666666666"/>
      <point x="111.225" y="986.6666666666666" type="curve" smooth="yes"/>
      <point x="69.83136999999999" y="986.6666666666666"/>
      <point x="36.224999999999994" y="953.0602966666667"/>
      <point x="36.224999999999994" y="911.6666666666666" type="curve" smooth="yes"/>
      <point x="36.224999999999994" y="870.2730366666666"/>
      <point x="69.83136999999999" y="836.6666666666666"/>
      <point x="111.225" y="836.6666666666666" type="curve" smooth="yes"/>
      <point x="152.61863" y="836.6666666666666"/>
      <point x="186.225" y="870.2730366666666"/>
    </contour>
    <contour>
      <point x="368.725" y="911.6666666666666" type="curve" smooth="yes"/>
      <point x="368.725" y="953.0602966666667"/>
      <point x="335.11862999999994" y="986.6666666666666"/>
      <point x="293.725" y="986.6666666666666" type="curve" smooth="yes"/>
      <point x="252.33137" y="986.6666666666666"/>
      <point x="218.725" y="953.0602966666667"/>
      <point x="218.725" y="911.6666666666666" type="curve" smooth="yes"/>
      <point x="218.725" y="870.2730366666666"/>
      <point x="252.33137" y="836.6666666666666"/>
      <point x="293.725" y="836.6666666666666" type="curve" smooth="yes"/>
      <point x="335.11862999999994" y="836.6666666666666"/>
      <point x="368.725" y="870.2730366666666"/>
    </contour>
    <contour>
      <point x="41.224998474121094" y="170.68973318705338" type="line"/>
      <point x="41.2249984741211" y="7.556370453098651"/>
      <point x="144.51238403987105" y="-4.999999999999996"/>
      <point x="181.225" y="-5.0" type="curve"/>
      <point x="181.2249984741211" y="800" type="line"/>
      <point x="41.224998474121094" y="800" type="line"/>
    </contour>
    <contour>
      <point x="223.7249984741211" y="-5" type="line"/>
      <point x="260.43761443425007" y="-5.0"/>
      <point x="363.72500029242644" y="7.556371340654607"/>
      <point x="363.724999918108" y="170.68973389184887" type="curve"/>
      <point x="363.7249984741211" y="800" type="line"/>
      <point x="223.7249984741211" y="800" type="line"/>
    </contour>
  </outline>
</glyph>
<glyph name="Y_with_acute" format="2">
  <advance width="404.95"/>
  <unicode hex="00DD"/>
  <outline>
    <contour>
      <point x="193.4125" y="841.6666666666666" type="line"/>
      <point x="270.6806" y="841.6666666666666"/>
      <point x="333.4125" y="904.3985666666666"/>
      <point x="333.4125" y="981.6666666666666" type="curve"/>
      <point x="193.4125" y="981.6666666666666" type="line"/>
    </contour>
    <contour>
      <point x="41.224998591235526" y="375.6897331870534" type="line"/>
      <point x="41.22499805591993" y="212.55637045309865"/>
      <point x="144.51238403987105" y="200.0"/>
      <point x="181.225" y="200.0" type="curve"/>
      <point x="181.22499859123553" y="629.3102673349817" type="line"/>
      <point x="181.22499805591994" y="792.4436300689365"/>
      <point x="77.93761596012897" y="805.0"/>
      <point x="41.225" y="805.0" type="curve"/>
    </contour>
    <contour>
      <point x="223.7249984741211" y="-5" type="line"/>
      <point x="260.43761443425007" y="-5.0"/>
      <point x="363.72500029242644" y="7.556371340654607"/>
      <point x="363.724999918108" y="170.68973389184887" type="curve"/>
      <point x="363.7249984741211" y="800" type="line"/>
      <point x="223.7249984741211" y="800" type="line"/>
    </contour>
    <contour>
      <point x="190.6" y="60.0" type="curve" smooth="yes"/>
      <point x="190.6" y="101.39363"/>
      <point x="156.99363" y="135.0"/>
      <point x="115.6" y="135.0" type="curve" smooth="yes"/>
      <point x="74.20636999999999" y="135.0"/>
      <point x="40.6" y="101.39363"/>
      <point x="40.6" y="60.0" type="curve" smooth="yes"/>
      <point x="40.6" y="18.60637"/>
      <point x="74.20636999999999" y="-15.0"/>
      <point x="115.6" y="-15.0" type="curve" smooth="yes"/>
      <point x="156.99363" y="-15.0"/>
      <point x="190.6" y="18.60637"/>
    </contour>
  </outline>
</glyph>
<glyph name="THORN" format="2">
  <advance width="404.95"/>
  <unicode hex="00DE"/>
  <outline>
    <contour>
      <point x="41.224998474121094" y="0" type="line"/>
      <point x="181.2249984741211" y="0" type="line"/>
      <point x="181.2249984741211" y="800" type="line"/>
      <point x="41.224998474121094" y="800" type="line"/>
    </contour>
    <contour>
      <point x="223.7249984741211" y="100" type="line"/>
      <point x="260.43761443425007" y="100.0"/>
      <point x="363.72500060769863" y="112.55637134065458"/>
      <point x="363.7249998298181" y="275.68973389184885" type="curve"/>
      <point x="363.724998644303" y="524.3102673349817" type="line"/>
      <point x="363.7249978664225" y="687.4436300689365"/>
      <point x="260.43761596012894" y="700.0"/>
      <point x="223.725" y="700.0" type="curve"/>
    </contour>
  </outline>
</glyph>
<glyph name="eszett" format="2">
  <advance width="404.95"/>
  <unicode hex="00DF"/>
  <outline>
    <contour>
      <point x="41.224998474121094" y="0" type="line"/>
      <point x="181.2249984741211" y="0" type="line"/>
      <point x="181.2249984741211" y="800" type="line"/>
      <point x="144.51238251399212" y="800.0"/>
      <point x="41.225000294641745" y="787.4436300689365"/>
      <point x="41.22499991748756" y="624.3102675177422" type="curve"/>
    </contour>
    <contour>
      <point x="223.7249984741211" y="400" type="line"/>
      <point x="260.43761443425007" y="400.0"/>
      <point x="363.7250016205296" y="412.5563713406546"/>
      <point x="363.7249995461816" y="575.6897338918488" type="curve"/>
      <point x="363.7249989279395" y="624.3102673349817" type="line"/>
      <point x="363.72499685359145" y="787.4436300689365"/>
      <point x="260.43761596012894" y="800.0"/>
      <point x="223.725" y="800.0" type="curve"/>
    </contour>
    <contour>
      <point x="223.7249984741211" y="0" type="line"/>
      <point x="260.43761443425007" y="0.0"/>
      <point x="363.7250016205296" y="12.556371340654636"/>
      <point x="363.7249995461816" y="175.68973389184887" type="curve"/>
      <point x="363.7249989279395" y="224.31026733498177" type="line"/>
      <point x="363.72499685359145" y="387.4436300689365"/>
      <point x="260.43761596012894" y="400.0"/>
      <point x="223.725" y="400.0" type="curve"/>
    </contour>
  </outline>
</glyph>
<glyph name="c_with_cedilla" format="2">
  <advance width="404.95"/>
  <unicode hex="00E7"/>
  <outline>
    <contour>
      <point x="41.22499864168482" y="175.68973318705338" type="line"/>
      <point x="41.224997875771706" y="12.556370453098651"/>
      <point x="144.51238403987105" y="4.4959987623897964e-15"/>
      <point x="181.225" y="0.0" type="curve"/>
      <point x="181.2249984741211" y="605" type="line"/>
      <point x="144.51238251399212" y="605.0"/>
      <point x="41.225000598349375" y="592.4436300689364"/>
      <point x="41.22499983243628" y="429.31026751774215" type="curve"/>
    </contour>
    <contour>
      <point x="368.725" y="530.0" type="curve" smooth="yes"/>
      <point x="368.725" y="571.39363"/>
      <point x="335.11863" y="605.0"/>
      <point x="293.725" y="605.0" type="curve" smooth="yes"/>
      <point x="252.33137" y="605.0"/>
      <point x="218.725" y="571.39363"/>
      <point x="218.725" y="530.0" type="curve" smooth="yes"/>
      <point x="218.725" y="488.60637"/>
      <point x="252.33137" y="455.0"/>
      <point x="293.725" y="455.0" type="curve" smooth="yes"/>
      <point x="335.11863" y="455.0"/>
      <point x="368.725" y="488.60637"/>
    </contour>
    <contour>
      <point x="361.5375" y="140.0" type="line"/>
      <point x="284.2694" y="140.0"/>
      <point x="221.5375" y="77.2681"/>
      <point x="221.5375" y="0.0" type="curve"/>
      <point x="361.5375" y="0.0" type="line"/>
    </contour>
    <contour>
      <point x="336.225" y="-165.0" type="line"/>
      <point x="336.225" y="-87.7319"/>
      <point x="273.4931" y="-25.0"/>
      <point x="196.225" y="-25.0" type="curve"/>
      <point x="196.225" y="-165.0" type="line"/>
    </contour>
  </outline>
</glyph>
<glyph name="i_with_acute" format="2">
  <advance width="222.45"/>
  <unicode hex="00ED"/>
  <outline>
    <contour>
      <point x="102.475" y="641.6666666666666" type="line"/>
      <point x="179.7431" y="641.6666666666666"/>
      <point x="242.475" y="704.3985666666666"/>
      <point x="242.475" y="781.6666666666666" type="curve"/>
      <point x="102.475" y="781.6666666666666" type="line"/>
    </contour>
    <contour>
      <point x="41.224998474121094" y="0" type="line"/>
      <point x="181.2249984741211" y="0" type="line"/>
      <point x="181.2249984741211" y="600" type="line"/>
      <point x="41.224998474121094" y="600" type="line"/>
    </contour>
  </outline>
</glyph>
<glyph name="i_with_circumflex" format="2">
  <advance width="222.45"/>
  <unicode hex="00EE"/>
  <outline>
    <contour>
      <point x="-33.150000000000006" y="641.6666666666666" type="line"/>
      <point x="44.1181" y="641.6666666666666"/>
      <point x="106.85" y="704.3985666666666"/>
      <point x="106.85" y="781.6666666666666" type="curve"/>
      <point x="-33.150000000000006" y="781.6666666666666" type="line"/>
    </contour>
    <contour>
      <point x="115.6" y="781.6666666666666" type="line"/>
      <point x="115.6" y="704.3985666666666"/>
      <point x="178.3319" y="641.6666666666666"/>
      <point x="255.6" y="641.6666666666666" type="curve"/>
      <point x="255.6" y="781.6666666666666" type="line"/>
    </contour>
    <contour>
      <point x="41.224998474121094" y="0" type="line"/>
      <point x="181.2249984741211" y="0" type="line"/>
      <point x="181.2249984741211" y="600" type="line"/>
      <point x="41.224998474121094" y="600" type="line"/>
    </contour>
  </outline>
</glyph>
<glyph name="n_with_smalltilde" format="2">
  <advance width="404.95"/>
  <unicode hex="00F1"/>
  <outline>
    <contour>
      <point x="166.78526340761294" y="641.6666647718472" type="line"/>
      <point x="329.91862614156764" y="641.6666618084929"/>
      <point x="342.475" y="744.9540507065377"/>
      <point x="342.475" y="781.6666666666666" type="curve"/>
      <point x="238.1647307975977" y="781.6666647718472" type="line"/>
      <point x="75.03136806364301" y="781.666661808493"/>
      <point x="62.474999999999994" y="678.3792826267955"/>
      <point x="62.474999999999994" y="641.6666666666666" type="curve"/>
    </contour>
    <contour>
      <point x="41.224998474121094" y="0" type="line"/>
      <point x="181.2249984741211" y="0" type="line"/>
      <point x="181.2249984741211" y="600" type="line"/>
      <point x="41.224998474121094" y="600" type="line"/>
    </contour>
    <contour>
      <point x="223.7249984741211" y="0" type="line"/>
      <point x="363.7249984741211" y="0" type="line"/>
      <point x="363.7249984741211" y="424.31026733498175" type="line"/>
      <point x="363.7249984741211" y="587.4436300689365"/>
      <point x="260.43761596012894" y="600.0"/>
      <point x="223.725" y="600.0" type="curve"/>
    </contour>
  </outline>
</glyph>
<glyph name="o_with_diaeresis" format="2">
  <advance width="404.95"/>
  <unicode hex="00F6"/>
  <outline>
    <contour>
      <point x="186.225" y="711.6666666666666" type="curve" smooth="yes"/>
      <point x="186.225" y="753.0602966666667"/>
      <point x="152.61863" y="786.6666666666666"/>
      <point x="111.225" y="786.6666666666666" type="curve" smooth="yes"/>
      <point x="69.83136999999999" y="786.6666666666666"/>
      <point x="36.224999999999994" y="753.0602966666667"/>
      <point x="36.224999999999994" y="711.6666666666666" type="curve" smooth="yes"/>
      <point x="36.224999999999994" y="670.2730366666666"/>
      <point x="69.83136999999999" y="636.6666666666666"/>
      <point x="111.225" y="636.6666666666666" type="curve" smooth="yes"/>
      <point x="152.61863" y="636.6666666666666"/>
      <point x="186.225" y="670.2730366666666"/>
    </contour>
    <contour>
      <point x="368.725" y="711.6666666666666" type="curve" smooth="yes"/>
      <point x="368.725" y="753.0602966666667"/>
      <point x="335.11862999999994" y="786.6666666666666"/>
      <point x="293.725" y="786.6666666666666" type="curve" smooth="yes"/>
      <point x="252.33137" y="786.6666666666666"/>
      <point x="218.725" y="753.0602966666667"/>
      <point x="218.725" y="711.6666666666666" type="curve" smooth="yes"/>
      <point x="218.725" y="670.2730366666666"/>
      <point x="252.33137" y="636.6666666666666"/>
      <point x="293.725" y="636.6666666666666" type="curve" smooth="yes"/>
      <point x="335.11862999999994" y="636.6666666666666"/>
      <point x="368.725" y="670.2730366666666"/>
    </contour>
    <contour>
      <point x="41.22499863914597" y="170.68973318705338" type="line"/>
      <point x="41.22499788483762" y="7.556370453098651"/>
      <point x="144.51238403987105" y="-4.999999999999996"/>
      <point x="181.225" y="-5.0" type="curve"/>
      <point x="181.2249984741211" y="605" type="line"/>
      <point x="144.51238251399212" y="605.0"/>
      <point x="41.22500058928349" y="592.4436300689364"/>
      <point x="41.22499983497512" y="429.31026751774215" type="curve"/>
    </contour>
    <contour>
      <point x="223.7249984741211" y="-5" type="line"/>
      <point x="260.43761443425007" y="-5.0"/>
      <point x="363.7250005892835" y="7.556371340654607"/>
      <point x="363.7249998349751" y="170.68973389184887" type="curve"/>
      <point x="363.72499863914595" y="429.31026733498175" type="line"/>
      <point x="363.72499788483765" y="592.4436300689365"/>
      <point x="260.43761596012894" y="605.0"/>
      <point x="223.725" y="605.0" type="curve"/>
    </contour>
  </outline>
</glyph>
<glyph name="divide" format="2">
  <advance width="587.45"/>
  <unicode hex="00F7"/>
  <outline>
    <contour>
      <point x="368.725" y="620.0" type="curve" smooth="yes"/>
      <point x="368.725" y="661.39363"/>
      <point x="335.11863" y="695.0"/>
      <point x="293.725" y="695.0" type="curve" smooth="yes"/>
      <point x="252.33137" y="695.0"/>
      <point x="218.725" y="661.39363"/>
      <point x="218.725" y="620.0" type="curve" smooth="yes"/>
      <point x="218.725" y="578.60637"/>
      <point x="252.33137" y="545.0"/>
      <point x="293.725" y="545.0" type="curve" smooth="yes"/>
      <point x="335.11863" y="545.0"/>
      <point x="368.725" y="578.60637"/>
    </contour>
    <contour>
      <point x="83.7249984741211" y="330" type="line"/>
      <point x="503.7249984741211" y="330" type="line"/>
      <point x="503.7249984741211" y="470" type="line"/>
      <point x="83.7249984741211" y="470" type="line"/>
    </contour>
    <contour>
      <point x="368.725" y="180.0" type="curve" smooth="yes"/>
      <point x="368.725" y="221.39363"/>
      <point x="335.11863" y="255.0"/>
      <point x="293.725" y="255.0" type="curve" smooth="yes"/>
      <point x="252.33137" y="255.0"/>
      <point x="218.725" y="221.39363"/>
      <point x="218.725" y="180.0" type="curve" smooth="yes"/>
      <point x="218.725" y="138.60637"/>
      <point x="252.33137" y="105.0"/>
      <point x="293.725" y="105.0" type="curve" smooth="yes"/>
      <point x="335.11863" y="105.0"/>
      <point x="368.725" y="138.60637"/>
    </contour>
  </outline>
</glyph>
<glyph name="u_with_grave" format="2">
  <advance width="404.95"/>
  <unicode hex="00F9"/>
  <outline>
    <contour>
      <point x="71.225" y="781.6666666666666" type="line"/>
      <point x="71.225" y="704.3985666666666"/>
      <point x="133.9569" y="641.6666666666666"/>
      <point x="211.225" y="641.6666666666666" type="curve"/>
      <point x="211.225" y="781.6666666666666" type="line"/>
    </contour>
    <contour>
      <point x="41.224998474121094" y="170.68973318705338" type="line"/>
      <point x="41.2249984741211" y="7.556370453098651"/>
      <point x="144.51238403987105" y="-4.999999999999996"/>
      <point x="181.225" y="-5.0" type="curve"/>
      <point x="181.2249984741211" y="600" type="line"/>
      <point x="41.224998474121094" y="600" type="line"/>
    </contour>
    <contour>
      <point x="223.7249984741211" y="-5" type="line"/>
      <point x="260.43761443425007" y="-5.0"/>
      <point x="363.7250004182012" y="7.556371340654607"/>
      <point x="363.7249998828856" y="170.68973389184887" type="curve"/>
      <point x="363.7249984741211" y="600" type="line"/>
      <point x="223.7249984741211" y="600" type="line"/>
    </contour>
  </outline>
</glyph>
<glyph name="A_with_ogonek" format="2">
  <advance width="404.95"/>
  <unicode hex="0104"/>
  <outline>
    <contour>
      <point x="41.224998474121094" y="0" type="line"/>
      <point x="181.2249984741211" y="0" type="line"/>
      <point x="181.2249984741211" y="805" type="line"/>
      <point x="144.51238251399212" y="805.0"/>
      <point x="41.2250002924264" y="792.4436300689365"/>
      <point x="41.224999918107954" y="629.3102675177422" type="curve"/>
    </contour>
    <contour>
      <point x="223.7249984741211" y="0" type="line"/>
      <point x="363.7249984741211" y="0" type="line"/>
      <point x="363.7249984741211" y="629.3102673349817" type="line"/>
      <point x="363.7249984741211" y="792.4436300689365"/>
      <point x="260.43761596012894" y="805.0"/>
      <point x="223.725" y="805.0" type="curve"/>
    </contour>
    <contour>
      <point x="363.725" y="-25.0" type="line"/>
      <point x="286.4569" y="-25.0"/>
      <point x="223.72500000000002" y="-87.7319"/>
      <point x="223.72500000000002" y="-165.0" type="curve"/>
      <point x="363.725" y="-165.0" type="line"/>
    </contour>
  </outline>
</glyph>
<glyph name="c_with_dotabove" format="2">
  <advance width="404.95"/>
  <unicode hex="010B"/>
  <outline>
    <contour>
      <point x="279.975" y="711.6666666666666" type="curve" smooth="yes"/>
      <point x="279.975" y="753.0602966666667"/>
      <point x="246.36863" y="786.6666666666666"/>
      <point x="204.975" y="786.6666666666666" type="curve" smooth="yes"/>
      <point x="163.58137" y="786.6666666666666"/>
      <point x="129.975" y="753.0602966666667"/>
      <point x="129.975" y="711.6666666666666" type="curve" smooth="yes"/>
      <point x="129.975" y="670.2730366666666"/>
      <point x="163.58137" y="636.6666666666666"/>
      <point x="204.975" y="636.6666666666666" type="curve" smooth="yes"/>
      <point x="246.36863" y="636.6666666666666"/>
      <point x="279.975" y="670.2730366666666"/>
    </contour>
    <contour>
      <point x="41.22499864168482" y="175.68973318705338" type="line"/>
      <point x="41.224997875771706" y="12.556370453098651"/>
      <point x="144.51238403987105" y="4.4959987623897964e-15"/>
      <point x="181.225" y="0.0" type="curve"/>
      <point x="181.2249984741211" y="605" type="line"/>
      <point x="144.51238251399212" y="605.0"/>
      <point x="41.225000598349375" y="592.4436300689364"/>
      <point x="41.22499983243628" y="429.31026751774215" type="curve"/>
    </contour>
    <contour>
      <point x="368.725" y="530.0" type="curve" smooth="yes"/>
      <point x="368.725" y="571.39363"/>
      <point x="335.11863" y="605.0"/>
      <point x="293.725" y="605.0" type="curve" smooth="yes"/>
      <point x="252.33137" y="605.0"/>
      <point x="218.725" y="571.39363"/>
      <point x="218.725" y="530.0" type="curve" smooth="yes"/>
      <point x="218.725" y="488.60637"/>
      <point x="252.33137" y="455.0"/>
      <point x="293.725" y="455.0" type="curve" smooth="yes"/>
      <point x="335.11863" y="455.0"/>
      <point x="368.725" y="488.60637"/>
    </contour>
    <contour>
      <point x="361.5375" y="140.0" type="line"/>
      <point x="284.2694" y="140.0"/>
      <point x="221.5375" y="77.2681"/>
      <point x="221.5375" y="0.0" type="curve"/>
      <point x="361.5375" y="0.0" type="line"/>
    </contour>
  </outline>
</glyph>
<glyph name="e_with_breve" format="2">
  <advance width="404.95"/>
  <unicode hex="0115"/>
  <outline>
    <contour>
      <point x="62.474998474121094" y="781.6666641235352" type="line"/>
      <point x="62.474999999999994" y="704.3985666666666"/>
      <point x="125.20689999999999" y="641.6666666666666"/>
      <point x="202.475" y="641.6666666666666" type="curve"/>
      <point x="279.7431" y="641.6666666666666"/>
      <point x="342.475" y="704.3985666666666"/>
      <point x="342.475" y="781.6666666666666" type="curve"/>
    </contour>
    <contour>
      <point x="41.22499863914597" y="170.68973318705338" type="line"/>
      <point x="41.22499788483762" y="7.556370453098651"/>
      <point x="144.51238403987105" y="-4.999999999999996"/>
      <point x="181.225" y="-5.0" type="curve"/>
      <point x="181.2249984741211" y="605" type="line"/>
      <point x="144.51238251399212" y="605.0"/>
      <point x="41.22500058928349" y="592.4436300689364"/>
      <point x="41.22499983497512" y="429.31026751774215" type="curve"/>
    </contour>
    <contour>
      <point x="223.7249984741211" y="195" type="line"/>
      <point x="363.7249984741211" y="195" type="line"/>
      <point x="363.7249984741211" y="429.31026733498175" type="line"/>
      <point x="363.7249984741211" y="592.4436300689365"/>
      <point x="260.43761596012894" y="605.0"/>
      <point x="223.725" y="605.0" type="curve"/>
    </contour>
  </outline>
</glyph>
<glyph name="E_with_dotabove" format="2">
  <advance width="404.95"/>
  <unicode hex="0116"/>
  <outline>
    <contour>
      <point x="277.475" y="911.6666666666666" type="curve" smooth="yes"/>
      <point x="277.475" y="953.0602966666667"/>
      <point x="243.86863" y="986.6666666666666"/>
      <point x="202.475" y="986.6666666666666" type="curve" smooth="yes"/>
      <point x="161.08137" y="986.6666666666666"/>
      <point x="127.475" y="953.0602966666667"/>
      <point x="127.475" y="911.6666666666666" type="curve" smooth="yes"/>
      <point x="127.475" y="870.2730366666666"/>
      <point x="161.08137" y="836.6666666666666"/>
      <point x="202.475" y="836.6666666666666" type="curve" smooth="yes"/>
      <point x="243.86863" y="836.6666666666666"/>
      <point x="277.475" y="870.2730366666666"/>
    </contour>
    <contour>
      <point x="41.224998474121094" y="0" type="line"/>
      <point x="181.2249984741211" y="0" type="line"/>
      <point x="181.2249984741211" y="800" type="line"/>
      <point x="41.224998474121094" y="800" type="line"/>
    </contour>
    <contour>
      <point x="223.725" y="800.0" type="line"/>
      <point x="223.725" y="722.7319"/>
      <point x="286.4569" y="660.0"/>
      <point x="363.725" y="660.0" type="curve"/>
      <point x="363.725" y="800.0" type="line"/>
    </contour>
    <contour>
      <point x="223.725" y="470.0" type="line"/>
      <point x="223.725" y="392.7319"/>
      <point x="286.4569" y="330.0"/>
      <point x="363.725" y="330.0" type="curve"/>
      <point x="363.725" y="470.0" type="line"/>
    </contour>
    <contour>
      <point x="363.725" y="140.0" type="line"/>
      <point x="286.4569" y="140.0"/>
      <point x="223.725" y="77.2681"/>
      <point x="223.725" y="0.0" type="curve"/>
      <point x="363.725" y="0.0" type="line"/>
    </contour>
  </outline>
</glyph>
<glyph name="e_with_dotabove" format="2">
  <advance width="404.95"/>
  <unicode hex="0117"/>
  <outline>
    <contour>
      <point x="277.475" y="711.6666666666666" type="curve" smooth="yes"/>
      <point x="277.475" y="753.0602966666667"/>
      <point x="243.86863" y="786.6666666666666"/>
      <point x="202.475" y="786.6666666666666" type="curve" smooth="yes"/>
      <point x="161.08137" y="786.6666666666666"/>
      <point x="127.475" y="753.0602966666667"/>
      <point x="127.475" y="711.6666666666666" type="curve" smooth="yes"/>
      <point x="127.475" y="670.2730366666666"/>
      <point x="161.08137" y="636.6666666666666"/>
      <point x="202.475" y="636.6666666666666" type="curve" smooth="yes"/>
      <point x="243.86863" y="636.6666666666666"/>
      <point x="277.475" y="670.2730366666666"/>
    </contour>
    <contour>
      <point x="41.22499863914597" y="170.68973318705338" type="line"/>
      <point x="41.22499788483762" y="7.556370453098651"/>
      <point x="144.51238403987105" y="-4.999999999999996"/>
      <point x="181.225" y="-5.0" type="curve"/>
      <point x="181.2249984741211" y="605" type="line"/>
      <point x="144.51238251399212" y="605.0"/>
      <point x="41.22500058928349" y="592.4436300689364"/>
      <point x="41.22499983497512" y="429.31026751774215" type="curve"/>
    </contour>
    <contour>
      <point x="223.7249984741211" y="195" type="line"/>
      <point x="363.7249984741211" y="195" type="line"/>
      <point x="363.7249984741211" y="429.31026733498175" type="line"/>
      <point x="363.7249984741211" y="592.4436300689365"/>
      <point x="260.43761596012894" y="605.0"/>
      <point x="223.725" y="605.0" type="curve"/>
    </contour>
  </outline>
</glyph>
<glyph name="G_with_breve" format="2">
  <advance width="404.95"/>
  <unicode hex="011E"/>
  <outline>
    <contour>
      <point x="62.474998474121094" y="981.6666641235352" type="line"/>
      <point x="62.474999999999994" y="904.3985666666666"/>
      <point x="125.20689999999999" y="841.6666666666666"/>
      <point x="202.475" y="841.6666666666666" type="curve"/>
      <point x="279.7431" y="841.6666666666666"/>
      <point x="342.475" y="904.3985666666666"/>
      <point x="342.475" y="981.6666666666666" type="curve"/>
    </contour>
    <contour>
      <point x="41.22499857884842" y="175.68973318705338" type="line"/>
      <point x="41.224998100152746" y="12.556370453098651"/>
      <point x="144.51238403987105" y="4.4959987623897964e-15"/>
      <point x="181.225" y="0.0" type="curve"/>
      <point x="181.2249984741211" y="800" type="line"/>
      <point x="144.51238251399212" y="800.0"/>
      <point x="41.22500037396837" y="787.4436300689365"/>
      <point x="41.224999895272674" y="624.3102675177422" type="curve"/>
    </contour>
    <contour>
      <point x="223.725" y="800.0" type="line"/>
      <point x="223.725" y="722.7319"/>
      <point x="286.4569" y="660.0"/>
      <point x="363.725" y="660.0" type="curve"/>
      <point x="363.725" y="800.0" type="line"/>
    </contour>
    <contour>
      <point x="223.7249984741211" y="175.68973318705335" type="line"/>
      <point x="223.7249984741211" y="12.556370453098623"/>
      <point x="327.01238403987105" y="4.4959987623897964e-15"/>
      <point x="363.725" y="0.0" type="curve"/>
      <point x="363.7249984741211" y="400" type="line"/>
      <point x="223.7249984741211" y="400" type="line"/>
    </contour>
  </outline>
</glyph>
<glyph name="g_with_dotabove" format="2">
  <advance width="404.95"/>
  <unicode hex="0121"/>
  <outline>
    <contour>
      <point x="277.475" y="711.6666666666666" type="curve" smooth="yes"/>
      <point x="277.475" y="753.0602966666667"/>
      <point x="243.86863" y="786.6666666666666"/>
      <point x="202.475" y="786.6666666666666" type="curve" smooth="yes"/>
      <point x="161.08137" y="786.6666666666666"/>
      <point x="127.475" y="753.0602966666667"/>
      <point x="127.475" y="711.6666666666666" type="curve" smooth="yes"/>
      <point x="127.475" y="670.2730366666666"/>
      <point x="161.08137" y="636.6666666666666"/>
      <point x="202.475" y="636.6666666666666" type="curve" smooth="yes"/>
      <point x="243.86863" y="636.6666666666666"/>
      <point x="277.475" y="670.2730366666666"/>
    </contour>
    <contour>
      <point x="41.22499864430301" y="175.68973318705338" type="line"/>
      <point x="41.224997866422505" y="12.556370453098651"/>
      <point x="144.51238403987105" y="4.4959987623897964e-15"/>
      <point x="181.225" y="0.0" type="curve"/>
      <point x="181.2249984741211" y="600" type="line"/>
      <point x="144.51238251399212" y="600.0"/>
      <point x="41.225000607698576" y="587.4436300689364"/>
      <point x="41.224999829818096" y="424.31026751774215" type="curve"/>
    </contour>
    <contour>
      <point x="223.7249984741211" y="-210" type="line"/>
      <point x="260.43761443425007" y="-210.0"/>
      <point x="363.7250002902441" y="-197.4436286593454"/>
      <point x="363.7249999187191" y="-34.310266108151126" type="curve"/>
      <point x="363.7249984741211" y="600" type="line"/>
      <point x="223.7249984741211" y="600" type="line"/>
    </contour>
    <contour>
      <point x="185.6" y="-140.0" type="curve" smooth="yes"/>
      <point x="185.6" y="-101.36595"/>
      <point x="154.23405" y="-70.0"/>
      <point x="115.6" y="-70.0" type="curve" smooth="yes"/>
      <point x="76.96594999999999" y="-70.0"/>
      <point x="45.6" y="-101.36595"/>
      <point x="45.6" y="-140.0" type="curve" smooth="yes"/>
      <point x="45.6" y="-178.63405"/>
      <point x="76.96594999999999" y="-210.0"/>
      <point x="115.6" y="-210.0" type="curve" smooth="yes"/>
      <point x="154.23405" y="-210.0"/>
      <point x="185.6" y="-178.63405"/>
    </contour>
  </outline>
</glyph>
<glyph name="I_with_smalltilde" format="2">
  <advance width="222.45"/>
  <unicode hex="0128"/>
  <outline>
    <contour>
      <point x="75.53526340761294" y="841.6666647718472" type="line"/>
      <point x="238.66862614156764" y="841.6666618084929"/>
      <point x="251.225" y="944.9540507065377"/>
      <point x="251.225" y="981.6666666666666" type="curve"/>
      <point x="146.9147307975977" y="981.6666647718472" type="line"/>
      <point x="-16.218631936356985" y="981.666661808493"/>
      <point x="-28.775000000000002" y="878.3792826267955"/>
      <point x="-28.775000000000006" y="841.6666666666666" type="curve"/>
    </contour>
    <contour>
      <point x="41.224998474121094" y="0" type="line"/>
      <point x="181.2249984741211" y="0" type="line"/>
      <point x="181.2249984741211" y="800" type="line"/>
      <point x="41.224998474121094" y="800" type="line"/>
    </contour>
  </outline>
</glyph>
<glyph name="i_with_breve" format="2">
  <advance width="222.45"/>
  <unicode hex="012D"/>
  <outline>
    <contour>
      <point x="-28.775001525878906" y="781.6666641235352" type="line"/>
      <point x="-28.775000000000006" y="704.3985666666666"/>
      <point x="33.95689999999999" y="641.6666666666666"/>
      <point x="111.225" y="641.6666666666666" type="curve"/>
      <point x="188.4931" y="641.6666666666666"/>
      <point x="251.225" y="704.3985666666666"/>
      <point x="251.225" y="781.6666666666666" type="curve"/>
    </contour>
    <contour>
      <point x="41.224998474121094" y="0" type="line"/>
      <point x="181.2249984741211" y="0" type="line"/>
      <point x="181.2249984741211" y="600" type="line"/>
      <point x="41.224998474121094" y="600" type="line"/>
    </contour>
  </outline>
</glyph>
<glyph name="i_with_ogonek" format="2">
  <advance width="222.45"/>
  <unicode hex="012F"/>
  <outline>
    <contour>
      <point x="186.225" y="711.66667" type="curve" smooth="yes"/>
      <point x="186.225" y="753.0603"/>
      <point x="152.61863" y="786.66667"/>
      <point x="111.225" y="786.66667" type="curve" smooth="yes"/>
      <point x="69.83136999999999" y="786.66667"/>
      <point x="36.225" y="753.0603"/>
      <point x="36.225" y="711.66667" type="curve" smooth="yes"/>
      <point x="36.225" y="670.27304"/>
      <point x="69.83136999999999" y="636.66667"/>
      <point x="111.225" y="636.66667" type="curve" smooth="yes"/>
      <point x="152.61863" y="636.66667"/>
      <point x="186.225" y="670.27304"/>
    </contour>
    <contour>
      <point x="41.224998474121094" y="0" type="line"/>
      <point x="181.2249984741211" y="0" type="line"/>
      <point x="181.2249984741211" y="600" type="line"/>
      <point x="41.224998474121094" y="600" type="line"/>
    </contour>
    <contour>
      <point x="186.225" y="-25.0" type="line"/>
      <point x="108.95689999999999" y="-25.0"/>
      <point x="46.224999999999994" y="-87.7319"/>
      <point x="46.224999999999994" y="-165.0" type="curve"/>
      <point x="186.225" y="-165.0" type="line"/>
    </contour>
  </outline>
</glyph>
<glyph name="I_with_dotabove" format="2">
  <advance width="222.45"/>
  <unicode hex="0130"/>
  <outline>
    <contour>
      <point x="186.225" y="911.6666666666666" type="curve" smooth="yes"/>
      <point x="186.225" y="953.0602966666667"/>
      <point x="152.61863" y="986.6666666666666"/>
      <point x="111.225" y="986.6666666666666" type="curve" smooth="yes"/>
      <point x="69.83136999999999" y="986.6666666666666"/>
      <point x="36.224999999999994" y="953.0602966666667"/>
      <point x="36.224999999999994" y="911.6666666666666" type="curve" smooth="yes"/>
      <point x="36.224999999999994" y="870.2730366666666"/>
      <point x="69.83136999999999" y="836.6666666666666"/>
      <point x="111.225" y="836.6666666666666" type="curve" smooth="yes"/>
      <point x="152.61863" y="836.6666666666666"/>
      <point x="186.225" y="870.2730366666666"/>
    </contour>
    <contour>
      <point x="41.224998474121094" y="0" type="line"/>
      <point x="181.2249984741211" y="0" type="line"/>
      <point x="181.2249984741211" y="800" type="line"/>
      <point x="41.224998474121094" y="800" type="line"/>
    </contour>
  </outline>
</glyph>
<glyph name="ij" format="2">
  <advance width="404.95"/>
  <unicode hex="0133"/>
  <outline>
    <contour>
      <point x="177.475" y="711.66667" type="curve" smooth="yes"/>
      <point x="177.475" y="753.0603"/>
      <point x="143.86863" y="786.66667"/>
      <point x="102.475" y="786.66667" type="curve" smooth="yes"/>
      <point x="61.08137" y="786.66667"/>
      <point x="27.475" y="753.0603"/>
      <point x="27.475" y="711.66667" type="curve" smooth="yes"/>
      <point x="27.475" y="670.27304"/>
      <point x="61.08137" y="636.66667"/>
      <point x="102.475" y="636.66667" type="curve" smooth="yes"/>
      <point x="143.86863" y="636.66667"/>
      <point x="177.475" y="670.27304"/>
    </contour>
    <contour>
      <point x="368.725" y="711.66667" type="curve" smooth="yes"/>
      <point x="368.725" y="753.0603"/>
      <point x="335.11863" y="786.66667"/>
      <point x="293.725" y="786.66667" type="curve" smooth="yes"/>
      <point x="252.33137" y="786.66667"/>
      <point x="218.725" y="753.0603"/>
      <point x="218.725" y="711.66667" type="curve" smooth="yes"/>
      <point x="218.725" y="670.27304"/>
      <point x="252.33137" y="636.66667"/>
      <point x="293.725" y="636.66667" type="curve" smooth="yes"/>
      <point x="335.11863" y="636.66667"/>
      <point x="368.725" y="670.27304"/>
    </contour>
    <contour>
      <point x="32.474998474121094" y="0" type="line"/>
      <point x="172.4749984741211" y="0" type="line"/>
      <point x="172.4749984741211" y="600" type="line"/>
      <point x="32.474998474121094" y="600" type="line"/>
    </contour>
    <contour>
      <point x="223.7249984741211" y="-210" type="line"/>
      <point x="260.43761443425007" y="-210.0"/>
      <point x="363.7250002902441" y="-197.4436286593454"/>
      <point x="363.7249999187191" y="-34.310266108151126" type="curve"/>
      <point x="363.7249984741211" y="600" type="line"/>
      <point x="223.7249984741211" y="600" type="line"/>
    </contour>
    <contour>
      <point x="185.6" y="-140.0" type="curve" smooth="yes"/>
      <point x="185.6" y="-101.36595"/>
      <point x="154.23405" y="-70.0"/>
      <point x="115.6" y="-70.0" type="curve" smooth="yes"/>
      <point x="76.96594999999999" y="-70.0"/>
      <point x="45.6" y="-101.36595"/>
      <point x="45.6" y="-140.0" type="curve" smooth="yes"/>
      <point x="45.6" y="-178.63405"/>
      <point x="76.96594999999999" y="-210.0"/>
      <point x="115.6" y="-210.0" type="curve" smooth="yes"/>
      <point x="154.23405" y="-210.0"/>
      <point x="185.6" y="-178.63405"/>
    </contour>
  </outline>
</glyph>
<glyph name="J_with_circumflex" format="2">
  <advance width="404.95"/>
  <unicode hex="0134"/>
  <outline>
    <contour>
      <point x="144.35" y="841.6666666666666" type="line"/>
      <point x="221.6181" y="841.6666666666666"/>
      <point x="284.35" y="904.3985666666666"/>
      <point x="284.35" y="981.6666666666666" type="curve"/>
      <point x="144.35" y="981.6666666666666" type="line"/>
    </contour>
    <contour>
      <point x="293.1" y="981.6666666666666" type="line"/>
      <point x="293.1" y="904.3985666666666"/>
      <point x="355.8319" y="841.6666666666666"/>
      <point x="433.1" y="841.6666666666666" type="curve"/>
      <point x="433.1" y="981.6666666666666" type="line"/>
    </contour>
    <contour>
      <point x="223.7249984741211" y="-5" type="line"/>
      <point x="260.43761443425007" y="-5.0"/>
      <point x="363.72500029242644" y="7.556371340654607"/>
      <point x="363.724999918108" y="170.68973389184887" type="curve"/>
      <point x="363.7249984741211" y="800" type="line"/>
      <point x="223.7249984741211" y="800" type="line"/>
    </contour>
    <contour>
      <point x="186.225" y="65.0" type="curve" smooth="yes"/>
      <point x="186.225" y="106.39363"/>
      <point x="152.61863" y="140.0"/>
      <point x="111.225" y="140.0" type="curve" smooth="yes"/>
      <point x="69.83136999999999" y="140.0"/>
      <point x="36.225" y="106.39363"/>
      <point x="36.225" y="65.0" type="curve" smooth="yes"/>
      <point x="36.225" y="23.60637"/>
      <point x="69.83136999999999" y="-10.0"/>
      <point x="111.225" y="-10.0" type="curve" smooth="yes"/>
      <point x="152.61863" y="-10.0"/>
      <point x="186.225" y="23.60637"/>
    </contour>
  </outline>
</glyph>
<glyph name="j_with_circumflex" format="2">
  <advance width="404.95"/>
  <unicode hex="0135"/>
  <outline>
    <contour>
      <point x="149.0375" y="641.6666666666666" type="line"/>
      <point x="226.3056" y="641.6666666666666"/>
      <point x="289.0375" y="704.3985666666666"/>
      <point x="289.0375" y="781.6666666666666" type="curve"/>
      <point x="149.0375" y="781.6666666666666" type="line"/>
    </contour>
    <contour>
      <point x="297.7875" y="781.6666666666666" type="line"/>
      <point x="297.7875" y="704.3985666666666"/>
      <point x="360.5194" y="641.6666666666666"/>
      <point x="437.7875" y="641.6666666666666" type="curve"/>
      <point x="437.7875" y="781.6666666666666" type="line"/>
    </contour>
    <contour>
      <point x="223.7249984741211" y="-210" type="line"/>
      <point x="260.43761443425007" y="-210.0"/>
      <point x="363.7250002902441" y="-197.4436286593454"/>
      <point x="363.7249999187191" y="-34.310266108151126" type="curve"/>
      <point x="363.7249984741211" y="600" type="line"/>
      <point x="223.7249984741211" y="600" type="line"/>
    </contour>
    <contour>
      <point x="185.6" y="-140.0" type="curve" smooth="yes"/>
      <point x="185.6" y="-101.36595"/>
      <point x="154.23405" y="-70.0"/>
      <point x="115.6" y="-70.0" type="curve" smooth="yes"/>
      <point x="76.96594999999999" y="-70.0"/>
      <point x="45.6" y="-101.36595"/>
      <point x="45.6" y="-140.0" type="curve" smooth="yes"/>
      <point x="45.6" y="-178.63405"/>
      <point x="76.96594999999999" y="-210.0"/>
      <point x="115.6" y="-210.0" type="curve" smooth="yes"/>
      <point x="154.23405" y="-210.0"/>
      <point x="185.6" y="-178.63405"/>
    </contour>
  </outline>
</glyph>
<glyph name="K_with_cedilla" format="2">
  <advance width="404.95"/>
  <unicode hex="0136"/>
  <outline>
    <contour>
      <point x="41.224998474121094" y="0" type="line"/>
      <point x="181.2249984741211" y="0" type="line"/>
      <point x="181.2249984741211" y="800" type="line"/>
      <point x="41.224998474121094" y="800" type="line"/>
    </contour>
    <contour>
      <point x="223.7249984741211" y="400" type="line"/>
      <point x="260.43761443425007" y="400.0"/>
      <point x="363.72500074793675" y="412.55637134065455"/>
      <point x="363.7249997905454" y="575.6897338918488" type="curve"/>
      <point x="363.7249984741211" y="800" type="line"/>
      <point x="223.7249984741211" y="800" type="line"/>
    </contour>
    <contour>
      <point x="223.7249984741211" y="0" type="line"/>
      <point x="363.7249984741211" y="0" type="line"/>
      <point x="363.7249984741211" y="224.31026733498177" type="line"/>
      <point x="363.7249984741211" y="387.4436300689365"/>
      <point x="260.43761596012894" y="400.0"/>
      <point x="223.725" y="400.0" type="curve"/>
    </contour>
    <contour>
      <point x="333.725" y="-165.0" type="line"/>
      <point x="333.725" y="-87.7319"/>
      <point x="270.9931" y="-25.0"/>
      <point x="193.725" y="-25.0" type="curve"/>
      <point x="193.725" y="-165.0" type="line"/>
    </contour>
  </outline>
</glyph>
<glyph name="k_with_cedilla" format="2">
  <advance width="404.95"/>
  <unicode hex="0137"/>
  <outline>
    <contour>
      <point x="41.224998474121094" y="0" type="line"/>
      <point x="181.2249984741211" y="0" type="line"/>
      <point x="181.2249984741211" y="800" type="line"/>
      <point x="41.224998474121094" y="800" type="line"/>
    </contour>
    <contour>
      <point x="223.7249984741211" y="300" type="line"/>
      <point x="260.43761443425007" y="300.0"/>
      <point x="363.7250012153972" y="312.55637134065455"/>
      <point x="363.7249996596362" y="475.68973389184885" type="curve"/>
      <point x="363.7249984741211" y="600" type="line"/>
      <point x="223.7249984741211" y="600" type="line"/>
    </contour>
    <contour>
      <point x="223.7249984741211" y="0" type="line"/>
      <point x="363.7249984741211" y="0" type="line"/>
      <point x="363.7249984741211" y="124.31026733498177" type="line"/>
      <point x="363.7249984741211" y="287.4436300689365"/>
      <point x="260.43761596012894" y="300.0"/>
      <point x="223.725" y="300.0" type="curve"/>
    </contour>
    <contour>
      <point x="333.725" y="-165.0" type="line"/>
      <point x="333.725" y="-87.7319"/>
      <point x="270.9931" y="-25.0"/>
      <point x="193.725" y="-25.0" type="curve"/>
      <point x="193.725" y="-165.0" type="line"/>
    </contour>
  </outline>
</glyph>
<glyph name="l_with_cedilla" format="2">
  <advance width="222.45"/>
  <unicode hex="013C"/>
  <outline>
    <contour>
      <point x="41.224998474121094" y="170.68973318705338" type="line"/>
      <point x="41.2249984741211" y="7.556370453098651"/>
      <point x="144.51238403987105" y="-4.999999999999996"/>
      <point x="181.225" y="-5.0" type="curve"/>
      <point x="181.2249984741211" y="800" type="line"/>
      <point x="41.224998474121094" y="800" type="line"/>
    </contour>
    <contour>
      <point x="242.475" y="-170.0" type="line"/>
      <point x="242.475" y="-92.7319"/>
      <point x="179.7431" y="-30.0"/>
      <point x="102.475" y="-30.0" type="curve"/>
      <point x="102.475" y="-170.0" type="line"/>
    </contour>
  </outline>
</glyph>
<glyph name="L_with_stroke" format="2">
  <advance width="422.45"/>
  <unicode hex="0141"/>
  <outline>
    <contour>
      <point x="58.724998474121094" y="0" type="line"/>
      <point x="198.7249984741211" y="0" type="line"/>
      <point x="198.7249984741211" y="470.1964340209961" type="line"/>
      <point x="250.01231504522937" y="490.9781322251187"/>
      <point x="286.225" y="541.2934747863001"/>
      <point x="286.225" y="600.0000000000001" type="curve"/>
      <point x="198.7249984741211" y="600" type="line"/>
      <point x="198.7249984741211" y="800" type="line"/>
      <point x="58.724998474121094" y="800" type="line"/>
      <point x="58.724998474121094" y="489.8035659790039" type="line"/>
      <point x="7.437684954770653" y="469.0218677748813"/>
      <point x="-28.775000000000006" y="418.7065252137"/>
      <point x="-28.775000000000006" y="359.9999999999999" type="curve"/>
      <point x="58.724998474121094" y="360" type="line"/>
    </contour>
    <contour>
      <point x="381.225" y="140.0" type="line"/>
      <point x="303.9569" y="140.0"/>
      <point x="241.225" y="77.2681"/>
      <point x="241.225" y="0.0" type="curve"/>
      <point x="381.225" y="0.0" type="line"/>
    </contour>
  </outline>
</glyph>
<glyph name="l_with_stroke" format="2">
  <advance width="257.45"/>
  <unicode hex="0142"/>
  <outline>
    <contour>
      <point x="58.724998474121094" y="170.68973318705338" type="line"/>
      <point x="58.7249984741211" y="7.556370453098651"/>
      <point x="162.01238403987105" y="-4.999999999999996"/>
      <point x="198.725" y="-5.0" type="curve"/>
      <point x="198.7249984741211" y="470.1964340209961" type="line"/>
      <point x="250.01231504522937" y="490.9781322251187"/>
      <point x="286.225" y="541.2934747863001"/>
      <point x="286.225" y="600.0000000000001" type="curve"/>
      <point x="198.7249984741211" y="600" type="line"/>
      <point x="198.7249984741211" y="800" type="line"/>
      <point x="58.724998474121094" y="800" type="line"/>
      <point x="58.724998474121094" y="489.8035659790039" type="line"/>
      <point x="7.437684954770653" y="469.0218677748813"/>
      <point x="-28.775000000000006" y="418.7065252137"/>
      <point x="-28.775000000000006" y="359.9999999999999" type="curve"/>
      <point x="58.724998474121094" y="360" type="line"/>
    </contour>
  </outline>
</glyph>
<glyph name="N_with_cedilla" format="2">
  <advance width="404.95"/>
  <unicode hex="0145"/>
  <outline>
    <contour>
      <point x="41.224998474121094" y="0" type="line"/>
      <point x="181.2249984741211" y="0" type="line"/>
      <point x="181.2249984741211" y="800" type="line"/>
      <point x="41.224998474121094" y="800" type="line"/>
    </contour>
    <contour>
      <point x="223.7249984741211" y="0" type="line"/>
      <point x="363.7249984741211" y="0" type="line"/>
      <point x="363.7249984741211" y="624.3102673349817" type="line"/>
      <point x="363.7249984741211" y="787.4436300689365"/>
      <point x="260.43761596012894" y="800.0"/>
      <point x="223.725" y="800.0" type="curve"/>
    </contour>
    <contour>
      <point x="333.725" y="-165.0" type="line"/>
      <point x="333.725" y="-87.7319"/>
      <point x="270.9931" y="-25.0"/>
      <point x="193.725" y="-25.0" type="curve"/>
      <point x="193.725" y="-165.0" type="line"/>
    </contour>
  </outline>
</glyph>
<glyph name="n_with_caron" format="2">
  <advance width="404.95"/>
  <unicode hex="0148"/>
  <outline>
    <contour>
      <point x="198.1" y="641.6666666666666" type="line"/>
      <point x="198.1" y="718.9347666666666"/>
      <point x="135.3681" y="781.6666666666666"/>
      <point x="58.099999999999994" y="781.6666666666666" type="curve"/>
      <point x="58.099999999999994" y="641.6666666666666" type="line"/>
    </contour>
    <contour>
      <point x="346.85" y="781.6666666666666" type="line"/>
      <point x="269.5819" y="781.6666666666666"/>
      <point x="206.85" y="718.9347666666666"/>
      <point x="206.85" y="641.6666666666666" type="curve"/>
      <point x="346.85" y="641.6666666666666" type="line"/>
    </contour>
    <contour>
      <point x="41.224998474121094" y="0" type="line"/>
      <point x="181.2249984741211" y="0" type="line"/>
      <point x="181.2249984741211" y="600" type="line"/>
      <point x="41.224998474121094" y="600" type="line"/>
    </contour>
    <contour>
      <point x="223.7249984741211" y="0" type="line"/>
      <point x="363.7249984741211" y="0" type="line"/>
      <point x="363.7249984741211" y="424.31026733498175" type="line"/>
      <point x="363.7249984741211" y="587.4436300689365"/>
      <point x="260.43761596012894" y="600.0"/>
      <point x="223.725" y="600.0" type="curve"/>
    </contour>
  </outline>
</glyph>
<glyph name="ENG" format="2">
  <advance width="404.95"/>
  <unicode hex="014A"/>
  <outline>
    <contour>
      <point x="41.224998474121094" y="0" type="line"/>
      <point x="181.2249984741211" y="0" type="line"/>
      <point x="181.2249984741211" y="800" type="line"/>
      <point x="41.224998474121094" y="800" type="line"/>
    </contour>
    <contour>
      <point x="223.7249984741211" y="-200" type="line"/>
      <point x="260.43761443425007" y="-200.0"/>
      <point x="363.7250002700883" y="-187.4436286593454"/>
      <point x="363.7249999243636" y="-24.310266108151126" type="curve"/>
      <point x="363.7249985497575" y="624.3102673349817" type="line"/>
      <point x="363.72499820403283" y="787.4436300689365"/>
      <point x="260.43761596012894" y="800.0"/>
      <point x="223.725" y="800.0" type="curve"/>
    </contour>
  </outline>
</glyph>
<glyph name="eng" format="2">
  <advance width="404.95"/>
  <unicode hex="014B"/>
  <outline>
    <contour>
      <point x="41.224998474121094" y="0" type="line"/>
      <point x="181.2249984741211" y="0" type="line"/>
      <point x="181.2249984741211" y="600" type="line"/>
      <point x="41.224998474121094" y="600" type="line"/>
    </contour>
    <contour>
      <point x="223.7249984741211" y="-200" type="line"/>
      <point x="260.43761443425007" y="-200.0"/>
      <point x="363.7250003739684" y="-187.4436286593454"/>
      <point x="363.7249998952727" y="-24.310266108151126" type="curve"/>
      <point x="363.72499857884844" y="424.31026733498175" type="line"/>
      <point x="363.72499810015273" y="587.4436300689365"/>
      <point x="260.43761596012894" y="600.0"/>
      <point x="223.725" y="600.0" type="curve"/>
    </contour>
  </outline>
</glyph>
<glyph name="OE" format="2">
  <advance width="769.95"/>
  <unicode hex="0152"/>
  <outline>
    <contour>
      <point x="41.22499857687243" y="170.68973318705338" type="line"/>
      <point x="41.22499810720875" y="7.556370453098651"/>
      <point x="144.51238403987105" y="-4.999999999999996"/>
      <point x="181.225" y="-5.0" type="curve"/>
      <point x="181.2249984741211" y="805" type="line"/>
      <point x="144.51238251399212" y="805.0"/>
      <point x="41.22500036691236" y="792.4436300689365"/>
      <point x="41.22499989724866" y="629.3102675177422" type="curve"/>
    </contour>
    <contour>
      <point x="223.7249984741211" y="-5" type="line"/>
      <point x="260.43761443425007" y="-5.0"/>
      <point x="363.7250003669124" y="7.556371340654607"/>
      <point x="363.72499989724867" y="170.68973389184887" type="curve"/>
      <point x="363.72499857687245" y="629.3102673349817" type="line"/>
      <point x="363.72499810720876" y="792.4436300689365"/>
      <point x="260.43761596012894" y="805.0"/>
      <point x="223.725" y="805.0" type="curve"/>
    </contour>
    <contour>
      <point x="406.2249984741211" y="0" type="line"/>
      <point x="546.2249984741211" y="0" type="line"/>
      <point x="546.2249984741211" y="800" type="line"/>
      <point x="406.2249984741211" y="800" type="line"/>
    </contour>
    <contour>
      <point x="588.725" y="800.0" type="line"/>
      <point x="588.725" y="722.7319"/>
      <point x="651.4569" y="660.0"/>
      <point x="728.725" y="660.0" type="curve"/>
      <point x="728.725" y="800.0" type="line"/>
    </contour>
    <contour>
      <point x="588.725" y="500.0" type="line"/>
      <point x="588.725" y="422.7319"/>
      <point x="651.4569" y="360.0"/>
      <point x="728.725" y="360.0" type="curve"/>
      <point x="728.725" y="500.0" type="line"/>
    </contour>
    <contour>
      <point x="728.725" y="140.0" type="line"/>
      <point x="651.4569" y="140.0"/>
      <point x="588.725" y="77.2681"/>
      <point x="588.725" y="0.0" type="curve"/>
      <point x="728.725" y="0.0" type="line"/>
    </contour>
  </outline>
</glyph>
<glyph name="oe" format="2">
  <advance width="769.95"/>
  <unicode hex="0153"/>
  <outline>
    <contour>
      <point x="41.22499863914597" y="170.68973318705338" type="line"/>
      <point x="41.22499788483762" y="7.556370453098651"/>
      <point x="144.51238403987105" y="-4.999999999999996"/>
      <point x="181.225" y="-5.0" type="curve"/>
      <point x="181.2249984741211" y="605" type="line"/>
      <point x="144.51238251399212" y="605.0"/>
      <point x="41.22500058928349" y="592.4436300689364"/>
      <point x="41.22499983497512" y="429.31026751774215" type="curve"/>
    </contour>
    <contour>
      <point x="223.7249984741211" y="-5" type="line"/>
      <point x="260.43761443425007" y="-5.0"/>
      <point x="363.7250005892835" y="7.556371340654607"/>
      <point x="363.7249998349751" y="170.68973389184887" type="curve"/>
      <point x="363.72499863914595" y="429.31026733498175" type="line"/>
      <point x="363.72499788483765" y="592.4436300689365"/>
      <point x="260.43761596012894" y="605.0"/>
      <point x="223.725" y="605.0" type="curve"/>
    </contour>
    <contour>
      <point x="406.224998639146" y="170.68973318705338" type="line"/>
      <point x="406.2249978848376" y="7.556370453098651"/>
      <point x="509.51238403987105" y="-4.999999999999996"/>
      <point x="546.225" y="-5.0" type="curve"/>
      <point x="546.2249984741211" y="605" type="line"/>
      <point x="509.5123825139921" y="605.0"/>
      <point x="406.2250005892835" y="592.4436300689364"/>
      <point x="406.22499983497516" y="429.31026751774215" type="curve"/>
    </contour>
    <contour>
      <point x="588.7249984741211" y="195" type="line"/>
      <point x="728.7249984741211" y="195" type="line"/>
      <point x="728.7249984741211" y="429.3102673349818" type="line"/>
      <point x="728.7249984741211" y="592.4436300689365"/>
      <point x="625.4376159601289" y="605.0"/>
      <point x="588.725" y="605.0" type="curve"/>
    </contour>
  </outline>
</glyph>
<glyph name="r_with_acute" format="2">
  <advance width="404.95"/>
  <unicode hex="0155"/>
  <outline>
    <contour>
      <point x="196.225" y="641.6666666666666" type="line"/>
      <point x="273.4931" y="641.6666666666666"/>
      <point x="336.225" y="704.3985666666666"/>
      <point x="336.225" y="781.6666666666666" type="curve"/>
      <point x="196.225" y="781.6666666666666" type="line"/>
    </contour>
    <contour>
      <point x="368.725" y="530.0" type="curve" smooth="yes"/>
      <point x="368.725" y="571.39363"/>
      <point x="335.11863" y="605.0"/>
      <point x="293.725" y="605.0" type="curve" smooth="yes"/>
      <point x="252.33137" y="605.0"/>
      <point x="218.725" y="571.39363"/>
      <point x="218.725" y="530.0" type="curve" smooth="yes"/>
      <point x="218.725" y="488.60637"/>
      <point x="252.33137" y="455.0"/>
      <point x="293.725" y="455.0" type="curve" smooth="yes"/>
      <point x="335.11863" y="455.0"/>
      <point x="368.725" y="488.60637"/>
    </contour>
    <contour>
      <point x="41.224998474121094" y="0" type="line"/>
      <point x="181.2249984741211" y="0" type="line"/>
      <point x="181.2249984741211" y="600" type="line"/>
      <point x="41.224998474121094" y="600" type="line"/>
    </contour>
  </outline>
</glyph>
<glyph name="r_with_cedilla" format="2">
  <advance width="404.95"/>
  <unicode hex="0157"/>
  <outline>
    <contour>
      <point x="368.725" y="530.0" type="curve" smooth="yes"/>
      <point x="368.725" y="571.39363"/>
      <point x="335.11863" y="605.0"/>
      <point x="293.725" y="605.0" type="curve" smooth="yes"/>
      <point x="252.33137" y="605.0"/>
      <point x="218.725" y="571.39363"/>
      <point x="218.725" y="530.0" type="curve" smooth="yes"/>
      <point x="218.725" y="488.60637"/>
      <point x="252.33137" y="455.0"/>
      <point x="293.725" y="455.0" type="curve" smooth="yes"/>
      <point x="335.11863" y="455.0"/>
      <point x="368.725" y="488.60637"/>
    </contour>
    <contour>
      <point x="41.224998474121094" y="0" type="line"/>
      <point x="181.2249984741211" y="0" type="line"/>
      <point x="181.2249984741211" y="600" type="line"/>
      <point x="41.224998474121094" y="600" type="line"/>
    </contour>
    <contour>
      <point x="336.225" y="-165.0" type="line"/>
      <point x="336.225" y="-87.7319"/>
      <point x="273.4931" y="-25.0"/>
      <point x="196.225" y="-25.0" type="curve"/>
      <point x="196.225" y="-165.0" type="line"/>
    </contour>
  </outline>
</glyph>
<glyph name="R_with_caron" format="2">
  <advance width="404.95"/>
  <unicode hex="0158"/>
  <outline>
    <contour>
      <point x="198.1" y="841.6666666666666" type="line"/>
      <point x="198.1" y="918.9347666666666"/>
      <point x="135.3681" y="981.6666666666666"/>
      <point x="58.099999999999994" y="981.6666666666666" type="curve"/>
      <point x="58.099999999999994" y="841.6666666666666" type="line"/>
    </contour>
    <contour>
      <point x="346.85" y="981.6666666666666" type="line"/>
      <point x="269.5819" y="981.6666666666666"/>
      <point x="206.85" y="918.9347666666666"/>
      <point x="206.85" y="841.6666666666666" type="curve"/>
      <point x="346.85" y="841.6666666666666" type="line"/>
    </contour>
    <contour>
      <point x="41.224998474121094" y="0" type="line"/>
      <point x="181.2249984741211" y="0" type="line"/>
      <point x="181.2249984741211" y="800" type="line"/>
      <point x="41.224998474121094" y="800" type="line"/>
    </contour>
    <contour>
      <point x="223.7249984741211" y="200" type="line"/>
      <point x="260.43761443425007" y="200.0"/>
      <point x="363.72500060769863" y="212.55637134065458"/>
      <point x="363.7249998298181" y="375.68973389184885" type="curve"/>
      <point x="363.724998644303" y="624.3102673349817" type="line"/>
      <point x="363.7249978664225" y="787.4436300689365"/>
      <point x="260.43761596012894" y="800.0"/>
      <point x="223.725" y="800.0" type="curve"/>
    </contour>
    <contour>
      <point x="223.7249984741211" y="0" type="line"/>
      <point x="363.7249984741211" y="0" type="line"/>
      <point x="363.7249984741211" y="24.310267334981766" type="line"/>
      <point x="363.7249984741211" y="187.4436300689365"/>
      <point x="260.43761596012894" y="200.0"/>
      <point x="223.725" y="200.0" type="curve"/>
    </contour>
  </outline>
</glyph>
<glyph name="s_with_circumflex" format="2">
  <advance width="404.95"/>
  <unicode hex="015D"/>
  <outline>
    <contour>
      <point x="58.099999999999994" y="641.6666666666666" type="line"/>
      <point x="135.3681" y="641.6666666666666"/>
      <point x="198.1" y="704.3985666666666"/>
      <point x="198.1" y="781.6666666666666" type="curve"/>
      <point x="58.099999999999994" y="781.6666666666666" type="line"/>
    </contour>
    <contour>
      <point x="206.85" y="781.6666666666666" type="line"/>
      <point x="206.85" y="704.3985666666666"/>
      <point x="269.5819" y="641.6666666666666"/>
      <point x="346.85" y="641.6666666666666" type="curve"/>
      <point x="346.85" y="781.6666666666666" type="line"/>
    </contour>
    <contour>
      <point x="41.224999079212324" y="405.6897331870534" type="line"/>
      <point x="41.22499631341504" y="242.55637045309868"/>
      <point x="144.51238403987105" y="230.0"/>
      <point x="181.225" y="230.0" type="curve"/>
      <point x="181.2249984741211" y="600" type="line"/>
      <point x="144.51238251399212" y="600.0"/>
      <point x="41.22500216070608" y="587.4436300689364"/>
      <point x="41.22499939490878" y="424.31026751774215" type="curve"/>
    </contour>
    <contour>
      <point x="219.35" y="600.0" type="line"/>
      <point x="219.35" y="522.7319"/>
      <point x="282.0819" y="460.0"/>
      <point x="359.35" y="460.0" type="curve"/>
      <point x="359.35" y="600.0" type="line"/>
    </contour>
    <contour>
      <point x="223.7249984741211" y="-5" type="line"/>
      <point x="260.43761443425007" y="-5.0"/>
      <point x="363.7250021607061" y="7.556371340654636"/>
      <point x="363.72499939490876" y="170.68973389184887" type="curve"/>
      <point x="363.7249990792123" y="189.31026733498177" type="line"/>
      <point x="363.724996313415" y="352.4436300689365"/>
      <point x="260.43761596012894" y="365.0"/>
      <point x="223.725" y="365.0" type="curve"/>
    </contour>
    <contour>
      <point x="183.4125" y="0" type="line"/>
      <point x="183.4125" y="77.2681"/>
      <point x="120.6806" y="140.0"/>
      <point x="43.4125" y="140.0" type="curve"/>
      <point x="43.4125" y="0" type="line"/>
    </contour>
  </outline>
</glyph>
<glyph name="t_with_cedilla" format="2">
  <advance width="404.95"/>
  <unicode hex="0163"/>
  <outline>
    <contour>
      <point x="41.224998474121094" y="0" type="line"/>
      <point x="181.2249984741211" y="0" type="line"/>
      <point x="181.2249984741211" y="800" type="line"/>
      <point x="144.51238251399212" y="800.0"/>
      <point x="41.225000294641745" y="787.4436300689365"/>
      <point x="41.22499991748756" y="624.3102675177422" type="curve"/>
    </contour>
    <contour>
      <point x="223.725" y="460.0" type="line"/>
      <point x="300.9931" y="460.0"/>
      <point x="363.725" y="522.7319"/>
      <point x="363.725" y="600.0" type="curve"/>
      <point x="223.725" y="600.0" type="line"/>
    </contour>
    <contour>
      <point x="253.1" y="-165.0" type="line"/>
      <point x="253.1" y="-87.7319"/>
      <point x="190.3681" y="-25.0"/>
      <point x="113.1" y="-25.0" type="curve"/>
      <point x="113.1" y="-165.0" type="line"/>
    </contour>
  </outline>
</glyph>
<glyph name="u_with_smalltilde" format="2">
  <advance width="404.95"/>
  <unicode hex="0169"/>
  <outline>
    <contour>
      <point x="166.78526340761294" y="641.6666647718472" type="line"/>
      <point x="329.91862614156764" y="641.6666618084929"/>
      <point x="342.475" y="744.9540507065377"/>
      <point x="342.475" y="781.6666666666666" type="curve"/>
      <point x="238.1647307975977" y="781.6666647718472" type="line"/>
      <point x="75.03136806364301" y="781.666661808493"/>
      <point x="62.474999999999994" y="678.3792826267955"/>
      <point x="62.474999999999994" y="641.6666666666666" type="curve"/>
    </contour>
    <contour>
      <point x="41.224998474121094" y="170.68973318705338" type="line"/>
      <point x="41.2249984741211" y="7.556370453098651"/>
      <point x="144.51238403987105" y="-4.999999999999996"/>
      <point x="181.225" y="-5.0" type="curve"/>
      <point x="181.2249984741211" y="600" type="line"/>
      <point x="41.224998474121094" y="600" type="line"/>
    </contour>
    <contour>
      <point x="223.7249984741211" y="-5" type="line"/>
      <point x="260.43761443425007" y="-5.0"/>
      <point x="363.7250004182012" y="7.556371340654607"/>
      <point x="363.7249998828856" y="170.68973389184887" type="curve"/>
      <point x="363.7249984741211" y="600" type="line"/>
      <point x="223.7249984741211" y="600" type="line"/>
    </contour>
  </outline>
</glyph>
